<?xml version="1.0" standalone="no"?>
<!DOCTYPE svg PUBLIC "-//W3C//DTD SVG 1.1//EN" "http://www.w3.org/Graphics/SVG/1.1/DTD/svg11.dtd" >
<svg xmlns="http://www.w3.org/2000/svg" xmlns:xlink="http://www.w3.org/1999/xlink" version="1.1">
<metadata></metadata>
<defs>
<font id="gilroyregular_italic" horiz-adv-x="1064" >
<font-face units-per-em="2048" ascent="1587" descent="-461" />
<missing-glyph horiz-adv-x="512" />
<glyph horiz-adv-x="0" />
<glyph unicode="&#xd;" horiz-adv-x="681" />
<glyph unicode=" "  horiz-adv-x="512" />
<glyph unicode="&#x09;" horiz-adv-x="512" />
<glyph unicode="&#xa0;" horiz-adv-x="512" />
<glyph unicode="!" horiz-adv-x="471" d="M49 94q8 47 44 79t87 32q47 0 75 -34t19 -81q-24 -110 -133 -110q-47 0 -73.5 33.5t-18.5 80.5zM164 389l80 635l71 410h164l-71 -410l-142 -635h-102z" />
<glyph unicode="&#x22;" horiz-adv-x="634" d="M213 1024l51 410h144l-93 -410h-102zM500 1024l51 410h143l-92 -410h-102z" />
<glyph unicode="#" horiz-adv-x="1226" d="M55 471l41 123h246l86 246h-250l43 123h248l127 368h131l-127 -368h270l127 368h131l-127 -368h244l-43 -123h-241l-87 -246h246l-41 -123h-245l-127 -369h-132l127 369h-270l-127 -369h-131l127 369h-246zM473 594h270l86 246h-270z" />
<glyph unicode="$" horiz-adv-x="1148" d="M43 287l129 63q57 -203 295 -231l98 557q-35 14 -61.5 27.5t-63.5 33t-61.5 38t-54 46t-44 55t-31 65.5t-13 77t9.5 88q33 168 170 258q133 90 286 94l33 180h123l-33 -190q223 -47 312 -258l-129 -64q-72 148 -207 183l-96 -539q176 -78 241 -139q125 -113 90 -295 q-35 -168 -164 -258q-133 -94 -307 -103l-33 -180h-122l32 185q-152 18 -254 98t-145 209zM389 1092q-18 -96 31 -155.5t170 -115.5l88 498q-104 -8 -185 -69.5t-104 -157.5zM590 117q119 12 201 74.5t102 160.5q23 98 -30.5 158.5t-182.5 116.5z" />
<glyph unicode="%" horiz-adv-x="1454" d="M135 197l1151 1079l88 -53l-1153 -1080zM238 1159q23 129 127 213q104 86 241 86q131 0 205 -94q76 -90 53 -221q-20 -127 -125 -215q-102 -84 -241 -84q-129 0 -207 92q-76 92 -53 223zM368.5 1151q-14.5 -78 26.5 -131q43 -53 123 -53t139 53q61 53 76 131t-28 131 q-41 53 -121 53q-78 0 -142 -53q-59 -53 -73.5 -131zM664 291q23 129 127 213q104 86 241 86q131 0 205 -94q76 -90 53 -222q-20 -129 -127 -215q-102 -84 -239 -84q-129 0 -207 93q-76 92 -53 223zM794.5 283q-12.5 -78 28.5 -131.5t121 -53.5t139 54q61 53 76 130.5 t-29 131.5q-41 53 -120 53q-78 0 -142 -53q-61 -53 -73.5 -131z" />
<glyph unicode="&#x26;" horiz-adv-x="1357" d="M104 408q49 266 357 397q-82 137 -58 289q29 164 152 264q125 100 301 100q147 0 254 -75.5t150 -208.5l-125 -68q-27 98 -103 155.5t-180 57.5q-115 0 -201 -64.5t-104 -173.5q-20 -137 86 -280l338 -439q84 115 135 269l111 -74q-61 -170 -164 -301l170 -219l-125 -62 l-137 179q-197 -178 -449 -179q-215 0 -328 119q-115 119 -80 314zM248 395q-23 -129 52 -204.5t222 -75.5q201 0 357 143l-336 436q-254 -94 -295 -299z" />
<glyph unicode="'" horiz-adv-x="348" d="M213 1024l51 410h144l-93 -410h-102z" />
<glyph unicode="(" horiz-adv-x="546" d="M162 729q80 459 387 909h135q-305 -446 -387 -921.5t61 -921.5h-135q-145 451 -61 934z" />
<glyph unicode=")" horiz-adv-x="544" d="M-66 -205q305 446 387 921.5t-61 921.5h135q145 -451 62 -933q-80 -459 -387 -910h-136z" />
<glyph unicode="*" horiz-adv-x="804" d="M233 1135l21 114l184 -6l-80 154l111 61l63 -166l125 166l99 -61l-133 -154l188 6l-20 -114l-187 6l80 -154l-109 -61l-65 166l-123 -166l-100 61l133 154z" />
<glyph unicode="+" horiz-adv-x="1105" d="M147 651l23 131h367l63 365h131l-63 -365h362l-22 -131h-365l-63 -364h-131l63 364h-365z" />
<glyph unicode="," horiz-adv-x="491" d="M-18 -287l163 461h164l-205 -461h-122z" />
<glyph unicode="-" d="M174 567l23 131h737l-23 -131h-737z" />
<glyph unicode="." horiz-adv-x="471" d="M49 94q8 47 44 79t87 32q47 0 75 -34t19 -81q-24 -110 -133 -110q-47 0 -73.5 33.5t-18.5 80.5z" />
<glyph unicode="/" horiz-adv-x="1085" d="M-45 -205l1139 1843h108l-1139 -1843h-108z" />
<glyph unicode="0" horiz-adv-x="1296" d="M141 733q61 344 234.5 534.5t439.5 190.5q248 0 359 -211q113 -209 53 -547q-61 -344 -234.5 -534.5t-439.5 -190.5q-248 0 -360 211q-111 211 -52 547zM285 717q-52 -285 26 -445q78 -158 266.5 -157.5t321.5 157.5q131 156 184 445q51 285 -26 444q-78 158 -266.5 158 t-321.5 -158q-131 -156 -184 -444z" />
<glyph unicode="1" horiz-adv-x="696" d="M170 1303l401 131h123l-252 -1434h-143l223 1274v-2l-338 -96z" />
<glyph unicode="2" horiz-adv-x="1075" d="M-8 0l22 129l609 520q256 219 286 379q27 135 -47 213q-72 78 -190 78q-209 0 -353 -205l-112 74q184 270 481 270q176 0 289 -123t76 -323q-23 -119 -104 -226.5t-238 -238.5l-484 -408h701l-25 -139h-911z" />
<glyph unicode="3" horiz-adv-x="1085" d="M16 260l123 68q53 -213 312 -213q152 0 259 80.5t131.5 220t-55 220.5t-229.5 81h-41l-47 98l430 483h-659l22 136h840l-23 -136l-409 -462q162 -27 254 -142q92 -113 61 -291q-37 -201 -194 -315q-156 -113 -357 -113q-162 0 -272.5 75t-145.5 210z" />
<glyph unicode="4" horiz-adv-x="1167" d="M12 287l23 135l710 1012h164l-710 -1012h594l77 438h144l-78 -438h184l-22 -135h-185l-51 -287h-143l51 287h-758z" />
<glyph unicode="5" horiz-adv-x="1116" d="M41 281l127 67q18 -113 101 -173t212 -60q152 0 259.5 80.5t132 220t-55.5 220.5t-229 81h-389l176 717h768l-23 -136h-637l-110 -442h239q186 0 311.5 -125t92.5 -328q-37 -205 -193 -317q-154 -111 -358 -111q-164 0 -278.5 80t-145.5 226z" />
<glyph unicode="6" horiz-adv-x="1087" d="M53 461q31 176 150 295l571 678h174l-440 -521q40 9 106 9q205 0 320 -139.5t78 -346.5q-39 -211 -193 -336q-150 -125 -370 -125q-209 0 -322 138q-115 139 -74 348zM197 449q-29 -152 46.5 -243t229.5 -91t260 90t135 244q27 152 -49 242.5t-229.5 90.5t-260 -91 t-132.5 -242z" />
<glyph unicode="7" horiz-adv-x="1003" d="M141 0l762 1298h-723l23 136h880l-22 -136l-762 -1298h-158z" />
<glyph unicode="8" horiz-adv-x="1126" d="M61 401q18 117 98.5 206t202.5 138q-174 119 -137 328q35 193 178 287q145 98 326 98q168 0 281 -110q115 -109 80 -299q-37 -207 -246 -316q100 -55 147 -148t29 -208q-35 -195 -189 -299q-156 -102 -364 -103q-195 0 -317 117q-121 117 -89 309zM205 389 q-25 -131 55 -202.5t232 -71.5q156 0 258 71.5t127 202.5q23 127 -59.5 201t-229.5 74q-152 0 -256.5 -72t-126.5 -203zM368.5 1061q-22.5 -125 53.5 -191q78 -68 190 -67q127 0 219 68.5t115 189.5q23 125 -46 191.5t-195.5 66.5t-220 -66.5t-116 -191.5z" />
<glyph unicode="9" horiz-adv-x="1091" d="M147 1001q37 209 191 332q156 125 375 125q205 0 319.5 -139t77.5 -350q-31 -174 -147 -291l-572 -678h-174l438 520q-66 -8 -110 -8q-207 0 -322 139q-113 137 -76 350zM290.5 985.5q-26.5 -151.5 49 -243t229.5 -91.5q156 0 263.5 91.5t134 243t-49 242.5t-229.5 91 q-156 0 -263.5 -91t-134 -242.5z" />
<glyph unicode=":" horiz-adv-x="471" d="M49 94q8 47 44 79t87 32q47 0 75 -34t19 -81q-24 -110 -133 -110q-47 0 -73.5 33.5t-18.5 80.5zM196.5 934q8.5 47 44 78.5t87.5 31.5q47 0 74.5 -33.5t19.5 -80.5q-24 -111 -133 -111q-47 0 -74 34t-18.5 81z" />
<glyph unicode=";" horiz-adv-x="503" d="M-18 -287l163 461h164l-205 -461h-122zM229.5 934q8.5 47 44 78.5t86.5 31.5q47 0 75 -33.5t20 -80.5q-24 -111 -133 -111q-47 0 -74 34t-18.5 81z" />
<glyph unicode="&#x3c;" d="M147 645l25 143l883 359l-29 -160l-713 -278l615 -279l-25 -143z" />
<glyph unicode="=" horiz-adv-x="1105" d="M111 446l24 132h860l-24 -132h-860zM184 856l23 131h860l-23 -131h-860z" />
<glyph unicode="&#x3e;" d="M84 287l29 159l710 279l-612 279l25 143l753 -359l-24 -143z" />
<glyph unicode="?" horiz-adv-x="1087" d="M219 1180q70 133 199 205.5t282 72.5q170 0 283 -106.5t80 -284.5q-25 -158 -191 -293q-8 -6 -49 -39t-53 -43t-48 -40.5t-49.5 -46t-40 -46.5t-38.5 -54.5t-24.5 -54t-18.5 -61.5h-143q35 188 194 324q23 18 78 63t84 71.5t67.5 66.5t60 81t28.5 84q18 115 -48.5 177.5 t-195.5 62.5q-109 0 -198 -54.5t-138 -156.5zM315.5 94q8.5 47 44 79t86.5 32q47 0 75 -34t20 -81q-24 -110 -133 -110q-47 0 -74 33.5t-18.5 80.5z" />
<glyph unicode="@" horiz-adv-x="1628" d="M86 532q51 307 303 515q255 206 572 206q207 0 356 -108q145 -106 204.5 -267t28.5 -337q-37 -207 -137 -314.5t-231 -107.5q-82 0 -135.5 44t-61.5 128q-106 -106 -248 -107q-135 0 -219 99q-80 100 -55 237q25 139 133.5 229.5t255.5 90.5q129 0 199 -107l16 92h127 l-78 -442q-35 -197 98 -197q96 0 170 92.5t105 274.5q47 276 -109 459q-154 184 -430 184q-291 0 -520 -192q-229 -190 -283 -484q-51 -297 117 -495q172 -197 481 -197q205 0 367 59l-10 -61q-162 -55 -367 -55q-332 0 -520 219t-129 542zM590 512q-16 -95 35 -150t141 -55 q86 0 158 55q74 61 88 150q16 94 -35 147q-49 57 -137 57.5t-162 -57t-88 -147.5z" />
<glyph unicode="A" horiz-adv-x="1290" d="M-70 0l803 1434h148l299 -1434h-148l-69 352h-680l-197 -352h-156zM356 487h580l-152 768z" />
<glyph unicode="B" horiz-adv-x="1269" d="M74 0l252 1434h546q168 0 269 -117q83 -94 83 -217q0 -30 -5 -62q-31 -197 -220 -299q93 -49 139 -142q32 -66 32 -142q0 -32 -5 -66q-25 -164 -155.5 -276.5t-311.5 -112.5h-624zM242 135h469q115 0 205 78q90 79 108 187q4 25 4 47q0 78 -47 139q-60 78 -166 78h-481z M358 799h433q100 0 184 71q84 76 102 179q4 24 4 46q-1 75 -47 131q-60 72 -166 72h-424z" />
<glyph unicode="C" horiz-adv-x="1525" d="M121 737q55 309 297 514q244 207 547 207q207 0 359.5 -94t227.5 -262l-127 -68q-129 285 -462 285q-262 0 -461 -174t-242 -428q-10 -60 -10 -116q0 -181 106 -314q137 -172 398 -172q166 0 310 77.5t236 215.5l121 -76q-115 -164 -297 -260.5t-387 -96.5 q-322 0 -497 226q-132 169 -132 391q0 70 13 145z" />
<glyph unicode="D" horiz-adv-x="1478" d="M74 0l252 1434h553q285 0 444 -220q120 -163 120 -373q0 -70 -13 -145q-51 -295 -279 -497q-223 -199 -524 -199h-553zM242 135h409q236 0 416 168t223 414q11 64 11 123q0 166 -89 290q-118 168 -356 168h-412z" />
<glyph unicode="E" horiz-adv-x="1085" d="M74 0l252 1434h829l-22 -136h-689l-88 -507h635l-24 -136h-635l-90 -520h696l-25 -135h-839z" />
<glyph unicode="F" horiz-adv-x="1054" d="M74 0l252 1434h809l-25 -136h-666l-92 -528h635l-24 -135h-635l-111 -635h-143z" />
<glyph unicode="G" horiz-adv-x="1617" d="M123 748q55 309 297 507q242 203 555 203q205 0 356.5 -93t233.5 -263l-127 -68q-143 285 -467 285q-266 0 -467 -170q-199 -168 -242 -426q-11 -63 -11 -121q0 -179 105 -313q137 -174 416 -174q233 0 399 123q168 123 224 309h-572l25 135h717l-13 -72 q-47 -268 -264 -452q-217 -182 -522 -183q-338 0 -520 226q-137 172 -137 398q0 72 14 149z" />
<glyph unicode="H" horiz-adv-x="1392" d="M74 0l252 1434h143l-111 -629h779l110 629h144l-252 -1434h-144l117 670h-778l-117 -670h-143z" />
<glyph unicode="I" horiz-adv-x="471" d="M74 0l252 1434h143l-252 -1434h-143z" />
<glyph unicode="J" horiz-adv-x="1132" d="M33 229l129 70q55 -184 289 -184q152 0 251 73.5t123 217.5l181 1028h143l-180 -1033q-41 -219 -187 -323q-149 -103 -342 -103q-322 0 -407 254z" />
<glyph unicode="K" horiz-adv-x="1183" d="M74 0l252 1434h143l-115 -660l766 660h193l-813 -707l573 -727h-170l-561 709l-125 -709h-143z" />
<glyph unicode="L" horiz-adv-x="1003" d="M74 0l252 1434h143l-227 -1299h655l-25 -135h-798z" />
<glyph unicode="M" horiz-adv-x="1638" d="M74 0l252 1434h168l340 -807l622 807h180l-252 -1434h-143l211 1206l-639 -829h-20l-361 852l-215 -1229h-143z" />
<glyph unicode="N" horiz-adv-x="1392" d="M74 0l252 1434h110l608 -1166l203 1166h144l-252 -1434h-111l-606 1165l-205 -1165h-143z" />
<glyph unicode="O" horiz-adv-x="1654" d="M121 737q51 305 297 514q248 207 565 207h14q191 0 343 -106q158 -110 230 -289q47 -118 47 -242q0 -66 -13 -135q-55 -309 -299 -510t-568 -201q-309 0 -491 226q-138 172 -138 395q0 68 13 141zM264 717q-11 -61 -11 -117q0 -177 107 -311q144 -174 402 -174 q264 0 457 168q195 168 241 424q10 59 10 114q0 183 -110 318q-141 180 -401.5 180t-454.5 -174q-197 -176 -240 -428z" />
<glyph unicode="P" horiz-adv-x="1206" d="M74 0l252 1434h501q203 0 308 -129q81 -98 81 -234q0 -42 -8 -88q-35 -195 -184 -324q-152 -127 -387 -127h-326l-94 -532h-143zM334 668h319q168 0 279.5 93t136.5 243q6 33 6 63q0 91 -53 151q-70 80 -209 80h-369z" />
<glyph unicode="Q" horiz-adv-x="1665" d="M121 737q51 305 297 514q248 207 565 207h14q191 0 343 -106q159 -109 231 -289q47 -117 47 -241q0 -67 -14 -136q-55 -309 -299 -510l118 -143l-102 -88l-129 153q-213 -123 -455 -123q-309 0 -491 226q-138 172 -138 395q0 68 13 141zM264 717q-11 -61 -11 -117 q0 -178 107 -311q143 -174 402 -174q184 0 342 88l-262 313l104 88l271 -323q199 170 243 426q10 59 10 114q0 183 -110 318q-141 180 -401.5 180t-454.5 -174q-197 -176 -240 -428z" />
<glyph unicode="R" horiz-adv-x="1249" d="M74 0l252 1434h573q172 0 279 -138q83 -104 83 -232q0 -40 -8 -81q-25 -143 -129 -252q-104 -106 -250 -141l244 -590h-149l-236 573h-416l-100 -573h-143zM342 709h430q121 0 219 86q103 90 123 209q4 28 4 53q0 89 -53 155q-72 86 -188 86h-433z" />
<glyph unicode="S" horiz-adv-x="1196" d="M49 326l125 65q25 -131 121 -203.5t256 -72.5q152 0 254 63.5t127 173.5q5 24 5 46q0 120 -151 196q-55 29 -172 68q-166 57 -276 141q-105 86 -105 221q0 39 9 82q33 172 174 262q143 90 311 90q170 0 281.5 -82t162.5 -223l-127 -66q-78 231 -325 232 q-119 0 -215 -59.5t-119 -167.5q-6 -28 -6 -54q0 -94 84 -149q86 -57 233 -109q209 -76 293 -153q92 -87 92 -213q0 -37 -8 -78q-33 -174 -180 -268q-143 -93 -346 -93q-197 0 -327 92.5t-171 258.5z" />
<glyph unicode="T" horiz-adv-x="1105" d="M180 1298l23 136h1024l-23 -136h-442l-227 -1298h-144l227 1298h-438z" />
<glyph unicode="U" horiz-adv-x="1351" d="M139 487l166 947h144l-166 -947q-8 -46 -8 -87q0 -111 61 -185q84 -100 266 -100t306 102t153 270l166 947h143l-166 -947q-43 -238 -207 -376q-162 -136 -395 -136q-242 0 -373 142q-99 111 -99 270q0 48 9 100z" />
<glyph unicode="V" horiz-adv-x="1245" d="M182 1434h144l229 -1252l672 1252h159l-780 -1434h-147z" />
<glyph unicode="W" horiz-adv-x="2048" d="M223 1434h142l139 -1246l592 1246h168l155 -1246l578 1246h151l-667 -1434h-172l-156 1245l-594 -1245h-172z" />
<glyph unicode="X" horiz-adv-x="1187" d="M-49 0l606 750l-324 684h148l268 -570l461 570h168l-567 -701l346 -733h-148l-291 618l-499 -618h-168z" />
<glyph unicode="Y" horiz-adv-x="1177" d="M182 1434h148l299 -633l522 633h168l-633 -766l-117 -668h-143l117 670z" />
<glyph unicode="Z" d="M-8 0l24 135l942 1163h-716l22 136h881l-23 -136l-944 -1163h760l-25 -135h-921z" />
<glyph unicode="[" horiz-adv-x="573" d="M-4 -205l326 1843h409l-22 -131h-275l-280 -1581h276l-24 -131h-410z" />
<glyph unicode="\" horiz-adv-x="1085" d="M281 1638h102l494 -1843h-103z" />
<glyph unicode="]" horiz-adv-x="573" d="M-86 -205l25 131h272l281 1581h-275l23 131h409l-325 -1843h-410z" />
<glyph unicode="^" horiz-adv-x="1024" d="M135 819l467 615h139l254 -615h-147l-191 465l-354 -465h-168z" />
<glyph unicode="_" d="M-59 -289l22 131h901l-22 -131h-901z" />
<glyph unicode="`" horiz-adv-x="411" d="M203 1434h164l118 -267h-131z" />
<glyph unicode="a" horiz-adv-x="1306" d="M86 532q43 246 211 381q170 135 375 136q135 0 244.5 -63.5t162.5 -178.5l39 217h135l-180 -1024h-135l31 174q-166 -199 -445 -199q-213 0 -346 166q-102 127 -102 288q0 50 10 103zM221 522q-7 -40 -7 -77q0 -124 75 -218q96 -121 268 -121q170 0 301 106.5t166 274.5 l4 25q6 41 6 77q0 136 -84 220q-104 109 -268 109q-160 0 -295 -105q-133 -104 -166 -291z" />
<glyph unicode="b" horiz-adv-x="1302" d="M53 0l252 1434h135l-104 -596q174 211 450 211q213 0 342 -160q102 -120 103 -281q0 -48 -10 -100q-41 -229 -215 -381t-408 -152q-127 0 -225.5 63.5t-147.5 176.5l-37 -215h-135zM279 512q-7 -41 -7 -78q0 -122 72 -211q94 -117 266 -117q176 0 310 121t165 295 q8 41 8 79q0 117 -73 204q-94 113 -266 113q-170 0 -308 -119q-137 -115 -167 -287z" />
<glyph unicode="c" horiz-adv-x="1132" d="M86 535q41 223 215 368q176 145 406 146q150 0 262 -72t155 -195l-116 -59q-33 92 -115 143.5t-199 51.5q-172 0 -309 -115q-133 -115 -164 -283q-7 -42 -7 -81q0 -124 70 -214q92 -119 267 -119q115 0 214 55.5t161 149.5l108 -71q-78 -125 -211 -195t-295 -70 q-221 0 -354 164q-98 124 -98 288q0 52 10 108z" />
<glyph unicode="d" horiz-adv-x="1306" d="M86 532q43 246 211 381q170 135 375 136q135 0 244.5 -63.5t162.5 -178.5l111 627h135l-252 -1434h-135l31 174q-166 -199 -445 -199q-213 0 -346 166q-102 127 -102 288q0 50 10 103zM221 522q-7 -40 -7 -77q0 -124 75 -218q96 -121 268 -121q168 0 299 107 q133 109 168 272l4 33q6 38 6 72q0 134 -84 221q-104 106 -268 107q-160 0 -295 -105q-133 -104 -166 -291z" />
<glyph unicode="e" horiz-adv-x="1196" d="M86 532q41 227 211 371q176 146 397 146q231 0 353 -160q90 -118 90 -266q0 -55 -13 -115q-4 -29 -16 -64h-895v-19q0 -143 87 -228q93 -91 255 -91q236 0 363 177l106 -70q-72 -111 -206 -174.5t-281 -63.5q-238 0 -365 160q-96 121 -96 286q0 53 10 111zM233 575h762 q2 21 2 40q1 135 -73 213q-84 90 -238 90q-160 0 -283 -93.5t-170 -249.5z" />
<glyph unicode="f" horiz-adv-x="657" d="M119 893l22 131h174l9 41q37 207 164 309q110 86 277 86q28 0 58 -2l-24 -131q-25 2 -47 2q-245 0 -293 -264l-8 -41h294l-22 -131h-295l-158 -893h-135l158 893h-174z" />
<glyph unicode="g" horiz-adv-x="1308" d="M43 -184l121 61q74 -180 336 -180q186 0 302 90t144 254l25 137q-168 -203 -432 -203q-231 0 -361 162q-99 128 -99 301q0 45 7 94q33 236 207 375q174 141 379 142q133 0 243.5 -63.5t163.5 -178.5l39 217h135l-172 -983q-39 -227 -200 -350q-158 -125 -387 -125 q-160 0 -278 65.5t-173 184.5zM222 522q-6 -39 -6 -75q0 -129 73 -222q98 -119 274 -119q166 0 297 107t166 285v4l2 10q7 41 7 79q0 131 -85 216q-109 111 -268 111q-158 0 -297 -109q-137 -109 -163 -287z" />
<glyph unicode="h" horiz-adv-x="1142" d="M53 0l252 1434h135l-96 -553q142 168 363 168q186 0 278 -115q68 -85 68 -210q0 -45 -9 -95l-110 -629h-135l110 629q7 42 7 78q0 211 -234 211q-152 0 -256 -93.5t-141 -273.5l-97 -551h-135z" />
<glyph unicode="i" horiz-adv-x="421" d="M53 0l180 1024h136l-181 -1024h-135zM258 1339q6 41 39 70t76 29q41 0 65 -29q18 -22 19 -51q0 -9 -2 -19q-8 -43 -41 -70.5t-76 -27.5q-42 1 -64 29q-18 22 -17 52q0 8 1 17z" />
<glyph unicode="j" horiz-adv-x="471" d="M-207 -434l23 131q22 -2 42 -2q87 0 141 42q66 52 89 181l195 1106h135l-195 -1106q-35 -201 -141 -285q-89 -70 -230 -70q-28 0 -59 3zM307 1339q6 41 39 70t76 29q41 0 66 -29q18 -22 18 -51q0 -9 -2 -19q-8 -43 -41 -70.5t-76 -27.5q-41 0 -63 29q-18 22 -18 52 q0 8 1 17z" />
<glyph unicode="k" horiz-adv-x="1011" d="M53 0l252 1434h135l-149 -856l561 446h188l-618 -492l459 -532h-164l-438 510l-91 -510h-135z" />
<glyph unicode="l" horiz-adv-x="423" d="M55 0l107 612l155 883h136l-156 -883l-107 -612h-135z" />
<glyph unicode="m" horiz-adv-x="1736" d="M53 0l180 1024h136l-23 -133q139 158 334 158q104 0 177 -49.5t104 -141.5q145 191 366 191q162 0 254 -111q68 -83 68 -206q0 -44 -9 -93l-112 -639h-135l112 639q7 39 7 74q0 81 -38 132q-54 73 -174 73q-127 0 -215 -81t-122 -243l-105 -594h-135l113 639q7 42 7 77 q-1 78 -35 129q-50 73 -163 73q-129 0 -224 -84t-130 -246l-103 -588h-135z" />
<glyph unicode="n" horiz-adv-x="1142" d="M53 0l180 1024h136l-25 -143q138 168 363 168q186 0 278 -115q68 -85 68 -210q0 -45 -9 -95l-110 -629h-135l110 629q7 42 7 78q0 211 -234 211q-150 0 -255 -91.5t-140 -269.5l-99 -557h-135z" />
<glyph unicode="o" horiz-adv-x="1243" d="M84 522q43 250 229 387q188 139 406 140q211 0 346 -152q104 -114 104 -282q0 -53 -10 -111q-29 -172 -129 -295q-190 -234 -491 -234q-217 0 -359 150q-106 116 -106 286q0 53 10 111zM219 512q-9 -49 -9 -93q0 -129 76 -209q99 -105 254 -104h11q164 0 303 109 q137 106 172 303q8 45 8 85q0 126 -78 208q-100 106 -262 107q-168 -4 -303 -109q-139 -109 -172 -297z" />
<glyph unicode="p" horiz-adv-x="1306" d="M-18 -410l251 1434h136l-31 -174q165 199 444 199q213 0 346 -166q103 -127 103 -289q0 -49 -10 -102q-43 -246 -213 -381q-168 -135 -373 -136q-135 0 -244.5 63.5t-163.5 178.5l-110 -627h-135zM279 506q-6 -38 -6 -73q0 -133 83 -220q104 -106 269 -107q162 0 293 105 q134 105 167 291q7 40 7 77q0 123 -74 216q-96 123 -268 123q-168 0 -301 -109t-166 -270z" />
<glyph unicode="q" horiz-adv-x="1306" d="M86 532q43 246 211 381q170 135 375 136q137 0 247.5 -63.5t159.5 -178.5l39 217h135l-252 -1434h-135l103 586q-170 -201 -445 -201q-213 0 -346 166q-102 127 -102 288q0 50 10 103zM221 522q-7 -40 -7 -77q0 -123 75 -218q96 -121 268 -121q164 0 297 105 q135 111 168 268l8 39q5 35 5 67q0 137 -87 224q-104 109 -266 109q-160 0 -295 -105q-133 -104 -166 -291z" />
<glyph unicode="r" horiz-adv-x="645" d="M53 0l180 1024h136l-25 -143q126 160 318 160q17 0 34 -1l-24 -131q-147 0 -251 -85t-132 -255l-101 -569h-135z" />
<glyph unicode="s" horiz-adv-x="972" d="M51 219l121 64q16 -80 86 -128.5t172 -48.5q104 0 174 43.5t84 118.5q2 12 2 24q0 42 -28 74q-36 42 -100 61t-137 47t-135 58q-62 28 -94 92q-22 43 -21 97q0 26 5 55q23 117 125 193q104 80 250 80q256 0 346 -209l-119 -64q-45 141 -231 142q-88 0 -155.5 -42 t-80.5 -118q-2 -11 -2 -21q0 -100 181 -157q66 -18 102.5 -30.5t92.5 -41.5t84 -60q29 -32 45 -84q10 -31 9 -65q0 -23 -4 -49q-23 -129 -130 -202t-273 -73q-145 0 -241.5 65.5t-127.5 178.5z" />
<glyph unicode="t" horiz-adv-x="770" d="M109 893l24 131h215l43 246l141 41l-51 -287h297l-24 -131h-295l-109 -621q-5 -29 -5 -52q1 -44 19 -68q28 -34 92 -36h28q57 0 134 3l-20 -119q-75 -12 -135 -12q-117 0 -181 46q-73 53 -74 164q0 34 7 74l111 621h-217z" />
<glyph unicode="u" horiz-adv-x="1142" d="M98 395l111 629h135l-111 -629q-7 -42 -7 -78q0 -211 235 -211q150 0 255 91.5t140 269.5l98 557h136l-181 -1024h-135l25 143q-137 -168 -363 -168q-186 0 -278 115q-68 85 -68 212q0 44 8 93z" />
<glyph unicode="v" horiz-adv-x="962" d="M111 1024h137l162 -877l471 877h151l-559 -1024h-164z" />
<glyph unicode="w" horiz-adv-x="1576" d="M152 1024h133l102 -850l418 850h137l-2 -4l119 -846l401 850h146l-496 -1024h-147l-119 825l-410 -825h-147z" />
<glyph unicode="x" horiz-adv-x="1044" d="M-49 0l493 537l-286 487h151l228 -387l356 387h174l-461 -502l307 -522h-151l-250 422l-387 -422h-174z" />
<glyph unicode="y" horiz-adv-x="1044" d="M10 -410l23 127q12 -1 24 -1q156 0 285 214l43 72l-274 1022h137l227 -870l488 870h151l-635 -1118q-92 -162 -213 -244q-108 -73 -227 -73q-14 0 -29 1z" />
<glyph unicode="z" horiz-adv-x="921" d="M-8 0l16 90l705 803h-543l23 131h737l-17 -90l-704 -803h584l-23 -131h-778z" />
<glyph unicode="{" horiz-adv-x="727" d="M127 653l25 131q119 0 172 41t75 160l60 342q35 190 140.5 269t287.5 63l-23 -131q-125 12 -186.5 -32t-83.5 -169l-59 -342q-23 -123 -72 -187.5t-135 -88.5q150 -45 112 -256l-59 -342q-25 -125 22.5 -169t174.5 -32l-23 -131q-180 -16 -260 69.5t-49 262.5l59 342 q23 119 -17 159.5t-161 40.5z" />
<glyph unicode="|" horiz-adv-x="462" d="M2 -410l332 1885h135l-332 -1885h-135z" />
<glyph unicode="}" horiz-adv-x="727" d="M-88 -221l22 131q125 -12 186.5 32t84.5 169l59 342q23 123 72 187.5t135 88.5q-150 45 -113 256l60 342q25 125 -22.5 169t-174.5 32l23 131q180 16 260 -70t49 -262l-59 -342q-23 -119 17 -160t161 -41l-25 -131q-119 0 -172 -41t-76 -159l-59 -342 q-35 -190 -140.5 -269.5t-287.5 -62.5z" />
<glyph unicode="~" horiz-adv-x="1216" d="M145 643q74 180 217.5 216t323.5 -85q90 -63 156.5 -70.5t108.5 28.5t79 116l113 -57q-74 -180 -214.5 -216t-324.5 84q-139 90 -216 68t-130 -141z" />
<glyph unicode="&#xa2;" horiz-adv-x="1134" d="M123 739q41 223 215 369q176 145 405 145q63 0 99 -8l94 189h111l-107 -217q166 -70 221 -230l-117 -59q-45 123 -163 168l-383 -774q51 -11 90 -11q115 0 214 55.5t161 149.5l108 -72q-78 -125 -211 -194.5t-295 -69.5q-59 0 -129 17l-96 -197h-111l115 233 q-129 70 -189.5 208.5t-31.5 297.5zM258 725q-20 -119 19.5 -217t128.5 -150l374 762q-10 2 -49 2q-172 0 -309 -114q-133 -115 -164 -283z" />
<glyph unicode="&#xa3;" horiz-adv-x="1198" d="M-8 0l24 139h193l80 453h-152l23 127h151l56 309q37 209 159.5 319.5t307.5 110.5q131 0 229 -73.5t139 -200.5l-119 -62q-74 197 -266 197q-119 0 -200.5 -74t-106.5 -217l-55 -309h473l-23 -127h-473l-80 -453h750l-25 -139h-1085z" />
<glyph unicode="&#xa5;" horiz-adv-x="1177" d="M121 350l20 119h367l22 123h-366l20 119h340l-342 723h148l299 -633l522 633h168l-598 -723h344l-21 -119h-370l-23 -123h371l-21 -119h-370l-62 -350h-143l61 350h-366z" />
<glyph unicode="&#xa8;" horiz-adv-x="655" d="M176 1270q6 39 38 65.5t71 26.5t60.5 -26.5t14.5 -65.5q-8 -68 -79 -86q-66 -16 -97 26q-16 25 -8 60zM565 1270q6 39 38 65.5t71 26.5t60.5 -26.5t15.5 -65.5q-8 -68 -80 -86q-66 -16 -97 26q-16 25 -8 60z" />
<glyph unicode="&#xa9;" horiz-adv-x="1646" d="M121 729q51 305 305 518q254 211 565 211q303 0 482 -223q180 -221 126 -530q-55 -305 -307 -519q-250 -211 -563 -211q-303 0 -483 223.5t-125 530.5zM182 717q-51 -283 113 -486q161 -198 444 -198q287 0 516 198q231 199 283 486q49 283 -114.5 483.5t-442.5 200.5 q-283 0 -518 -201q-231 -201 -281 -483zM469 729q27 164 158 272.5t301 108.5q100 0 184 -52t127 -140l-113 -58q-70 123 -221 123q-119 0 -200 -80q-80 -74 -103 -186q-18 -109 39 -187q57 -80 170 -79q168 0 254 133l104 -70q-63 -88 -162 -139t-210 -51q-162 0 -260 120 q-96 121 -68 285z" />
<glyph unicode="&#xab;" horiz-adv-x="1017" d="M164 633l291 368h178l-297 -378l158 -359h-168zM492 633l290 368h179l-297 -378l157 -359h-168z" />
<glyph unicode="&#xad;" d="M174 567l23 131h737l-23 -131h-737z" />
<glyph unicode="&#xae;" horiz-adv-x="1646" d="M121 729q51 305 305 518q254 211 565 211q303 0 482 -223q180 -221 126 -530q-55 -305 -307 -519q-250 -211 -563 -211q-303 0 -483 223.5t-125 530.5zM182 717q-51 -283 113 -486q162 -199 444 -198q287 0 516 198q232 199 283 486q49 283 -114.5 483.5t-442.5 200.5 q-283 0 -518 -201q-231 -201 -281 -483zM567 338l133 758h242q125 0 189.5 -73t46.5 -179q-27 -166 -181 -215l111 -291h-133l-98 270h-21h-115l-47 -270h-127zM764 731h123q141 0 163.5 121t-120.5 121h-125z" />
<glyph unicode="&#xb4;" horiz-adv-x="407" d="M156 1167l204 267h168l-237 -267h-135z" />
<glyph unicode="&#xb8;" horiz-adv-x="501" d="M-127 -442l21 110q295 -25 311 74q8 43 -39 64.5t-137 19.5l30 174h121l-16 -92q82 -16 126 -64.5t34 -111.5q-14 -92 -115 -142q-96 -49 -336 -32z" />
<glyph unicode="&#xbb;" horiz-adv-x="1019" d="M100 264l297 379l-157 358h168l161 -368l-290 -369h-179zM428 264l297 379l-158 358h168l162 -368l-291 -369h-178z" />
<glyph unicode="&#x2c6;" horiz-adv-x="675" d="M156 1167l262 267h160l172 -267h-148l-113 179l-174 -179h-159z" />
<glyph unicode="&#x2da;" horiz-adv-x="518" d="M186 1337q14 88 84 143.5t164 55.5q96 0 147.5 -61.5t39.5 -149.5q-14 -88 -83 -143.5t-165 -55.5q-98 0 -149.5 60.5t-37.5 150.5zM299 1331q-8 -45 15.5 -72.5t70.5 -27.5q49 0 83 28.5t42 71.5q8 45 -16.5 73t-71.5 28q-45 0 -80 -27t-43 -74z" />
<glyph unicode="&#x2dc;" horiz-adv-x="655" d="M160 1188q20 121 74.5 181.5t119 56t127.5 -59.5q33 -29 52.5 -43t41 -22.5t35 2t25.5 37t20 73.5h119q-20 -121 -73.5 -181.5t-118 -56t-127.5 59.5q-76 66 -113 68q-23 2 -38 -26t-25 -89h-119z" />
<glyph unicode="&#x401;" horiz-adv-x="1085" d="M74 0l252 1434h829l-22 -136h-689l-88 -507h635l-24 -136h-635l-90 -520h696l-25 -135h-839zM498 1679q6 39 37.5 66t70.5 27t60.5 -27t15.5 -66q-8 -68 -80 -86q-66 -16 -96 27q-16 24 -8 59zM887 1679q6 39 37.5 66t70.5 27t60.5 -27t15.5 -66q-8 -68 -80 -86 q-66 -16 -96 27q-16 24 -8 59z" />
<glyph unicode="&#x402;" horiz-adv-x="1409" d="M180 1298l23 136h1003l-22 -136h-463l-70 -401q160 70 320 70q182 0 275 -100.5t63 -288.5l-43 -242q-68 -381 -430 -352l22 131q117 -12 179.5 39t84.5 182l43 242q23 137 -29.5 197.5t-179.5 60.5q-156 0 -329 -78l-133 -758h-144l228 1298h-398z" />
<glyph unicode="&#x403;" horiz-adv-x="1003" d="M74 0l252 1434h798l-22 -136h-658l-227 -1298h-143zM651 1575l205 266h168l-238 -266h-135z" />
<glyph unicode="&#x404;" horiz-adv-x="1525" d="M121 737q55 309 297 514q244 207 547 207q207 0 359.5 -94t227.5 -262l-127 -68q-128 285 -462 285q-242 0 -435 -152q-188 -150 -254 -383h791l-25 -135h-788q-16 -236 121 -385t381 -149q166 0 310 77.5t236 215.5l121 -76q-115 -164 -297 -260.5t-387 -96.5 q-322 0 -497 226q-174 223 -119 536z" />
<glyph unicode="&#x405;" horiz-adv-x="1196" d="M49 326l125 65q25 -131 121 -203.5t256 -72.5q152 0 254 63.5t127 173.5q33 152 -146 242q-55 29 -172 68q-166 57 -276 141q-135 111 -96 303q33 172 174 262q143 90 311 90q170 0 281.5 -82t162.5 -223l-127 -66q-78 231 -325 232q-119 0 -215 -59.5t-119 -167.5 q-29 -133 78 -203q86 -57 233 -109q209 -76 293 -153q119 -113 84 -291q-33 -174 -180 -268q-143 -93 -346 -93q-197 0 -327 92.5t-171 258.5z" />
<glyph unicode="&#x406;" horiz-adv-x="471" d="M74 0l252 1434h143l-252 -1434h-143z" />
<glyph unicode="&#x407;" horiz-adv-x="471" d="M74 0l252 1434h143l-252 -1434h-143zM154 1679q6 39 37.5 66t70.5 27t60.5 -27t15.5 -66q-8 -68 -80 -86q-66 -16 -96 27q-16 24 -8 59zM543 1679q6 39 37.5 66t70.5 27t60.5 -27t15.5 -66q-8 -68 -80 -86q-66 -16 -96 27q-16 24 -8 59z" />
<glyph unicode="&#x408;" horiz-adv-x="1132" d="M33 229l129 70q55 -184 289 -184q152 0 251 73.5t123 217.5l181 1028h143l-180 -1033q-41 -219 -187 -323q-149 -103 -342 -103q-322 0 -407 254z" />
<glyph unicode="&#x409;" horiz-adv-x="2039" d="M-59 -2l22 127q143 -23 240 92q94 111 149 420l140 797h868l-109 -615h330q176 0 281 -123q106 -123 75 -299q-31 -178 -174 -286q-145 -111 -327 -111h-471l229 1298h-582l-118 -665q-70 -395 -213 -531q-127 -121 -340 -104zM1133 135h327q121 0 217 78q94 80 117 201 q20 117 -47.5 193.5t-190.5 76.5h-327z" />
<glyph unicode="&#x40a;" horiz-adv-x="2009" d="M74 0l252 1434h143l-109 -615h717l109 615h143l-108 -615h329q176 0 281 -123q106 -123 76 -299q-31 -178 -174 -286q-143 -111 -328 -111h-471l121 684h-717l-121 -684h-143zM1102 135h328q121 0 217 78q93 80 116 201q20 117 -47 193.5t-190 76.5h-328z" />
<glyph unicode="&#x40b;" horiz-adv-x="1419" d="M180 1298l23 136h1003l-22 -136h-463l-70 -401q160 70 320 70q182 0 275 -100.5t63 -288.5l-103 -578h-143l102 578q23 137 -29.5 197.5t-179.5 60.5q-156 0 -329 -78l-133 -758h-144l228 1298h-398z" />
<glyph unicode="&#x40c;" horiz-adv-x="1183" d="M74 0l252 1434h143l-115 -660l766 660h193l-813 -707l573 -727h-170l-561 709l-125 -709h-143zM672 1575l205 266h167l-237 -266h-135z" />
<glyph unicode="&#x40e;" horiz-adv-x="1167" d="M143 0l23 127q115 -10 195.5 37t148.5 162l43 71l-330 1037h139l281 -883l518 883h148l-654 -1121q-102 -176 -223 -249.5t-289 -63.5zM522 1595l21 119h532l-20 -119h-533z" />
<glyph unicode="&#x40f;" horiz-adv-x="1351" d="M74 0l252 1434h143l-227 -1299h737l227 1299h144l-252 -1434h-441l-49 -274h-143l49 274h-440z" />
<glyph unicode="&#x410;" horiz-adv-x="1290" d="M-70 0l803 1434h148l299 -1434h-148l-69 352h-680l-197 -352h-156zM356 487h580l-152 768z" />
<glyph unicode="&#x411;" horiz-adv-x="1202" d="M74 0l252 1434h839l-22 -136h-699l-75 -438h389q172 0 278 -137q109 -137 76 -313q-31 -176 -176 -293t-330 -117h-532zM242 135h389q121 0 219 86q100 90 123 209q25 127 -47 211t-193 84h-389z" />
<glyph unicode="&#x412;" horiz-adv-x="1269" d="M74 0l252 1434h546q168 0 269 -117q103 -117 78 -279q-31 -197 -220 -299q94 -49 139.5 -142t26.5 -208q-25 -164 -155.5 -276.5t-311.5 -112.5h-624zM242 135h469q115 0 205 78t108 186.5t-43 186.5q-60 78 -166 78h-481zM358 799h433q100 0 184 71q84 76 102 179 q18 104 -42.5 176.5t-166.5 72.5h-424z" />
<glyph unicode="&#x413;" horiz-adv-x="1003" d="M74 0l252 1434h798l-22 -136h-658l-227 -1298h-143z" />
<glyph unicode="&#x414;" horiz-adv-x="1413" d="M-106 -274l71 409h115q172 166 233 512l138 787h899l-228 -1299h154l-72 -409h-143l47 274h-1024l-47 -274h-143zM258 135h721l205 1163h-613l-116 -655q-60 -336 -197 -508z" />
<glyph unicode="&#x415;" horiz-adv-x="1085" d="M74 0l252 1434h829l-22 -136h-689l-88 -507h635l-24 -136h-635l-90 -520h696l-25 -135h-839z" />
<glyph unicode="&#x416;" horiz-adv-x="1740" d="M-49 0l751 752l-479 682h152l469 -662l117 662h143l-117 -660l676 660h178l-725 -711l494 -723h-152l-483 700l-123 -700h-143l122 700l-698 -700h-182z" />
<glyph unicode="&#x417;" horiz-adv-x="1161" d="M45 299l129 66q33 -119 105 -187q74 -68 239 -67q162 0 266.5 78.5t128.5 205.5q20 123 -52.5 196t-219.5 73h-164l23 135h112q143 0 246 78q98 76 121 194q20 111 -53.5 181.5t-212.5 70.5q-240 0 -379 -231l-115 75q174 291 518 291q199 0 305 -119q109 -120 78 -288 q-37 -219 -252 -314q109 -47 158 -142t29 -218q-33 -186 -177.5 -294t-383.5 -108q-184 0 -297 88.5t-152 235.5z" />
<glyph unicode="&#x418;" horiz-adv-x="1392" d="M74 0l252 1434h143l-205 -1155l1004 1155h123l-252 -1434h-144l203 1155l-1001 -1155h-123z" />
<glyph unicode="&#x419;" horiz-adv-x="1392" d="M74 0l252 1434h143l-205 -1155l1004 1155h123l-252 -1434h-144l203 1155l-1001 -1155h-123zM621 1597l20 119h533l-21 -119h-532z" />
<glyph unicode="&#x41a;" horiz-adv-x="1183" d="M74 0l252 1434h143l-115 -660l766 660h193l-813 -707l573 -727h-170l-561 709l-125 -709h-143z" />
<glyph unicode="&#x41b;" horiz-adv-x="1423" d="M-59 -2l22 127q143 -23 240 92q94 111 149 420l140 797h929l-252 -1434h-143l229 1298h-643l-118 -665q-37 -203 -90.5 -335t-127 -198.5t-151.5 -88t-184 -13.5z" />
<glyph unicode="&#x41c;" horiz-adv-x="1638" d="M74 0l252 1434h168l340 -807l622 807h180l-252 -1434h-143l211 1206l-639 -829h-20l-361 852l-215 -1229h-143z" />
<glyph unicode="&#x41d;" horiz-adv-x="1392" d="M74 0l252 1434h143l-111 -629h779l110 629h144l-252 -1434h-144l117 670h-778l-117 -670h-143z" />
<glyph unicode="&#x41e;" horiz-adv-x="1654" d="M121 737q51 305 297 514q248 207 565 207q199 4 357.5 -105.5t230 -289.5t33.5 -377q-55 -309 -299 -510t-568 -201q-309 0 -491 226q-180 225 -125 536zM264 717q-45 -252 96 -428q144 -174 402 -174q264 0 457 168q195 168 241 424q43 256 -100 432 q-141 180 -401.5 180t-454.5 -174q-197 -176 -240 -428z" />
<glyph unicode="&#x41f;" horiz-adv-x="1351" d="M74 0l252 1434h1024l-252 -1434h-144l228 1298h-738l-227 -1298h-143z" />
<glyph unicode="&#x420;" horiz-adv-x="1206" d="M74 0l252 1434h501q203 0 308 -129q106 -129 73 -322q-35 -195 -184 -324q-152 -127 -387 -127h-326l-94 -532h-143zM334 668h319q168 0 279.5 93t136.5 243q23 135 -47 214.5t-209 79.5h-369z" />
<glyph unicode="&#x421;" horiz-adv-x="1525" d="M121 737q55 309 297 514q244 207 547 207q207 0 359.5 -94t227.5 -262l-127 -68q-129 285 -462 285q-262 0 -461 -174t-242 -428q-43 -256 96 -430q137 -172 398 -172q166 0 310 77.5t236 215.5l121 -76q-115 -164 -297 -260.5t-387 -96.5q-322 0 -497 226 q-174 223 -119 536z" />
<glyph unicode="&#x422;" horiz-adv-x="1105" d="M180 1298l23 136h1024l-23 -136h-442l-227 -1298h-144l227 1298h-438z" />
<glyph unicode="&#x423;" horiz-adv-x="1167" d="M143 0l23 127q115 -10 195.5 37t148.5 162l43 71l-330 1037h139l281 -883l518 883h148l-654 -1121q-102 -176 -223 -249.5t-289 -63.5z" />
<glyph unicode="&#x424;" horiz-adv-x="1650" d="M100 727q43 250 256 391q215 141 531 154l28 162h144l-29 -162q301 -18 469 -168q170 -152 125 -397q-47 -252 -258 -394q-213 -139 -530 -151l-29 -162h-143l28 162q-299 18 -468 168.5t-124 396.5zM244 716.5q-35 -192.5 91 -302t380 -121.5l149 848 q-258 -12 -421.5 -122t-198.5 -302.5zM858 293q258 12 423 121.5t200 302t-91 302.5t-382 122z" />
<glyph unicode="&#x425;" horiz-adv-x="1187" d="M-49 0l606 750l-324 684h148l268 -570l461 570h168l-567 -701l346 -733h-148l-291 618l-499 -618h-168z" />
<glyph unicode="&#x426;" horiz-adv-x="1413" d="M74 0l252 1434h143l-227 -1299h737l227 1299h144l-228 -1299h154l-72 -409h-143l47 274h-1034z" />
<glyph unicode="&#x427;" horiz-adv-x="1280" d="M205 922l90 512h143l-90 -512q-25 -133 49 -204t252 -71q175 0 361 72l125 715h143l-252 -1434h-143l102 578q-178 -66 -356 -66q-233 0 -345 112.5t-79 297.5z" />
<glyph unicode="&#x428;" horiz-adv-x="1945" d="M74 0l252 1434h143l-227 -1299h594l227 1299h143l-227 -1299h594l227 1299h144l-252 -1434h-1618z" />
<glyph unicode="&#x429;" horiz-adv-x="2007" d="M74 0l252 1434h143l-227 -1299h594l227 1299h143l-227 -1299h594l227 1299h144l-228 -1299h152l-72 -409h-143l49 274h-1628z" />
<glyph unicode="&#x42a;" horiz-adv-x="1435" d="M139 1298l23 136h532l-94 -533h358q184 0 299 -141.5t82 -329.5q-33 -193 -180 -311q-143 -119 -348 -119h-512l227 1298h-387zM467 135h367q135 0 235 88q102 90 127 227.5t-47 226.5t-213 89h-358z" />
<glyph unicode="&#x42b;" horiz-adv-x="1587" d="M74 0l252 1434h143l-94 -533h358q184 0 299 -141.5t82 -329.5q-33 -193 -180 -311q-143 -119 -348 -119h-512zM242 135h366q135 0 236 88q102 90 126.5 227.5t-47 226.5t-212.5 89h-359zM1190 0l252 1434h143l-252 -1434h-143z" />
<glyph unicode="&#x42c;" horiz-adv-x="1210" d="M74 0l252 1434h143l-94 -533h358q184 0 299 -141.5t82 -329.5q-33 -193 -180 -311q-143 -119 -348 -119h-512zM242 135h366q135 0 236 88q102 90 126.5 227.5t-47 226.5t-212.5 89h-359z" />
<glyph unicode="&#x42d;" horiz-adv-x="1513" d="M43 336l131 70q49 -137 168 -214t289 -77q246 0 428 149.5t248 384.5h-787l25 135h784q20 236 -111 385.5t-372 149.5q-172 0 -317.5 -80t-233.5 -219l-121 76q113 164 295 262q182 100 393 100q209 2 362.5 -105.5t216 -281.5t23.5 -371q-53 -305 -284 -516 q-229 -209 -559 -209q-213 0 -364 95.5t-214 265.5z" />
<glyph unicode="&#x42e;" horiz-adv-x="2134" d="M74 0l252 1434h143l-111 -629h267q74 283 305 469q233 184 532 184q199 4 357.5 -105.5t230.5 -289.5t33 -377q-55 -309 -299 -510t-567 -201q-291 0 -467.5 203t-147.5 492h-268l-117 -670h-143zM743 717q-45 -252 97 -428q143 -174 401 -174q264 0 457 168 q194 168 241 424q43 256 -100 432q-141 180 -401 180t-455 -174q-197 -176 -240 -428z" />
<glyph unicode="&#x42f;" horiz-adv-x="1269" d="M-29 0l504 584q-150 33 -231 155q-82 125 -56 281q35 180 177 295q142 119 337 119h566l-252 -1434h-144l101 573h-334l-494 -573h-174zM332 1010q-20 -125 49 -213q74 -88 207 -88h409l103 589h-420q-123 0 -225.5 -84t-122.5 -204z" />
<glyph unicode="&#x430;" horiz-adv-x="1306" d="M86 532q43 246 211 381q170 135 375 136q135 0 244.5 -63.5t162.5 -178.5l39 217h135l-180 -1024h-135l31 174q-166 -199 -445 -199q-213 0 -346 166t-92 391zM221 522q-29 -172 68 -295q96 -121 268 -121q170 0 301 106.5t166 274.5l4 25q29 190 -78 297 q-104 109 -268 109q-160 0 -295 -105q-133 -104 -166 -291z" />
<glyph unicode="&#x431;" horiz-adv-x="1163" d="M80 502q47 268 145 405q102 141 359 256l127 54l120 47q188 84 216 200l102 -61q-14 -49 -49 -92q-59 -80 -152 -129q-45 -23 -92 -45l-111 -43l-104 -41q-150 -61 -226.5 -122t-123.5 -159q160 160 405 160q190 0 310 -141q121 -141 84 -347q-37 -207 -197 -340 q-160 -129 -381 -129q-209 0 -342 148q-131 147 -90 379zM215 475q-27 -154 64 -260q89 -104 247 -104q160 0 281 96q121 98 147 248q27 147 -57 247q-82 98 -238 99q-154 0 -284 -88q-131 -86 -160 -238z" />
<glyph unicode="&#x432;" horiz-adv-x="1021" d="M53 0l180 1024h457q135 0 209 -84q76 -82 53 -203q-29 -152 -157 -215q74 -33 107.5 -98.5t17.5 -149.5q-20 -127 -115.5 -200.5t-253.5 -73.5h-498zM211 131h362q86 0 143.5 44t71.5 120q12 74 -28.5 115t-130.5 41h-361zM291 582h309q90 0 147.5 41.5t69.5 117.5 q14 72 -25.5 112t-125.5 40h-320z" />
<glyph unicode="&#x433;" horiz-adv-x="808" d="M53 0l180 1024h656l-23 -131h-520l-158 -893h-135z" />
<glyph unicode="&#x434;" horiz-adv-x="1208" d="M-98 -274l71 405h125q129 135 174 387l88 506h734l-158 -893h143l-71 -405h-136l50 274h-836l-49 -274h-135zM268 131h533l135 762h-463l-65 -375q-42 -235 -140 -387z" />
<glyph unicode="&#x435;" horiz-adv-x="1196" d="M86 532q41 227 211 371q176 146 397 146q231 0 353 -160q123 -162 77 -381q-4 -29 -16 -64h-895q-6 -156 87 -247t255 -91q236 0 363 177l106 -70q-72 -111 -206 -174.5t-281 -63.5q-238 0 -365 160t-86 397zM233 575h762q12 164 -71.5 253.5t-237.5 89.5 q-160 0 -283 -93.5t-170 -249.5z" />
<glyph unicode="&#x436;" horiz-adv-x="1376" d="M-49 0l551 545l-355 479h154l328 -455l80 455h135l-82 -463l479 463h164l-520 -504l360 -520h-147l-346 500l-88 -500h-136l88 498l-505 -498h-160z" />
<glyph unicode="&#x437;" horiz-adv-x="913" d="M10 221l119 64q35 -178 266 -179q117 0 192 50.5t87 132.5q14 72 -32 117t-136 45h-150l25 131h108q88 0 145.5 44t72.5 122q12 76 -41.5 123t-157.5 47q-193 0 -279 -158l-106 69q141 219 399 220q168 0 254 -95q86 -96 66 -219q-29 -160 -166 -217q74 -39 109.5 -107.5 t21.5 -150.5q-25 -129 -136.5 -207t-291.5 -78q-160 0 -252 65.5t-117 180.5z" />
<glyph unicode="&#x438;" horiz-adv-x="1146" d="M53 0l180 1024h136l-138 -778l748 778h115l-181 -1024h-135l135 778l-745 -778h-115z" />
<glyph unicode="&#x439;" horiz-adv-x="1146" d="M53 0l180 1024h136l-138 -778l748 778h115l-181 -1024h-135l135 778l-745 -778h-115zM426 1188l20 119h533l-21 -119h-532z" />
<glyph unicode="&#x43a;" horiz-adv-x="1011" d="M53 0l180 1024h136l-78 -446l561 446h188l-618 -492l459 -532h-164l-438 510l-91 -510h-135z" />
<glyph unicode="&#x43b;" horiz-adv-x="1126" d="M-70 0l23 127q119 -12 186.5 57.5t98.5 251.5l102 588h733l-180 -1024h-135l157 893h-462l-80 -457q-47 -268 -158 -358q-109 -90 -285 -78z" />
<glyph unicode="&#x43c;" horiz-adv-x="1290" d="M53 0l180 1024h148l246 -561l446 561h164l-180 -1024h-135l143 813l-459 -577h-16l-258 583l-144 -819h-135z" />
<glyph unicode="&#x43d;" horiz-adv-x="1146" d="M53 0l180 1024h136l-78 -446h590l77 446h136l-181 -1024h-135l78 446h-590l-78 -446h-135z" />
<glyph unicode="&#x43e;" horiz-adv-x="1243" d="M84 522q43 250 229 387q188 139 406 140q211 0 346 -152q137 -150 94 -393q-29 -172 -129 -295q-190 -234 -491 -234q-217 0 -359 150q-139 152 -96 397zM219 512q-35 -193 67.5 -301.5t264.5 -104.5q164 0 303 109q137 106 172 303q33 184 -70 293q-100 106 -262 107 q-168 -4 -303 -109q-139 -109 -172 -297z" />
<glyph unicode="&#x43f;" horiz-adv-x="1146" d="M53 0l180 1024h861l-181 -1024h-135l158 893h-590l-158 -893h-135z" />
<glyph unicode="&#x440;" horiz-adv-x="1306" d="M-18 -410l251 1434h136l-31 -174q165 199 444 199q213 0 346.5 -166t92.5 -391q-43 -246 -213 -381q-168 -135 -373 -136q-135 0 -244.5 63.5t-163.5 178.5l-110 -627h-135zM279 506q-27 -184 77 -293q104 -106 269 -107q162 0 293 105q134 105 167 291q29 172 -67 293 q-96 123 -268 123q-168 0 -301 -109t-166 -270z" />
<glyph unicode="&#x441;" horiz-adv-x="1132" d="M86 535q41 223 215 368q176 145 406 146q150 0 262 -72t155 -195l-116 -59q-33 92 -115 143.5t-199 51.5q-172 0 -309 -115q-133 -115 -164 -283q-29 -176 63.5 -295t266.5 -119q115 0 214 55.5t161 149.5l108 -71q-78 -125 -211 -195t-295 -70q-221 0 -354 164 q-129 164 -88 396z" />
<glyph unicode="&#x442;" horiz-adv-x="901" d="M88 893l23 131h860l-23 -131h-362l-158 -893h-135l158 893h-363z" />
<glyph unicode="&#x443;" horiz-adv-x="1044" d="M10 -410l23 127q170 -18 309 213l43 72l-274 1022h137l227 -870l488 870h151l-635 -1118q-92 -162 -213 -244t-256 -72z" />
<glyph unicode="&#x444;" horiz-adv-x="1376" d="M84 524q37 213 209 359q170 141 422 164l67 387h136l-68 -387q233 -23 356 -178.5t86 -368.5t-209 -359q-166 -141 -421 -164l-68 -387h-135l67 387q-233 23 -356 178.5t-86 368.5zM219 512q-29 -162 61.5 -272.5t270.5 -128.5l139 802q-190 -18 -315 -131 q-129 -113 -156 -270zM686 111q190 18 315 129q129 112 156 272q29 162 -60 272.5t-272 128.5z" />
<glyph unicode="&#x445;" horiz-adv-x="1044" d="M-49 0l493 537l-286 487h151l228 -387l356 387h174l-461 -502l307 -522h-151l-250 422l-387 -422h-174z" />
<glyph unicode="&#x446;" horiz-adv-x="1208" d="M53 0l180 1024h136l-158 -893h569l158 893h135l-158 -893h164l-71 -405h-136l50 274h-869z" />
<glyph unicode="&#x447;" horiz-adv-x="1085" d="M135 696l58 328h135l-58 -328q-43 -242 219 -241q150 0 318 61l90 508h135l-180 -1024h-135l67 383q-150 -55 -301 -55q-197 0 -288 99t-60 269z" />
<glyph unicode="&#x448;" horiz-adv-x="1658" d="M53 0l180 1024h136l-158 -893h483l158 893h135l-158 -893h484l157 893h136l-181 -1024h-1372z" />
<glyph unicode="&#x449;" horiz-adv-x="1720" d="M53 0l180 1024h136l-158 -893h483l158 893h135l-158 -893h484l157 893h136l-158 -893h143l-71 -405h-136l50 274h-1381z" />
<glyph unicode="&#x44a;" horiz-adv-x="1107" d="M68 893l22 131h422l-68 -389h281q137 0 223 -96t62 -234q-25 -141 -138 -223q-109 -82 -260 -82h-415l157 893h-286zM354 131h281q88 0 156.5 52.5t82.5 133.5q14 84 -36 135.5t-138 51.5h-280z" />
<glyph unicode="&#x44b;" horiz-adv-x="1323" d="M53 0l180 1024h136l-68 -389h281q137 0 223 -96t61 -234q-25 -141 -137 -223q-109 -82 -260 -82h-416zM211 131h281q88 0 156.5 52.5t82.5 133.5q14 84 -36 135.5t-138 51.5h-281zM954 0l181 1024h135l-180 -1024h-136z" />
<glyph unicode="&#x44c;" horiz-adv-x="964" d="M53 0l180 1024h136l-68 -389h281q137 0 223 -96t61 -234q-25 -141 -137 -223q-109 -82 -260 -82h-416zM211 131h281q88 0 156.5 52.5t82.5 133.5q14 84 -36 135.5t-138 51.5h-281z" />
<glyph unicode="&#x44d;" horiz-adv-x="1132" d="M8 242l117 59q66 -195 313 -195q160 0 285 95q127 94 174 245h-510l25 132h506q4 152 -86.5 246t-249.5 94q-115 0 -214.5 -55.5t-160.5 -149.5l-109 71q78 125 211 195t295 70q229 0 356 -164t87 -396q-41 -227 -213 -370q-174 -143 -408 -144q-150 0 -262.5 72 t-155.5 195z" />
<glyph unicode="&#x44e;" horiz-adv-x="1638" d="M53 0l180 1024h136l-78 -446h211q57 223 233 346q174 125 379 125q211 0 346 -152q137 -150 94 -393q-27 -172 -129 -295q-190 -233 -491 -234q-195 0 -332 127q-133 127 -121 344h-215l-78 -446h-135zM614 512q-33 -193 67.5 -301.5t264.5 -104.5q164 0 303 109 q137 106 172 303q33 184 -69 293q-100 106 -262 107q-168 -4 -304 -109q-139 -109 -172 -297z" />
<glyph unicode="&#x44f;" horiz-adv-x="1024" d="M-8 0l391 399q-115 25 -180.5 114t-44.5 206q25 139 137 221q115 84 260 84h416l-180 -1024h-136l70 393h-186l-381 -393h-166zM293 707q-14 -84 36 -135.5t138 -51.5h281l65 373h-281q-88 0 -156.5 -52.5t-82.5 -133.5z" />
<glyph unicode="&#x451;" horiz-adv-x="1196" d="M86 532q41 227 211 371q176 146 397 146q231 0 353 -160q123 -162 77 -381q-4 -29 -16 -64h-895q-6 -156 87 -247t255 -91q236 0 363 177l106 -70q-72 -111 -206 -174.5t-281 -63.5q-238 0 -365 160t-86 397zM233 575h762q12 164 -71.5 253.5t-237.5 89.5 q-160 0 -283 -93.5t-170 -249.5zM463 1270q6 39 37.5 65.5t70.5 26.5t60.5 -26.5t15.5 -65.5q-8 -68 -80 -86q-66 -16 -96 26q-16 25 -8 60zM852 1270q6 39 38 65.5t70.5 26.5t60 -26.5t15.5 -65.5q-8 -68 -80 -86q-66 -16 -96 26q-16 25 -8 60z" />
<glyph unicode="&#x452;" horiz-adv-x="1163" d="M74 0l207 1180h-142l19 110h143l25 144h135l-25 -144h295l-18 -110h-297l-51 -299q141 168 362 168q186 0 278.5 -115t59.5 -305l-125 -711q-63 -377 -430 -352l22 131q227 -25 273 221l125 711q47 289 -228 289q-152 0 -256 -93.5t-141 -273.5l-96 -551h-135z" />
<glyph unicode="&#x453;" horiz-adv-x="808" d="M53 0l180 1024h656l-23 -131h-520l-158 -893h-135zM436 1167l205 267h168l-238 -267h-135z" />
<glyph unicode="&#x454;" horiz-adv-x="1132" d="M86 535q41 223 215 368q176 145 406 146q150 0 262 -72t155 -195l-116 -59q-33 92 -115 143.5t-199 51.5q-158 0 -284 -97q-129 -98 -174 -243h509l-24 -132h-506q-2 -147 90 -243.5t246 -96.5q115 0 214 55.5t161 149.5l108 -71q-78 -125 -211 -195t-295 -70 q-221 0 -354 164q-129 164 -88 396z" />
<glyph unicode="&#x455;" horiz-adv-x="972" d="M51 219l121 64q16 -80 86 -128.5t172 -48.5q104 0 174 43.5t84 118.5q10 57 -26.5 98.5t-100 60.5t-136.5 47t-134.5 57.5t-94 93t-16.5 151.5q23 117 125 193q104 80 250 80q256 0 346 -209l-119 -64q-45 141 -231 142q-88 0 -155.5 -42t-80.5 -118q-20 -115 179 -178 q66 -18 102.5 -30.5t92.5 -41.5t84 -60.5t44.5 -83t5.5 -114.5q-23 -129 -130 -202t-273 -73q-145 0 -241.5 65.5t-127.5 178.5z" />
<glyph unicode="&#x456;" horiz-adv-x="421" d="M53 0l180 1024h136l-181 -1024h-135zM258 1339q6 41 39 70t76 29q41 0 65.5 -29t16.5 -70q-8 -43 -41 -70.5t-76 -27.5q-41 0 -63.5 28.5t-16.5 69.5z" />
<glyph unicode="&#x457;" horiz-adv-x="421" d="M53 0l180 1024h136l-181 -1024h-135zM57 1270q6 39 38 65.5t71 26.5t60.5 -26.5t15.5 -65.5q-8 -68 -80 -86q-66 -16 -96 26q-17 25 -9 60zM446 1270q6 39 38 65.5t71 26.5t60.5 -26.5t15.5 -65.5q-8 -68 -80 -86q-66 -16 -96 26q-17 25 -9 60z" />
<glyph unicode="&#x458;" horiz-adv-x="471" d="M-207 -434l23 131q117 -12 183 40t89 181l195 1106h135l-195 -1106q-35 -201 -141.5 -285t-288.5 -67zM307 1339q6 41 39 70t76 29q41 0 65.5 -29t16.5 -70q-8 -43 -41 -70.5t-76 -27.5q-41 0 -63.5 28.5t-16.5 69.5z" />
<glyph unicode="&#x459;" horiz-adv-x="1619" d="M-70 0l23 127q119 -14 184.5 55.5t100.5 253.5l102 588h713l-76 -430h270q129 0 213 -86q82 -84 58 -223q-25 -133 -127.5 -209t-247.5 -76h-406l158 893h-442l-80 -457q-47 -262 -158 -356q-111 -92 -285 -80zM895 131h270q84 0 143.5 43t74 123t-29.5 123t-128 43h-271 z" />
<glyph unicode="&#x45a;" horiz-adv-x="1619" d="M53 0l180 1024h136l-76 -430h549l76 430h135l-76 -430h270q129 0 213 -86q82 -84 58 -223q-25 -133 -127.5 -209t-247.5 -76h-406l82 463h-549l-82 -463h-135zM895 131h270q84 0 143.5 43t74 123t-29.5 123t-128 43h-271z" />
<glyph unicode="&#x45b;" horiz-adv-x="1163" d="M74 0l207 1180h-142l19 110h143l25 144h135l-25 -144h295l-18 -110h-297l-51 -299q141 168 362 168q186 0 278.5 -115t59.5 -305l-111 -629h-135l111 629q47 289 -228 289q-152 0 -256 -93.5t-141 -273.5l-96 -551h-135z" />
<glyph unicode="&#x45c;" horiz-adv-x="1011" d="M53 0l180 1024h136l-78 -446l561 446h188l-618 -492l459 -532h-164l-438 510l-91 -510h-135zM518 1167l205 267h168l-238 -267h-135z" />
<glyph unicode="&#x45e;" horiz-adv-x="1044" d="M10 -410l23 127q170 -18 309 213l43 72l-274 1022h137l227 -870l488 870h151l-635 -1118q-92 -162 -213 -244t-256 -72zM340 1188l20 119h533l-21 -119h-532z" />
<glyph unicode="&#x45f;" horiz-adv-x="1146" d="M53 0l180 1024h136l-158 -893h590l157 893h136l-181 -1024h-362l-49 -274h-135l49 274h-363z" />
<glyph unicode="&#x490;" horiz-adv-x="1003" d="M74 0l252 1434h657l43 245h143l-67 -381h-658l-227 -1298h-143z" />
<glyph unicode="&#x491;" horiz-adv-x="808" d="M53 0l180 1024h521l37 213h135l-60 -344h-520l-158 -893h-135z" />
<glyph unicode="&#x2000;" horiz-adv-x="920" />
<glyph unicode="&#x2001;" horiz-adv-x="1841" />
<glyph unicode="&#x2002;" horiz-adv-x="920" />
<glyph unicode="&#x2003;" horiz-adv-x="1841" />
<glyph unicode="&#x2004;" horiz-adv-x="613" />
<glyph unicode="&#x2005;" horiz-adv-x="460" />
<glyph unicode="&#x2006;" horiz-adv-x="306" />
<glyph unicode="&#x2007;" horiz-adv-x="306" />
<glyph unicode="&#x2008;" horiz-adv-x="230" />
<glyph unicode="&#x2009;" horiz-adv-x="368" />
<glyph unicode="&#x200a;" horiz-adv-x="102" />
<glyph unicode="&#x2010;" d="M174 567l23 131h737l-23 -131h-737z" />
<glyph unicode="&#x2011;" d="M174 567l23 131h737l-23 -131h-737z" />
<glyph unicode="&#x2012;" d="M174 567l23 131h737l-23 -131h-737z" />
<glyph unicode="&#x2013;" horiz-adv-x="1329" d="M174 567l23 131h1001l-22 -131h-1002z" />
<glyph unicode="&#x2014;" horiz-adv-x="1533" d="M174 567l23 131h1206l-23 -131h-1206z" />
<glyph unicode="&#x2018;" horiz-adv-x="493" d="M205 973l205 461h122l-163 -461h-164z" />
<glyph unicode="&#x2019;" horiz-adv-x="493" d="M205 973l164 461h163l-204 -461h-123z" />
<glyph unicode="&#x201a;" horiz-adv-x="491" d="M-18 -287l163 461h164l-205 -461h-122z" />
<glyph unicode="&#x201c;" horiz-adv-x="780" d="M205 973l205 461h122l-163 -461h-164zM492 973l204 461h123l-164 -461h-163z" />
<glyph unicode="&#x201d;" horiz-adv-x="780" d="M205 973l164 461h163l-204 -461h-123zM492 973l163 461h164l-205 -461h-122z" />
<glyph unicode="&#x201e;" horiz-adv-x="778" d="M-18 -287l163 461h164l-205 -461h-122zM268 -287l164 461h164l-205 -461h-123z" />
<glyph unicode="&#x2022;" horiz-adv-x="614" d="M141 727q16 84 84 139.5t156 55.5q84 0 133 -62.5t32.5 -148.5t-83 -142.5t-154.5 -56.5q-86 0 -135 64.5t-33 150.5z" />
<glyph unicode="&#x2026;" horiz-adv-x="1249" d="M49 94q8 47 44 79t87 32q47 0 75 -34t19 -81q-24 -110 -133 -110q-47 0 -73.5 33.5t-18.5 80.5zM438 94q8 47 44 79t87 32q47 0 75 -34t20 -81q-25 -110 -134 -110q-47 0 -73.5 33.5t-18.5 80.5zM827.5 94q8.5 47 44 79t86.5 32q47 0 75 -34t20 -81q-24 -110 -133 -110 q-47 0 -74 33.5t-18.5 80.5z" />
<glyph unicode="&#x202f;" horiz-adv-x="368" />
<glyph unicode="&#x2039;" horiz-adv-x="690" d="M164 633l291 368h178l-297 -378l158 -359h-168z" />
<glyph unicode="&#x203a;" horiz-adv-x="692" d="M100 264l297 379l-157 358h168l161 -368l-290 -369h-179z" />
<glyph unicode="&#x205f;" horiz-adv-x="460" />
<glyph unicode="&#x20ac;" horiz-adv-x="1218" d="M47 545l21 119h143q6 49 10 65l10 57h-141l21 119h153q82 262 246 407.5t385 145.5q141 0 241.5 -71.5t145.5 -202.5l-131 -68q-58 203 -281 203q-156 0 -274.5 -107.5t-183.5 -306.5h518l-21 -119h-530l-14 -69q-6 -33 -9 -53h531l-21 -119h-520q-8 -207 73 -318.5 t238 -111.5q223 0 351 209l114 -72q-176 -276 -489 -277q-215 0 -328 154q-113 156 -104 416h-154z" />
<glyph unicode="&#x2122;" horiz-adv-x="954" d="M231 1358l15 76h317l-14 -76h-115l-59 -334h-82l59 334h-121zM541 1024l71 410h82l84 -209l164 209h92l-71 -410h-82l47 274l-164 -204h-8l-86 200l-47 -270h-82z" />
<glyph unicode="&#x25fc;" horiz-adv-x="1024" d="M0 0v1024h1024v-1024h-1024z" />
</font>
</defs>
</svg>
