<?xml version="1.0" encoding="utf-8"?>
<!-- Generator: Adobe Illustrator 17.1.0, SVG Export Plug-In . SVG Version: 6.00 Build 0)  -->
<!DOCTYPE svg PUBLIC "-//W3C//DTD SVG 1.1//EN" "http://www.w3.org/Graphics/SVG/1.1/DTD/svg11.dtd">
<svg version="1.1" id="Layer_1" xmlns="http://www.w3.org/2000/svg" xmlns:xlink="http://www.w3.org/1999/xlink" x="0px" y="0px"
	 viewBox="0 0 512 512" enable-background="new 0 0 512 512" xml:space="preserve">
<g>
	<defs>
		<rect id="SVGID_1_" width="512" height="512"/>
	</defs>
	<clipPath id="SVGID_2_">
		<use xlink:href="#SVGID_1_"  overflow="visible"/>
	</clipPath>
	<path clip-path="url(#SVGID_2_)" d="M256,140.7c46.2-27.8,78.6-57.7,78-89.7c0-28.1-22.9-51-51-51c-9.7,0-19,2.8-27.1,7.8
		c-8-5-17.4-7.8-27.1-7.8c-28.1,0-51,22.9-51,51C177.7,81,205.1,110.2,256,140.7 M228.9,30c12.2-0.4,20.1,12.5,27.1,20.1
		c6.3-7,16.1-21.2,27.1-20.1c11.6,0,21,9.4,21,21c0,10.4-8.6,28.1-48,54.2C216.5,79,208,61.4,208,51C208,39.4,217.4,30,228.9,30"/>
	<path clip-path="url(#SVGID_2_)" d="M431.2,297.7c21.7-16.5,35.6-42.6,35.6-71.8c0-49.8-40.5-90.3-90.3-90.3s-90.3,40.5-90.3,90.3
		c0,29.3,14,55.3,35.6,71.8c-5.3,2.3-10.4,5-15.3,8c-13.4-12.1-31.1-19.5-50.5-19.5c-10.2,0-19.9,2-28.8,5.7
		c-10.9-10-23.4-18.3-37.1-24.3c21.7-16.5,35.7-42.6,35.7-71.8c0-49.8-40.5-90.3-90.3-90.3S45.2,146,45.2,195.8
		c0,29.3,14,55.3,35.7,71.8C33.3,288.6,0,336.3,0,391.6V512h512v-90.3C512,366.4,478.7,318.8,431.2,297.7 M316.2,225.9
		c0-33.3,27.1-60.3,60.3-60.3s60.3,27.1,60.3,60.3s-27.1,60.3-60.3,60.3S316.2,259.1,316.2,225.9 M301.3,361.4
		c0,25-20.3,45.3-45.3,45.3s-45.3-20.3-45.3-45.3c0-25,20.3-45.2,45.3-45.2S301.3,336.5,301.3,361.4 M75.2,195.8
		c0-33.3,27.1-60.3,60.3-60.3s60.3,27.1,60.3,60.3s-27.1,60.3-60.3,60.3S75.2,229,75.2,195.8 M166.9,482H30v-90.4
		c0-58.2,47.3-105.5,105.5-105.5c25,0,48.1,8.8,66.2,23.4c-12.9,13.5-20.9,31.8-20.9,52c0,23.6,11,44.8,28.1,58.6
		C187,433.4,171.3,455.8,166.9,482 M197.6,482c6.7-26,30.3-45.3,58.4-45.3s51.7,19.3,58.4,45.3H197.6z M482,482H345.1
		c-4.4-26.2-20.1-48.6-41.9-62c17.1-13.8,28.1-34.9,28.1-58.6c0-11.2-2.5-21.9-6.9-31.4c15.4-8.8,33.2-13.8,52.1-13.8
		c58.2,0,105.5,47.3,105.5,105.5V482z"/>
</g>
</svg>
