<?xml version="1.0" encoding="utf-8"?>
<!-- Generator: Adobe Illustrator 17.1.0, SVG Export Plug-In . SVG Version: 6.00 Build 0)  -->
<!DOCTYPE svg PUBLIC "-//W3C//DTD SVG 1.1//EN" "http://www.w3.org/Graphics/SVG/1.1/DTD/svg11.dtd">
<svg version="1.1" id="Layer_1" xmlns="http://www.w3.org/2000/svg" xmlns:xlink="http://www.w3.org/1999/xlink" x="0px" y="0px"
	 viewBox="0 0 489.5 512" enable-background="new 0 0 489.5 512" xml:space="preserve">
<g>
	<defs>
		<rect id="SVGID_1_" width="489.5" height="512"/>
	</defs>
	<clipPath id="SVGID_2_">
		<use xlink:href="#SVGID_1_"  overflow="visible"/>
	</clipPath>
	<path clip-path="url(#SVGID_2_)" d="M489.5,256c0-58.1-43.4-106.2-99.5-113.5V15c0-8.3-6.7-15-15-15H106c-4,0-7.8,1.6-10.6,4.4
		l-91,91C1.6,98.2,0,102.1,0,106v391c0,8.3,6.7,15,15,15h360c8.3,0,15-6.7,15-15V369.5C446,362.2,489.5,314.1,489.5,256 M91,51.2V91
		H51.2L91,51.2z M30,482V121h76c8.3,0,15-6.7,15-15V30H360v112.5c-56.1,7.4-99.5,55.5-99.5,113.5s43.4,106.2,99.5,113.5V482H30z
		 M375,340.5c-46.6,0-84.5-37.9-84.5-84.5c0-46.6,37.9-84.5,84.5-84.5h0h0c46.6,0,84.5,37.9,84.5,84.5
		C459.5,302.6,421.6,340.5,375,340.5"/>
	<path clip-path="url(#SVGID_2_)" d="M399.8,223.2l-33.7,33.7L350.1,241c-5.9-5.9-15.4-5.9-21.2,0c-5.9,5.9-5.9,15.4,0,21.2
		l26.5,26.5c2.9,2.9,6.8,4.4,10.6,4.4c3.8,0,7.7-1.5,10.6-4.4l44.3-44.3c5.9-5.9,5.9-15.4,0-21.2
		C415.1,217.4,405.6,217.4,399.8,223.2"/>
	<path clip-path="url(#SVGID_2_)" d="M75,181h174.2c8.3,0,15-6.7,15-15c0-8.3-6.7-15-15-15H75c-8.3,0-15,6.7-15,15
		C60,174.3,66.7,181,75,181"/>
	<path clip-path="url(#SVGID_2_)" d="M219.2,211H75c-8.3,0-15,6.7-15,15c0,8.3,6.7,15,15,15h144.2c8.3,0,15-6.7,15-15
		C234.2,217.7,227.5,211,219.2,211"/>
	<path clip-path="url(#SVGID_2_)" d="M315,422h-64.2c-8.3,0-15,6.7-15,15s6.7,15,15,15H315c8.3,0,15-6.7,15-15S323.2,422,315,422"/>
	<path clip-path="url(#SVGID_2_)" d="M70.6,390.7c2.7,1.6,5.5,2.8,8.4,3.6v34.1H65.5v21.2h139.2v-21.2h-13.5v-34.1
		c2.9-0.9,5.7-2.1,8.4-3.6c12.1-7,19.4-19.6,19.4-33.6V351l-27.8-16v-32.4H170v20.1l-34.9-20.1L51.2,351v6.1
		C51.2,371.2,58.5,383.7,70.6,390.7 M100.2,428.4v-33.9c3.1-0.9,6.2-2.2,9.1-3.8l25.8-14.9l25.8,14.9c2.9,1.7,6,3,9.1,3.8v33.9
		H100.2z M135.1,327.1l61.7,35.7c-1.3,4-4.1,7.4-7.9,9.6c-5.5,3.2-12,3.2-17.5,0l-36.4-21l-36.4,21c-5.5,3.2-12,3.2-17.5,0
		c-3.8-2.2-6.5-5.6-7.9-9.6L135.1,327.1z"/>
</g>
</svg>
