<?xml version="1.0" encoding="utf-8"?>
<!-- Generator: Adobe Illustrator 17.1.0, SVG Export Plug-In . SVG Version: 6.00 Build 0)  -->
<!DOCTYPE svg PUBLIC "-//W3C//DTD SVG 1.1//EN" "http://www.w3.org/Graphics/SVG/1.1/DTD/svg11.dtd">
<svg version="1.1" id="Layer_1" xmlns="http://www.w3.org/2000/svg" xmlns:xlink="http://www.w3.org/1999/xlink" x="0px" y="0px"
	 viewBox="0 0 348.2 512" enable-background="new 0 0 348.2 512" xml:space="preserve">
<g>
	<defs>
		<rect id="SVGID_1_" width="348.2" height="512"/>
	</defs>
	<clipPath id="SVGID_2_">
		<use xlink:href="#SVGID_1_"  overflow="visible"/>
	</clipPath>
	<path clip-path="url(#SVGID_2_)" d="M348.2,176.9c0-5.2-2.7-10-7.1-12.7c-4.4-2.7-9.9-3-14.6-0.7l-152.2,75.2L21.6,163.5
		c-4.6-2.3-10.2-2-14.6,0.7c-4.4,2.7-7.1,7.6-7.1,12.7v80.5v0.1v0v80.5v0.1v0v80.5c0,5.7,3.2,10.9,8.4,13.5l159.4,78.5
		c4.2,2.1,9.1,2.1,13.3,0L339.9,432c5.1-2.5,8.4-7.7,8.4-13.4v-161v0v-0.1L348.2,176.9L348.2,176.9z M30,281.6l137.8,67.8
		c4.2,2.1,9.1,2.1,13.3,0l137.1-67.8v47l-143.8,71.1L30,328.7L30,281.6L30,281.6z M167.8,268.9c4.2,2.1,9.1,2.1,13.3,0l137.1-67.8
		v47.1l-143.8,71.1L30,248.1V201L167.8,268.9z M318.2,409.2l-143.8,71.1L30,409.2v-47l137.8,67.8c4.2,2.1,9.1,2.1,13.3,0l137.1-67.8
		V409.2z"/>
	<path clip-path="url(#SVGID_2_)" d="M86.6,81.7l32.9,32l-7.8,45.2c-1,5.6,1.3,11.3,6,14.7c4.6,3.4,10.7,3.8,15.8,1.1l40.6-21.4
		l40.6,21.4c5,2.7,11.2,2.2,15.8-1.1c4.6-3.4,6.9-9,6-14.7l-7.8-45.2l32.9-32c4.1-4,5.6-9.9,3.8-15.4c-1.8-5.4-6.5-9.4-12.1-10.2
		l-45.4-6.6L187.6,8.3c-5.4-11.1-21.5-11.1-26.9,0l-20.3,41.2l-45.4,6.6c-5.7,0.8-10.3,4.8-12.1,10.2S82.5,77.7,86.6,81.7 M152.5,78
		c4.9-0.7,9.1-3.8,11.3-8.2l10.4-21l10.4,21c2.2,4.4,6.4,7.5,11.3,8.2l23.1,3.4l-16.7,16.3c-3.5,3.4-5.1,8.4-4.3,13.3l4,23.1
		l-20.7-10.9c-4.4-2.3-9.6-2.3-14,0L146.4,134l4-23.1c0.8-4.9-0.8-9.8-4.3-13.3l-16.8-16.3L152.5,78z"/>
</g>
</svg>
