<?xml version="1.0" encoding="utf-8"?>
<!-- Generator: Adobe Illustrator 17.1.0, SVG Export Plug-In . SVG Version: 6.00 Build 0)  -->
<!DOCTYPE svg PUBLIC "-//W3C//DTD SVG 1.1//EN" "http://www.w3.org/Graphics/SVG/1.1/DTD/svg11.dtd">
<svg version="1.1" id="Layer_1" xmlns="http://www.w3.org/2000/svg" xmlns:xlink="http://www.w3.org/1999/xlink" x="0px" y="0px"
	 viewBox="0 0 512 512" enable-background="new 0 0 512 512" xml:space="preserve">
<g>
	<defs>
		<rect id="SVGID_1_" width="512" height="512"/>
	</defs>
	<clipPath id="SVGID_2_">
		<use xlink:href="#SVGID_1_"  overflow="visible"/>
	</clipPath>
	<path clip-path="url(#SVGID_2_)" d="M512,163.4c0-28.4-23.1-51.5-51.5-51.5c-28.4,0-51.5,23.1-51.5,51.5v56.5
		c-12.6-0.2-25.2,4.5-34.8,14.1l-42.4,42.4c-24.6-3.8-49.9,4.3-67.7,22.1c-3,3-5.6,6.1-8.1,9.4c-2.4-3.3-5.1-6.5-8.1-9.4
		c-17.8-17.8-43.1-25.9-67.7-22.1l-42.4-42.4c-9.6-9.6-22.2-14.3-34.8-14.1v-56.5c0-28.4-23.1-51.5-51.5-51.5h0
		C23.1,111.9,0,135,0,163.4l0,168.2L105.4,437v75h301.3v-75L512,331.6L512,163.4z M241,482H135.4v-57.4L30,319.2l0-155.8
		c0-11.9,9.7-21.5,21.5-21.5c11.9,0,21.5,9.6,21.5,21.5V231c-1.1,0.9-2.2,1.9-3.2,3c-9.1,9.1-14.1,21.2-14.1,34s5,24.9,14.1,34
		l36.8,36.8l21.2-21.2L91,280.7c-7.1-7.1-7.1-18.5,0-25.6c7.1-7.1,18.5-7.1,25.6,0l54.3,54.3l8.4-2.3c16.9-4.6,35.1,0.2,47.4,12.5
		c9.3,9.3,14.3,21.6,14.3,34.8v0V482z M376.6,424.6V482H271V354.3c-0.1-13.1,5-25.4,14.3-34.7c12.4-12.4,30.5-17.2,47.4-12.5
		l8.4,2.3l54.3-54.3c7.1-7.1,18.5-7.1,25.6,0c3.4,3.4,5.3,8,5.3,12.8c0,4.8-1.9,9.4-5.3,12.8l-36.8,36.8l21.2,21.2l36.8-36.8
		c9.1-9.1,14.1-21.2,14.1-34c0-12.8-5-24.9-14.1-34c-1-1-2.1-2-3.2-3v-67.6c0-11.9,9.6-21.5,21.5-21.5c11.9,0,21.5,9.6,21.5,21.5
		l0,155.8L376.6,424.6z"/>
	<path clip-path="url(#SVGID_2_)" d="M164.9,124.5c3.8,2.2,7.8,3.9,11.9,5.1v48.2h-19.1v30h196.7v-30h-19.1v-48.2
		c4.1-1.2,8.1-2.9,11.9-5.1c17.1-9.9,27.4-27.6,27.4-47.4v-8.7l-39.3-22.7V0h-30v28.4L256,0L137.5,68.4v8.7
		C137.5,96.9,147.7,114.6,164.9,124.5 M206.8,177.8v-47.9c4.4-1.2,8.7-3,12.9-5.4l36.4-21l36.4,21c4.1,2.4,8.4,4.2,12.9,5.4v47.9
		H206.8z M256,34.6L343.2,85c-1.9,5.6-5.7,10.4-11.1,13.5c-7.8,4.5-17,4.5-24.8,0L256,68.9l-51.4,29.7c-7.8,4.5-17,4.5-24.8,0
		c-5.4-3.1-9.2-7.9-11.1-13.5L256,34.6z"/>
</g>
</svg>
