<?xml version="1.0" encoding="utf-8"?>
<!-- Generator: Adobe Illustrator 17.1.0, SVG Export Plug-In . SVG Version: 6.00 Build 0)  -->
<!DOCTYPE svg PUBLIC "-//W3C//DTD SVG 1.1//EN" "http://www.w3.org/Graphics/SVG/1.1/DTD/svg11.dtd">
<svg version="1.1" id="Layer_1" xmlns="http://www.w3.org/2000/svg" xmlns:xlink="http://www.w3.org/1999/xlink" x="0px" y="0px"
	 viewBox="0 0 512 512" enable-background="new 0 0 512 512" xml:space="preserve">
<g>
	<defs>
		<rect id="SVGID_1_" width="512" height="512"/>
	</defs>
	<clipPath id="SVGID_2_">
		<use xlink:href="#SVGID_1_"  overflow="visible"/>
	</clipPath>
	<path clip-path="url(#SVGID_2_)" d="M294.4,196c8.3,0,15-6.7,15-15V91c0-8.3-6.7-15-15-15H78.1c-8.3,0-15,6.7-15,15v90
		c0,8.3,6.7,15,15,15H294.4z M93.1,106h186.3v60H93.1V106z"/>
	<path clip-path="url(#SVGID_2_)" d="M505.2,360.5l-132.7-86.4V15c0-8.3-6.7-15-15-15H15C6.7,0,0,6.7,0,15v482c0,8.3,6.7,15,15,15
		h447.1c8.3,0,15-6.7,15-15V378.1l11.7,7.6c6.9,4.5,16.2,2.6,20.8-4.4C514.1,374.4,512.1,365.1,505.2,360.5 M237.8,482H30V30h312.5
		v244.2l-132.7,86.4c-6.9,4.5-8.9,13.8-4.4,20.8c4.5,6.9,13.8,8.9,20.8,4.4l11.7-7.6V482z M377.4,482h-39.8v-38.1h39.8V482z
		 M447.1,482h-39.8v-53.1c0-8.3-6.7-15-15-15h-69.8c-8.3,0-15,6.7-15,15V482h-39.8V358.5l89.6-58.4l89.6,58.4L447.1,482L447.1,482z"
		/>
	<path clip-path="url(#SVGID_2_)" d="M92.6,226c8.3,0,15,6.7,15,15c0,8.3-6.7,15-15,15c-8.3,0-15-6.7-15-15
		C77.6,232.7,84.3,226,92.6,226"/>
	<path clip-path="url(#SVGID_2_)" d="M155,226c8.3,0,15,6.7,15,15c0,8.3-6.7,15-15,15c-8.3,0-15-6.7-15-15
		C140,232.7,146.7,226,155,226"/>
	<path clip-path="url(#SVGID_2_)" d="M217.5,226c8.3,0,15,6.7,15,15c0,8.3-6.7,15-15,15c-8.3,0-15-6.7-15-15
		C202.5,232.7,209.2,226,217.5,226"/>
	<path clip-path="url(#SVGID_2_)" d="M92.6,286c8.3,0,15,6.7,15,15s-6.7,15-15,15c-8.3,0-15-6.7-15-15S84.3,286,92.6,286"/>
	<path clip-path="url(#SVGID_2_)" d="M155,286c8.3,0,15,6.7,15,15s-6.7,15-15,15c-8.3,0-15-6.7-15-15S146.7,286,155,286"/>
	<path clip-path="url(#SVGID_2_)" d="M92.6,346c8.3,0,15,6.7,15,15s-6.7,15-15,15c-8.3,0-15-6.7-15-15S84.3,346,92.6,346"/>
	<path clip-path="url(#SVGID_2_)" d="M155,346c8.3,0,15,6.7,15,15s-6.7,15-15,15c-8.3,0-15-6.7-15-15S146.7,346,155,346"/>
	<path clip-path="url(#SVGID_2_)" d="M92.6,406c8.3,0,15,6.7,15,15s-6.7,15-15,15c-8.3,0-15-6.7-15-15S84.3,406,92.6,406"/>
	<path clip-path="url(#SVGID_2_)" d="M155,406c8.3,0,15,6.7,15,15s-6.7,15-15,15c-8.3,0-15-6.7-15-15S146.7,406,155,406"/>
	<path clip-path="url(#SVGID_2_)" d="M217.5,286c8.3,0,15,6.7,15,15s-6.7,15-15,15c-8.3,0-15-6.7-15-15S209.2,286,217.5,286"/>
	<path clip-path="url(#SVGID_2_)" d="M279.9,226c8.3,0,15,6.7,15,15c0,8.3-6.7,15-15,15c-8.3,0-15-6.7-15-15
		C264.9,232.7,271.6,226,279.9,226"/>
</g>
</svg>
