<?xml version="1.0" encoding="utf-8"?>
<!-- Generator: Adobe Illustrator 17.1.0, SVG Export Plug-In . SVG Version: 6.00 Build 0)  -->
<!DOCTYPE svg PUBLIC "-//W3C//DTD SVG 1.1//EN" "http://www.w3.org/Graphics/SVG/1.1/DTD/svg11.dtd">
<svg version="1.1" id="Layer_1" xmlns="http://www.w3.org/2000/svg" xmlns:xlink="http://www.w3.org/1999/xlink" x="0px" y="0px"
	 viewBox="0 0 512 512" enable-background="new 0 0 512 512" xml:space="preserve">
<g>
	<defs>
		<rect id="SVGID_1_" width="512" height="512"/>
	</defs>
	<clipPath id="SVGID_2_">
		<use xlink:href="#SVGID_1_"  overflow="visible"/>
	</clipPath>
	<path clip-path="url(#SVGID_2_)" fill="#FFDF4D" d="M436,180C436,80.7,355.3,0,256,0S76,80.7,76,180s80.7,180,180,180
		S436,279.3,436,180 M256,320c-77.2,0-140-62.8-140-140S178.8,40,256,40s140,62.8,140,140S333.2,320,256,320"/>
	<polygon clip-path="url(#SVGID_2_)" fill="#FFDF4D" points="139.8,428.4 121.6,386.8 72.6,386.8 107,332 73.1,310.8 0,426.8 
		95.5,426.8 132.8,512 207.8,398 174.4,376 	"/>
	<polygon clip-path="url(#SVGID_2_)" fill="#FFDF4D" points="438.9,310.8 405,332 439.4,386.8 390.4,386.8 372.2,428.4 337.6,376 
		304.2,398 379.2,512 416.5,426.8 512,426.8 	"/>
	<polygon clip-path="url(#SVGID_2_)" fill="#FFDF4D" points="236,191.7 196,151.7 167.7,180 236,248.3 344.3,140 316,111.7 	"/>
</g>
</svg>
