<?xml version="1.0" encoding="utf-8"?>
<!-- Generator: Adobe Illustrator 17.1.0, SVG Export Plug-In . SVG Version: 6.00 Build 0)  -->
<!DOCTYPE svg PUBLIC "-//W3C//DTD SVG 1.1//EN" "http://www.w3.org/Graphics/SVG/1.1/DTD/svg11.dtd">
<svg version="1.1" id="Layer_1" xmlns="http://www.w3.org/2000/svg" xmlns:xlink="http://www.w3.org/1999/xlink" x="0px" y="0px"
	 viewBox="0 0 512 510.7" enable-background="new 0 0 512 510.7" xml:space="preserve">
<g>
	<defs>
		<rect id="SVGID_1_" width="512" height="510.7"/>
	</defs>
	<clipPath id="SVGID_2_">
		<use xlink:href="#SVGID_1_"  overflow="visible"/>
	</clipPath>
	<path clip-path="url(#SVGID_2_)" d="M400.1,166.4c30.8,0,55.8-25,55.8-55.8c-3.1-74-108.5-74-111.5,0
		C344.3,141.4,369.3,166.4,400.1,166.4 M400.1,84.8c14.2,0,25.8,11.6,25.8,25.8c-1.4,34.2-50.2,34.2-51.6,0
		C374.3,96.4,385.8,84.8,400.1,84.8"/>
	<path clip-path="url(#SVGID_2_)" d="M109.4,255c-8.3,0-15,6.7-15,15c0.8,19.9,29.2,19.9,30,0C124.4,261.7,117.7,255,109.4,255"/>
	<path clip-path="url(#SVGID_2_)" d="M281.6,215.6h-77.2c-19.9,0.8-19.9,29.2,0,30h77.2C301.5,244.8,301.5,216.4,281.6,215.6"/>
	<path clip-path="url(#SVGID_2_)" d="M497.1,216.4c-21.7,0-39.7,16.3-42.3,37.4h-16c-5-12-11.3-23.5-18.9-34.3
		C550.8,192.2,535,3.9,400.1,0c-76-1.1-131.3,79.1-103.5,149.6c-4.4-0.3-8.7-0.5-12.9-0.5h-97.7c-17.5-23.4-45.4-37.3-74.9-36.8
		L66.3,113c-4.9,0.1-9.4,2.5-12.2,6.6c-2.7,4-3.3,9.2-1.6,13.7l23.8,62.2c-10,10.2-20,24.3-29.8,42.2C20.2,241.7,0,264.4,0,291.8v40
		c0,26.2,18.6,48.2,43.3,53.5c10.4,29.2,29.2,49.5,45.6,62.5v48c0,8.3,6.7,15,15,15h59.8c8.3,0,15-6.7,15-15v-11.1h105
		c5.1,0,10.3-0.2,15.4-0.7v11.8c0,8.3,6.7,15,15,15h58.8c8.3,0,15-6.7,15-15V454c0-3.5,1.5-6.8,4.1-9c46.4-38.8,68.6-102,56.1-161.2
		h11.8c13.6,0,24.6-11.1,24.6-24.6c0-7,5.7-12.7,12.7-12.7C517,245.6,517,217.2,497.1,216.4 M400.1,30c44.5,0,80.6,36.2,80.6,80.6
		c-4.4,107-156.9,107-161.3,0C319.4,66.2,355.6,30,400.1,30 M372.5,422.1c-9.3,7.9-14.7,19.5-14.7,31.9v26.7h-28.9v-14.1
		c0-0.1,0-0.2,0-0.3v-30.6c-0.8-19.9-29.2-19.9-30,0v18c-5.1,0.6-10.2,0.9-15.4,0.9h-105v-18.9c-0.8-19.9-29.2-19.9-30,0v45h-29.9
		v-40.5c0-4.8-2.3-9.4-6.3-12.2c-15.3-11-35.3-30.4-43.4-60.5c-1.8-6.5-7.7-11.1-14.5-11.1C41,356.4,30,345.4,30,331.7v-40
		c0-13.6,11.1-24.7,24.7-24.7h1.2c5.6,0,10.8-3.1,13.3-8.1c14.7-28.5,26.6-41.5,34.1-47.4c5.1-4.1,7-11,4.7-17.1l-19.8-51.8
		l23.4-0.4c21.8-0.4,42.3,10.9,53.6,29.6c2.7,4.5,7.6,7.2,12.8,7.2h105.6c10.5,0,22,1.4,32.9,4c16.4,18.9,39,32.2,64.7,36.6
		C437.3,276.4,433.9,371.5,372.5,422.1"/>
</g>
</svg>
