<?xml version="1.0" encoding="utf-8"?>
<!-- Generator: Adobe Illustrator 17.1.0, SVG Export Plug-In . SVG Version: 6.00 Build 0)  -->
<!DOCTYPE svg PUBLIC "-//W3C//DTD SVG 1.1//EN" "http://www.w3.org/Graphics/SVG/1.1/DTD/svg11.dtd">
<svg version="1.1" id="Layer_1" xmlns="http://www.w3.org/2000/svg" xmlns:xlink="http://www.w3.org/1999/xlink" x="0px" y="0px"
	 viewBox="0 0 512 416" enable-background="new 0 0 512 416" xml:space="preserve">
<g>
	<defs>
		<rect id="SVGID_1_" width="512" height="416"/>
	</defs>
	<clipPath id="SVGID_2_">
		<use xlink:href="#SVGID_1_"  overflow="visible"/>
	</clipPath>
	<path clip-path="url(#SVGID_2_)" d="M448,32V0H310.4c-21.9,0-41.5,10-54.4,25.8C243.1,10,223.5,0,201.6,0H64v48H0v368h512V32H448z
		 M310.4,32H416v288H272V70.4C272,49.2,289.2,32,310.4,32 M96,32h105.6c21.2,0,38.4,17.2,38.4,38.4V320H96V32z M480,384H32V80h32
		v272h384V64h32V384z"/>
	<rect x="128" y="256" clip-path="url(#SVGID_2_)" width="80" height="32"/>
	<rect x="128" y="192" clip-path="url(#SVGID_2_)" width="80" height="32"/>
	<rect x="128" y="128" clip-path="url(#SVGID_2_)" width="80" height="32"/>
	<rect x="304" y="256" clip-path="url(#SVGID_2_)" width="80" height="32"/>
	<rect x="304" y="192" clip-path="url(#SVGID_2_)" width="80" height="32"/>
	<rect x="304" y="128" clip-path="url(#SVGID_2_)" width="80" height="32"/>
</g>
</svg>
