<?xml version="1.0" encoding="utf-8"?>
<!-- Generator: Adobe Illustrator 17.1.0, SVG Export Plug-In . SVG Version: 6.00 Build 0)  -->
<!DOCTYPE svg PUBLIC "-//W3C//DTD SVG 1.1//EN" "http://www.w3.org/Graphics/SVG/1.1/DTD/svg11.dtd">
<svg version="1.1" id="Layer_1" xmlns="http://www.w3.org/2000/svg" xmlns:xlink="http://www.w3.org/1999/xlink" x="0px" y="0px"
	 viewBox="0 0 512 512" enable-background="new 0 0 512 512" xml:space="preserve">
<path d="M207,377.7h34V482h-34V377.7z M271,377.7h34V482h-34V377.7z M30,229.3l51.9-64.9H188l-55.4,66H30V229.3z M324,164.3h106.2
	l51.9,64.9v1.1H379.3L324,164.3z M57.7,260.3h89L256,130l109.4,130.3h89V482H335V347.7H177V482H57.7V260.3z M271,30h56.6v23.3H271
	V30z M241,0v101.2l-27.8,33.1H67.5L0,218.7v41.6h27.7V482H0v30h512v-30h-27.7V260.3H512v-41.6l-67.5-84.4H298.8L271,101.2V83.3h86.6
	V0H241z"/>
<rect x="101.7" y="309.3" width="30" height="42.7"/>
<rect x="102.3" y="394.7" width="30" height="42.7"/>
<rect x="380.3" y="309.3" width="30" height="42.7"/>
<rect x="379.7" y="394.7" width="30" height="42.7"/>
<g>
	<defs>
		<rect id="SVGID_1_" width="512" height="512"/>
	</defs>
	<clipPath id="SVGID_2_">
		<use xlink:href="#SVGID_1_"  overflow="visible"/>
	</clipPath>
	<path clip-path="url(#SVGID_2_)" d="M256,209c-25.9,0-47,21.1-47,47c0,25.9,21.1,47,47,47s47-21.1,47-47
		C303,230.1,281.9,209,256,209 M256,273c-9.4,0-17-7.6-17-17c0-9.4,7.6-17,17-17c9.4,0,17,7.6,17,17C273,265.4,265.4,273,256,273"/>
</g>
</svg>
