<?xml version="1.0" encoding="utf-8"?>
<!-- Generator: Adobe Illustrator 17.1.0, SVG Export Plug-In . SVG Version: 6.00 Build 0)  -->
<!DOCTYPE svg PUBLIC "-//W3C//DTD SVG 1.1//EN" "http://www.w3.org/Graphics/SVG/1.1/DTD/svg11.dtd">
<svg version="1.1" id="Layer_1" xmlns="http://www.w3.org/2000/svg" xmlns:xlink="http://www.w3.org/1999/xlink" x="0px" y="0px"
	 viewBox="0 0 512 426.3" enable-background="new 0 0 512 426.3" xml:space="preserve">
<g>
	<defs>
		<rect id="SVGID_1_" width="512" height="426.3"/>
	</defs>
	<clipPath id="SVGID_2_">
		<use xlink:href="#SVGID_1_"  overflow="visible"/>
	</clipPath>
	<path clip-path="url(#SVGID_2_)" d="M471,248.4c-7.2,5.4-12,9-23,9s-15.8-3.6-23-9c-8.9-6.7-20-15-41-15c-21,0-32.1,8.3-41,15
		c-7.2,5.4-12,9-23,9c-11,0-15.8-3.6-23-9c-8.9-6.7-20-15-41-15s-32.1,8.3-41,15c-7.2,5.4-12,9-23,9c-11,0-15.8-3.6-23-9
		c-8.9-6.7-20-15-41-15s-32.1,8.3-41,15c-7.2,5.4-12,9-23,9c-11,0-15.8-3.6-23-9c-8.9-6.7-20-15-41-15v30c11,0,15.8,3.6,23,9
		c8.9,6.7,20,15,41,15s32.1-8.3,41-15c7.2-5.4,12-9,23-9s15.8,3.6,23,9c8.9,6.7,20,15,41,15s32.1-8.3,41-15c7.2-5.4,12-9,23-9
		c11,0,15.8,3.6,23,9c8.9,6.7,20,15,41,15c21,0,32.1-8.3,41-15c7.2-5.4,12-9,23-9s15.8,3.6,23,9c8.9,6.7,20,15,41,15s32.1-8.3,41-15
		c7.2-5.4,12-9,23-9v-30C491,233.4,479.9,241.7,471,248.4"/>
	<path clip-path="url(#SVGID_2_)" d="M448,326.9c-11,0-15.8-3.6-23-9c-8.9-6.7-20-15-41-15c-21,0-32.1,8.3-41,15c-7.2,5.4-12,9-23,9
		c-11,0-15.8-3.6-23-9c-8.9-6.7-20-15-41-15s-32.1,8.3-41,15c-7.2,5.4-12,9-23,9c-11,0-15.8-3.6-23-9c-8.9-6.7-20-15-41-15
		s-32.1,8.3-41,15c-7.2,5.4-12,9-23,9c-11,0-15.8-3.6-23-9c-8.9-6.7-20-15-41-15v30c11,0,15.8,3.6,23,9c8.9,6.7,20,15,41,15
		s32.1-8.3,41-15c7.2-5.4,12-9,23-9s15.8,3.6,23,9c8.9,6.7,20,15,41,15s32.1-8.3,41-15c7.2-5.4,12-9,23-9c11,0,15.8,3.6,23,9
		c8.9,6.7,20,15,41,15c21,0,32.1-8.3,41-15c7.2-5.4,12-9,23-9c11,0,15.8,3.6,23,9c8.9,6.7,20,15,41,15c21,0,32.1-8.3,41-15
		c7.2-5.4,12-9,23-9v-30c-21,0-32.1,8.3-41,15C463.8,323.3,459,326.9,448,326.9"/>
	<path clip-path="url(#SVGID_2_)" d="M448,396.3c-11,0-15.8-3.6-23-9c-8.9-6.7-20-15-41-15c-21,0-32.1,8.3-41,15c-7.2,5.4-12,9-23,9
		c-11,0-15.8-3.6-23-9c-8.9-6.7-20-15-41-15s-32.1,8.3-41,15c-7.2,5.4-12,9-23,9c-11,0-15.8-3.6-23-9c-8.9-6.7-20-15-41-15
		s-32.1,8.3-41,15c-7.2,5.4-12,9-23,9c-11,0-15.8-3.6-23-9c-8.9-6.7-20-15-41-15v30c11,0,15.8,3.6,23,9c8.9,6.7,20,15,41,15
		s32.1-8.3,41-15c7.2-5.4,12-9,23-9s15.8,3.6,23,9c8.9,6.7,20,15,41,15s32.1-8.3,41-15c7.2-5.4,12-9,23-9c11,0,15.8,3.6,23,9
		c8.9,6.7,20,15,41,15c21,0,32.1-8.3,41-15c7.2-5.4,12-9,23-9c11,0,15.8,3.6,23,9c8.9,6.7,20,15,41,15c21,0,32.1-8.3,41-15
		c7.2-5.4,12-9,23-9v-30c-21,0-32.1,8.3-41,15C463.8,392.7,459,396.3,448,396.3"/>
	<path clip-path="url(#SVGID_2_)" d="M346.5,126.5v2.5h30v-2.5c0-24.5,20-44.5,44.5-44.5V52c-24.3,0-45.9,11.7-59.5,29.7
		C347.9,63.7,326.3,52,302,52v30C326.5,82,346.5,102,346.5,126.5"/>
	<path clip-path="url(#SVGID_2_)" d="M219.1,66.1v2.1h30v-2.1c0-19.9,16.2-36.1,36.1-36.1V0c-20.5,0-38.9,9.4-51.1,24.2
		C221.9,9.4,203.6,0,183,0v30C202.9,30,219.1,46.2,219.1,66.1"/>
</g>
</svg>
