<?xml version="1.0" encoding="utf-8"?>
<!-- Generator: Adobe Illustrator 17.1.0, SVG Export Plug-In . SVG Version: 6.00 Build 0)  -->
<!DOCTYPE svg PUBLIC "-//W3C//DTD SVG 1.1//EN" "http://www.w3.org/Graphics/SVG/1.1/DTD/svg11.dtd">
<svg version="1.1" id="Layer_1" xmlns="http://www.w3.org/2000/svg" xmlns:xlink="http://www.w3.org/1999/xlink" x="0px" y="0px"
	 viewBox="0 0 512 351.3" enable-background="new 0 0 512 351.3" xml:space="preserve">
<g>
	<defs>
		<rect id="SVGID_1_" width="512" height="351.3"/>
	</defs>
	<clipPath id="SVGID_2_">
		<use xlink:href="#SVGID_1_"  overflow="visible"/>
	</clipPath>
	<path clip-path="url(#SVGID_2_)" d="M0,143.5c0,8.3,6.7,15,15,15h208.9c6.1,0,11.5-3.7,13.9-9.3c2.3-5.6,1-12.1-3.3-16.3
		l-64.3-64.3c-2.8-2.8-6.6-4.4-10.6-4.4H15c-8.3,0-15,6.7-15,15c0,8.3,6.7,15,15,15h138.4l34.3,34.3H15C6.7,128.5,0,135.3,0,143.5"
		/>
	<path clip-path="url(#SVGID_2_)" d="M497,321.3H366.2c7.8-9.8,13.3-21.5,15.8-34.3h61.5c37.8,0,68.5-30.7,68.5-68.5
		c0-21.3-8.3-41.3-23.4-56.4L354.4,27.9C336.4,9.9,312.5,0,287,0H15C6.7,0,0,6.7,0,15s6.7,15,15,15h170.5l114.7,114.7
		c8.9,8.9,20.7,13.8,33.3,13.8h109l24.8,24.8c9.4,9.4,14.6,21.9,14.6,35.2c0,21.2-17.3,38.5-38.5,38.5H15c-8.3,0-15,6.7-15,15
		c0,18.6,6.5,35.7,17.2,49.3H15c-8.3,0-15,6.7-15,15c0,8.3,6.7,15,15,15h482c8.3,0,15-6.7,15-15C512,328.1,505.3,321.3,497,321.3
		 M333.6,128.5c-4.6,0-8.9-1.8-12.1-5L227.9,30h59c17.5,0,33.9,6.8,46.2,19.1l79.4,79.4L333.6,128.5L333.6,128.5z M351.1,287.1
		c-6.4,19.9-25,34.3-46.9,34.3c-21.9,0-40.6-14.4-46.9-34.3H351.1z M242.2,321.3H141.3c7.8-9.8,13.3-21.5,15.8-34.3h69.3
		C228.8,299.8,234.4,311.5,242.2,321.3 M32.3,287.1h93.9c-6.4,19.9-25,34.3-46.9,34.3C57.3,321.3,38.7,306.9,32.3,287.1"/>
</g>
</svg>
