<?xml version="1.0" encoding="utf-8"?>
<!-- Generator: Adobe Illustrator 17.1.0, SVG Export Plug-In . SVG Version: 6.00 Build 0)  -->
<!DOCTYPE svg PUBLIC "-//W3C//DTD SVG 1.1//EN" "http://www.w3.org/Graphics/SVG/1.1/DTD/svg11.dtd">
<svg version="1.1" id="Layer_1" xmlns="http://www.w3.org/2000/svg" xmlns:xlink="http://www.w3.org/1999/xlink" x="0px" y="0px"
	 viewBox="0 0 512 512" enable-background="new 0 0 512 512" xml:space="preserve">
<g>
	<defs>
		<rect id="SVGID_1_" width="512" height="512"/>
	</defs>
	<clipPath id="SVGID_2_">
		<use xlink:href="#SVGID_1_"  overflow="visible"/>
	</clipPath>
	<path clip-path="url(#SVGID_2_)" d="M497,451c8.3,0,15-6.7,15-15s-6.7-15-15-15h-15v-45c0-8.3-6.7-15-15-15h-91
		c-8.3,0-15,6.7-15,15v45h-15c-8.3,0-15,6.7-15,15s6.7,15,15,15h15v31h-60v-69.6c52.4-20.6,90-76.2,90-141.4c0-37-12-72.1-34-99.5
		c2.7-12.2,4-23.9,4-35.5C361,61,313.9,0,256,0c-21.8,0-42.7,8.5-60.2,24.2C178.8,9,158.2,0,136,0C78.1,0,31,61,31,136
		c0,11.6,1.3,23.3,4,35.5C12.4,199.5,0,234.6,0,271c0,65.3,38.1,121,91,141.6V482H15c-8.3,0-15,6.7-15,15s6.7,15,15,15h482
		c8.3,0,15-6.7,15-15s-6.7-15-15-15h-15v-31H497z M391,391h61v30h-61V391z M271,482h-30v-61.9c5,0.6,10,0.9,15,0.9
		c5.1,0,10.1-0.3,15-0.9V482z M195.9,405.4c4.9,2.7,9.9,5,15.1,7.1V482h-30v-69.6C186.1,410.4,191.1,408,195.9,405.4 M307.6,59.6
		C322.7,79.9,331,107.1,331,136c0,17.9-3.7,29.9-4.9,36c-2.8,13.5-10,28.7-18.4,39.9c-5,6.6-3.6,16,3,21c6.7,5,16.1,3.6,21-3
		c5.1-6.8,9.6-14.3,13.5-22.3c10.3,18.8,15.9,40.6,15.9,63.4c0,66.2-47.1,120-105,120c-11.1,0-22-2-32.5-5.9
		c29-27.5,47.5-68.5,47.5-114.1c0-37-12-72.1-34-99.5c2.7-12.2,4-23.9,4-35.5c0-34-9.7-65.1-25.7-89c12.1-11,26.2-17,40.7-17
		C275.1,30,293.4,40.5,307.6,59.6 M30,271c0-22.6,5.8-44.4,16.8-63.7c3.9,8.1,8.5,15.7,13.6,22.5c4.9,6.6,14.3,8,21,3
		c6.6-5,8-14.4,3-21c-7.9-10.5-14-23.2-18-37.1C66.2,170.7,61,157,61,136c0-28.9,8.3-56.1,23.4-76.4C98.6,40.5,116.9,30,136,30
		s37.4,10.5,51.6,29.6C202.7,79.9,211,107.1,211,136c0,3.3-0.1,6.6-0.4,9.9C188.7,129.7,163,121,136,121c-8.3,0-15,6.7-15,15
		s6.7,15,15,15c27.5,0,53.4,12,73.1,33.9c0.1,0.1,0.2,0.3,0.4,0.4c20.3,22.8,31.5,53.2,31.5,85.7c0,66.2-47.1,120-105,120
		C76.8,391,30,336.3,30,271 M121,420.1c4.9,0.6,9.9,0.9,15,0.9s10.1-0.3,15-0.9V482h-30V420.1z M452,482h-61v-31h61V482z"/>
</g>
</svg>
