<?xml version="1.0" encoding="utf-8"?>
<!-- Generator: Adobe Illustrator 17.1.0, SVG Export Plug-In . SVG Version: 6.00 Build 0)  -->
<!DOCTYPE svg PUBLIC "-//W3C//DTD SVG 1.1//EN" "http://www.w3.org/Graphics/SVG/1.1/DTD/svg11.dtd">
<svg version="1.1" id="Layer_1" xmlns="http://www.w3.org/2000/svg" xmlns:xlink="http://www.w3.org/1999/xlink" x="0px" y="0px"
	 viewBox="0 0 512 512" enable-background="new 0 0 512 512" xml:space="preserve">
<g>
	<defs>
		<rect id="SVGID_1_" width="512" height="512"/>
	</defs>
	<clipPath id="SVGID_2_">
		<use xlink:href="#SVGID_1_"  overflow="visible"/>
	</clipPath>
	<path clip-path="url(#SVGID_2_)" d="M412,256c0,16.8-2.7,33.5-8,49.5c-2.8,8.4-11.9,12.9-20.2,10.1c-8.4-2.8-12.9-11.9-10.1-20.2
		c21.6-64.9-13.4-135-78.3-156.7c-64.9-21.7-135,13.4-156.7,78.3c-21.7,64.9,13.4,135,78.3,156.7c25.4,8.5,53,8.5,78.4,0
		c8.4-2.8,17.4,1.7,20.2,10.1c2.8,8.4-1.7,17.4-10.1,20.2c-16,5.3-32.7,8-49.5,8c-86,0-156-70-156-156c0-86,70-156,156-156
		S412,170,412,256 M258.7,236.1h44.7c8.8,0,16-7.2,16-16s-7.2-16-16-16h-83.3c-8.8,0-16,7.2-16,16v83.3c0,8.8,7.2,16,16,16
		c8.8,0,16-7.2,16-16v-44.7l104.6,104.6c6.2,6.2,16.4,6.2,22.6,0c6.2-6.2,6.2-16.4,0-22.6L258.7,236.1z M512,256
		c0,141.2-114.8,256-256,256S0,397.2,0,256S114.8,0,256,0S512,114.8,512,256 M480,256c0-123.5-100.5-224-224-224S32,132.5,32,256
		s100.5,224,224,224S480,379.5,480,256"/>
</g>
</svg>
