<?xml version="1.0" encoding="utf-8"?>
<!-- Generator: Adobe Illustrator 17.1.0, SVG Export Plug-In . SVG Version: 6.00 Build 0)  -->
<!DOCTYPE svg PUBLIC "-//W3C//DTD SVG 1.1//EN" "http://www.w3.org/Graphics/SVG/1.1/DTD/svg11.dtd">
<svg version="1.1" id="Layer_1" xmlns="http://www.w3.org/2000/svg" xmlns:xlink="http://www.w3.org/1999/xlink" x="0px" y="0px"
	 viewBox="0 0 469.9 470" enable-background="new 0 0 469.9 470" xml:space="preserve">
<g>
	<defs>
		<rect id="SVGID_1_" width="469.9" height="470"/>
	</defs>
	<clipPath id="SVGID_2_">
		<use xlink:href="#SVGID_1_"  overflow="visible"/>
	</clipPath>
	<path clip-path="url(#SVGID_2_)" d="M352.5,470c-13.6,0.1-27.1-2.5-39.7-7.5c-68.3-28.4-129.9-71-180.7-124.8
		C78.3,286.9,35.9,225.4,7.5,157.1C-14,101.6,12.2,39.1,66.8,15.6L82.2,9c52.2-22.2,112.4,2.2,134.6,54.3
		c16.4,38.5,7.7,83.1-21.9,112.7c11.8,20.4,26.1,39.2,42.7,55.9c16.7,16.6,35.5,31,55.9,42.7c40.1-40.1,105-40.1,145.1-0.1
		c29.6,29.6,38.3,74.2,21.9,112.7l-6.6,15.4C436.5,443.3,396.7,469.8,352.5,470 M122.5,43.4c-8.1,0-16.1,1.6-23.5,4.9l-15.4,6.6
		C50.1,69.2,34,107.5,47.2,141.5c26.1,62.9,65.3,119.5,115,166.2c46.6,49.7,103.2,88.9,166.2,115c34,13.2,72.3-3,86.6-36.5l6.6-15.4
		c13-30.4-1.1-65.7-31.6-78.7c-8.3-3.6-17.4-5.2-26.4-4.7c-16.5,1-32,8.7-42.7,21.3l-6.8,7.9c-6,6.9-15.7,9.2-24.1,5.8
		c-31-14.5-59.1-34.6-82.8-59.3c-24.3-24.1-44-52.6-58-83.8c-3.4-8.4-1.1-18.1,5.8-24.1l7.9-6.8c12.7-10.7,20.4-26.1,21.3-42.7
		c1.2-33.2-24.8-61.1-58-62.3C124.9,43.3,123.7,43.3,122.5,43.4 M453.4,192.7c11.5-2.6,18.6-14.1,16-25.6c-0.1-0.3-0.1-0.6-0.2-0.9
		c-21.5-80.9-84.7-144-165.5-165.5c-11.8-3-23.8,4.1-26.8,15.9c-3,11.8,4.1,23.8,15.9,26.8C358,60.8,409,111.8,426.5,177.1
		c2.7,9.5,11.5,15.9,21.3,15.6H453.4z M371.2,214c11.4-3,18.2-14.7,15.2-26.1c0-0.1,0-0.1,0-0.2c-14.1-50.9-54-90.5-105-104.3
		c-11.3-3.5-23.2,2.9-26.6,14.1c-3.5,11.3,2.9,23.2,14.1,26.6c0.5,0.1,0.9,0.3,1.4,0.4c36.5,9.9,64.9,38.4,74.9,74.9
		c2.6,9.6,11.4,16.1,21.3,15.8C368.1,215,369.7,214.6,371.2,214"/>
</g>
</svg>
