<?xml version="1.0" encoding="utf-8"?>
<!-- Generator: Adobe Illustrator 17.1.0, SVG Export Plug-In . SVG Version: 6.00 Build 0)  -->
<!DOCTYPE svg PUBLIC "-//W3C//DTD SVG 1.1//EN" "http://www.w3.org/Graphics/SVG/1.1/DTD/svg11.dtd">
<svg version="1.1" id="Layer_1" xmlns="http://www.w3.org/2000/svg" xmlns:xlink="http://www.w3.org/1999/xlink" x="0px" y="0px"
	 viewBox="0 0 512 448" enable-background="new 0 0 512 448" xml:space="preserve">
<g>
	<defs>
		<rect id="SVGID_1_" width="512" height="448"/>
	</defs>
	<clipPath id="SVGID_2_">
		<use xlink:href="#SVGID_1_"  overflow="visible"/>
	</clipPath>
	<path clip-path="url(#SVGID_2_)" d="M256,245.3c-41.2,0-74.7-33.4-74.7-74.7S214.8,96,256,96s74.7,33.4,74.7,74.7
		C330.6,211.9,297.2,245.3,256,245.3 M256,138.7c-17.7,0-32,14.3-32,32c0,17.7,14.3,32,32,32c17.7,0,32-14.3,32-32
		C288,153,273.7,138.7,256,138.7L256,138.7z"/>
	<path clip-path="url(#SVGID_2_)" d="M255.9,448c-8.1,0-15.5-4.6-19.1-11.8c-19.4-38.8-45.1-67-69.9-94.4
		c-41.9-46.1-81.6-89.7-81.6-171.1C85.3,76.6,161.9,0,255.9,0c94.2,0,170.8,76.6,170.8,170.8c0,81.4-39.7,124.9-81.7,171.1
		c-24.9,27.3-50.6,55.6-70,94.4C271.4,443.4,264,448,255.9,448 M255.9,42.7c-70.5,0-127.9,57.5-127.9,128.1
		c0,64.9,31.1,99.1,70.5,142.4c18.7,20.5,39.2,43.1,57.5,70.9c18.3-27.9,38.8-50.4,57.6-71c39.4-43.3,70.5-77.5,70.5-142.3
		C383.9,100,326.6,42.7,255.9,42.7"/>
	<path clip-path="url(#SVGID_2_)" d="M34.5,266.7c-9.1,0-17.1-5.7-20.1-14.3c-18.5-52.7-19.1-110-1.8-163.1
		C16.1,78.1,28.1,72,39.4,75.6c11.2,3.6,17.4,15.7,13.7,26.9c0,0.1,0,0.2-0.1,0.2c-6.9,21.1-10.4,43.2-10.3,65.4
		c0,23.9,4,47.6,11.9,70.1c3.9,11.1-1.9,23.3-13.1,27.2C39.2,266.3,36.9,266.7,34.5,266.7L34.5,266.7z"/>
	<path clip-path="url(#SVGID_2_)" d="M477.5,266.7c-11.8,0-21.3-9.6-21.3-21.4c0-2.4,0.4-4.8,1.2-7.1c7.9-22.5,11.9-46.3,11.9-70.1
		c0.1-22.2-3.4-44.3-10.3-65.4c-3.8-11.2,2.3-23.3,13.4-27c11.2-3.8,23.3,2.3,27,13.4c0,0.1,0.1,0.2,0.1,0.2
		c17.3,53.1,16.6,110.4-1.8,163.1C494.7,261,486.6,266.7,477.5,266.7"/>
</g>
</svg>
