<?xml version="1.0" encoding="utf-8"?>
<!-- Generator: Adobe Illustrator 17.1.0, SVG Export Plug-In . SVG Version: 6.00 Build 0)  -->
<!DOCTYPE svg PUBLIC "-//W3C//DTD SVG 1.1//EN" "http://www.w3.org/Graphics/SVG/1.1/DTD/svg11.dtd">
<svg version="1.1" id="Layer_1" xmlns="http://www.w3.org/2000/svg" xmlns:xlink="http://www.w3.org/1999/xlink" x="0px" y="0px"
	 viewBox="0 0 424 512" enable-background="new 0 0 424 512" xml:space="preserve">
<g>
	<defs>
		<rect id="SVGID_1_" width="424" height="512"/>
	</defs>
	<clipPath id="SVGID_2_">
		<use xlink:href="#SVGID_1_"  overflow="visible"/>
	</clipPath>
	<path clip-path="url(#SVGID_2_)" fill-rule="evenodd" clip-rule="evenodd" fill="#FFDF4D" d="M362.1,362l-150,150l-150-150
		c-82.7-82.7-82.7-217.4,0-300.1v0C101.9,22,155.2,0,212.1,0c56.9,0,110.1,22,150,61.9c39.9,39.9,61.9,93.2,61.9,150
		C424,268.8,402,322.1,362.1,362 M117.4,117.2c-52.2,52.2-52.2,137.2,0,189.4c26.1,26.1,60.4,39.2,94.7,39.2
		c34.3,0,68.6-13.1,94.7-39.2c52.2-52.2,52.2-137.2,0-189.4C254.6,65,169.6,65,117.4,117.2 M280.6,280.4
		c37.8-37.7,37.8-99.2,0-136.9c-37.7-37.8-99.2-37.8-136.9,0c-37.7,37.7-37.7,99.2,0,136.9c18.9,18.9,43.7,28.3,68.5,28.3
		C236.9,308.7,261.7,299.3,280.6,280.4"/>
</g>
</svg>
