<?xml version="1.0" encoding="utf-8"?>
<!-- Generator: Adobe Illustrator 17.1.0, SVG Export Plug-In . SVG Version: 6.00 Build 0)  -->
<!DOCTYPE svg PUBLIC "-//W3C//DTD SVG 1.1//EN" "http://www.w3.org/Graphics/SVG/1.1/DTD/svg11.dtd">
<svg version="1.1" id="Layer_1" xmlns="http://www.w3.org/2000/svg" xmlns:xlink="http://www.w3.org/1999/xlink" x="0px" y="0px"
	 viewBox="0 0 512 512" enable-background="new 0 0 512 512" xml:space="preserve">
<g>
	<defs>
		<rect id="SVGID_1_" width="512" height="512"/>
	</defs>
	<clipPath id="SVGID_2_">
		<use xlink:href="#SVGID_1_"  overflow="visible"/>
	</clipPath>
	<path clip-path="url(#SVGID_2_)" d="M492,352c11,0,20-9,20-20V192.7c0-27.4-13.8-52.6-36.9-67.4L427,94.5V20c0-11-9-20-20-20H105
		C94,0,85,9,85,20v74.4l-48.1,30.8C13.8,140,0,165.2,0,192.6V432c0,44.1,35.9,80,80,80h352c44.1,0,80-35.9,80-80c0-11-9-20-20-20
		s-20,9-20,20c0,22.1-17.9,40-40,40H80c-22.1,0-40-17.9-40-40V218.6l173.8,108c13,8.1,27.6,12.2,42.2,12.2
		c14.6,0,29.2-4.1,42.2-12.2l173.8-108V332C472,343,481,352,492,352 M453.6,159c6,3.9,10.8,9.2,14,15.3L427,199.5V142L453.6,159z
		 M58.4,158.9l26.6-17v57.6l-40.6-25.2C47.6,168.1,52.4,162.8,58.4,158.9 M277.1,292.7c-13,8.1-29.2,8.1-42.2,0L125,224.4V40h262
		v184.4L277.1,292.7z M276,153c0,11-9,20-20,20c-11,0-20-9-20-20c0-11,9-20,20-20C267,133,276,142,276,153 M348,153c0,11-9,20-20,20
		s-20-9-20-20c0-11,9-20,20-20S348,142,348,153 M203,153c0,11-9,20-20,20c-11,0-20-9-20-20c0-11,9-20,20-20C194,133,203,142,203,153
		"/>
</g>
</svg>
