<?xml version="1.0" encoding="utf-8"?>
<!-- Generator: Adobe Illustrator 17.1.0, SVG Export Plug-In . SVG Version: 6.00 Build 0)  -->
<!DOCTYPE svg PUBLIC "-//W3C//DTD SVG 1.1//EN" "http://www.w3.org/Graphics/SVG/1.1/DTD/svg11.dtd">
<svg version="1.1" id="Layer_1" xmlns="http://www.w3.org/2000/svg" xmlns:xlink="http://www.w3.org/1999/xlink" x="0px" y="0px"
	 viewBox="0 0 408.3 378.8" enable-background="new 0 0 408.3 378.8" xml:space="preserve">
<g>
	<defs>
		<rect id="SVGID_1_" width="408.3" height="378.8"/>
	</defs>
	<clipPath id="SVGID_2_">
		<use xlink:href="#SVGID_1_"  overflow="visible"/>
	</clipPath>
	<path clip-path="url(#SVGID_2_)" fill-rule="evenodd" clip-rule="evenodd" d="M204.6,110.8c11,0,20,9,20,20v64h40c11,0,20,9,20,20
		c0,11-9,20-20,20h-56c-13.3,0-24-10.7-24-24v-80C184.6,119.7,193.6,110.8,204.6,110.8"/>
	<path clip-path="url(#SVGID_2_)" d="M345.8,10.7c-16.2-15.1-41.5-14.2-56.5,2l-8.2,8.8c-7.5,8.1-7.1,20.7,1,28.3
		c8.1,7.5,20.7,7.1,28.3-1l8.2-8.8l49.7,46.4l-8.2,8.8c-7.5,8.1-7.1,20.7,1,28.3c8.1,7.5,20.7,7.1,28.3-1l8.2-8.8
		c15.1-16.2,14.2-41.5-2-56.5L345.8,10.7z"/>
	<path clip-path="url(#SVGID_2_)" d="M10.7,113.7c-15.1-16.2-14.2-41.5,2-56.5l49.7-46.4c16.2-15.1,41.5-14.2,56.5,2l8.2,8.8
		c7.5,8.1,7.1,20.7-1,28.3c-8.1,7.5-20.7,7.1-28.3-1L89.7,40L40,86.4l8.2,8.8c7.5,8.1,7.1,20.7-1,28.3c-8.1,7.5-20.7,7.1-28.3-1
		L10.7,113.7z"/>
	<path clip-path="url(#SVGID_2_)" fill-rule="evenodd" clip-rule="evenodd" d="M202.6,378.8c91.7,0,166-74.3,166-166
		c0-91.7-74.3-166-166-166c-91.7,0-166,74.3-166,166C36.6,304.4,111,378.8,202.6,378.8 M202.6,338.8c69.6,0,126-56.4,126-126
		s-56.4-126-126-126s-126,56.4-126,126S133.1,338.8,202.6,338.8"/>
</g>
<text transform="matrix(1 0 0 1 175 192)" font-family="'TimesNewRomanPSMT'" font-size="12">input_srok</text>
</svg>
