<?xml version="1.0" encoding="utf-8"?>
<!-- Generator: Adobe Illustrator 17.1.0, SVG Export Plug-In . SVG Version: 6.00 Build 0)  -->
<!DOCTYPE svg PUBLIC "-//W3C//DTD SVG 1.1//EN" "http://www.w3.org/Graphics/SVG/1.1/DTD/svg11.dtd">
<svg version="1.1" id="Layer_1" xmlns="http://www.w3.org/2000/svg" xmlns:xlink="http://www.w3.org/1999/xlink" x="0px" y="0px"
	 viewBox="0 0 448 448.7" enable-background="new 0 0 448 448.7" xml:space="preserve">
<g>
	<defs>
		<rect id="SVGID_1_" width="448" height="448.7"/>
	</defs>
	<clipPath id="SVGID_2_">
		<use xlink:href="#SVGID_1_"  overflow="visible"/>
	</clipPath>
	<path clip-path="url(#SVGID_2_)" d="M400,96.7h-40.2C333.7,21.6,251.6-18.1,176.5,8C135,22.5,102.3,55.2,87.8,96.7H48
		c-26.5,0-48,21.5-48,48v256c0,26.5,21.5,48,48,48h352c26.5,0,48-21.5,48-48v-256C448,118.2,426.5,96.7,400,96.7 M400,128.7
		c8.8,0,16,7.2,16,16v18.7c-5.1-1.8-10.6-2.7-16-2.7h-33c0.6-5.3,1-10.7,1-16c0-5.3-0.3-10.7-1-16H400z M224,32.7
		c61.9,0,112,50.1,112,112c0,5.4-0.4,10.7-1.1,16h-65.6c-6.7-18.9-24.4-31.7-44.5-32H224c-8.8,0-16-7.2-16-16s7.2-16,16-16
		c8.8,0,16,7.2,16,16s7.2,16,16,16s16-7.2,16-16c0-20.4-12.8-38.5-32-45.3v-2.7c0-8.8-7.2-16-16-16c-8.8,0-16,7.2-16,16v2.7
		c-25,8.8-38.1,36.2-29.4,61.2c6.8,19.2,25,32.1,45.4,32.1H113.1c-0.8-5.3-1.1-10.6-1.1-16C112,82.9,162.1,32.7,224,32.7 M48,128.7
		h32v32H48c-8.8,0-16-7.2-16-16S39.2,128.7,48,128.7 M400,416.7H48c-8.8,0-16-7.2-16-16V190c5.1,1.8,10.6,2.7,16,2.7h352
		c8.8,0,16,7.2,16,16v32h-48c-35.3,0-64,28.7-64,64s28.7,64,64,64h48v32C416,409.5,408.8,416.7,400,416.7 M416,336.7h-48
		c-17.7,0-32-14.3-32-32c0-17.7,14.3-32,32-32h48V336.7z"/>
	<path clip-path="url(#SVGID_2_)" d="M240,288.7h-32c-8.8,0-16,7.2-16,16c0,8.8,7.2,16,16,16h32c8.8,0,16-7.2,16-16
		C256,295.9,248.8,288.7,240,288.7"/>
</g>
</svg>
