<?xml version="1.0" encoding="utf-8"?>
<!-- Generator: Adobe Illustrator 17.1.0, SVG Export Plug-In . SVG Version: 6.00 Build 0)  -->
<!DOCTYPE svg PUBLIC "-//W3C//DTD SVG 1.1//EN" "http://www.w3.org/Graphics/SVG/1.1/DTD/svg11.dtd">
<svg version="1.1" id="Layer_1" xmlns="http://www.w3.org/2000/svg" xmlns:xlink="http://www.w3.org/1999/xlink" x="0px" y="0px"
	 viewBox="0 0 480 480" enable-background="new 0 0 480 480" xml:space="preserve">
<g>
	<defs>
		<rect id="SVGID_1_" width="480" height="480"/>
	</defs>
	<clipPath id="SVGID_2_">
		<use xlink:href="#SVGID_1_"  overflow="visible"/>
	</clipPath>
	<path clip-path="url(#SVGID_2_)" d="M311.9,384c-8.8,0-16-7.2-16-16c0.1-40.5-27.6-75.8-66.9-85.4c-8.6-2.1-13.8-10.8-11.7-19.3
		c1.2-4.9,4.6-9,9.3-10.9c24.4-10.3,35.9-38.4,25.6-62.9c-10.3-24.4-38.4-35.9-62.9-25.6s-35.9,38.4-25.6,62.9
		c4.9,11.6,14.1,20.8,25.6,25.6c8.1,3.5,11.9,12.8,8.5,21c-2,4.6-6,8.1-10.9,9.3c-39.4,9.6-67,44.9-66.9,85.4c0,8.8-7.2,16-16,16
		s-16-7.2-16-16c-0.1-43.7,23.6-83.9,61.8-105c-30.3-32.1-28.9-82.8,3.2-113.1c32.1-30.3,82.8-28.9,113.1,3.2
		c29.1,30.8,29.1,79,0,109.8c38.2,21.1,61.9,61.4,61.8,105C327.9,376.9,320.8,384,311.9,384"/>
	<path clip-path="url(#SVGID_2_)" d="M207.9,480C93.1,480,0,386.8,0,272C0,157.1,93.2,64,208.1,64c14.5,0,29,1.5,43.2,4.6
		c8.6,1.9,14.1,10.4,12.2,19.1c-1.9,8.5-10.3,14-18.9,12.2c-95-20.2-188.5,40.5-208.7,135.5c-20.2,95,40.5,188.5,135.5,208.7
		c95,20.2,188.5-40.5,208.7-135.5c5.1-24.1,5.1-49.1,0-73.2c-1.9-8.6,3.6-17.2,12.2-19.1c8.6-1.9,17.2,3.6,19.1,12.2
		c0,0.1,0,0.1,0,0.2c23.9,112.4-47.8,222.9-160.2,246.8C237,478.5,222.5,480,207.9,480"/>
	<path clip-path="url(#SVGID_2_)" d="M360.3,151.6c-4.2,0-8.3-1.7-11.3-4.7l-32-32c-6.4-6.1-6.5-16.3-0.4-22.6
		c6.1-6.4,16.3-6.5,22.6-0.4c0.1,0.1,0.3,0.3,0.4,0.4l20.7,20.7L405,68.3c6.4-6.1,16.5-6,22.6,0.4c6,6.2,6,16,0,22.2l-56,56
		C368.6,150,364.6,151.7,360.3,151.6"/>
	<path clip-path="url(#SVGID_2_)" d="M375.9,208c-57.4-0.1-103.9-46.6-104-104c0-2.6,0.1-5,0.3-7.6c4.2-57.3,54-100.3,111.3-96.1
		c57.3,4.2,100.3,54,96.1,111.3c-3.8,51.5-44.7,92.4-96.2,96.1C381,207.9,378.5,208,375.9,208 M375.9,32
		c-37.7,0.1-69,29.2-71.8,66.8c-0.1,1.8-0.2,3.5-0.2,5.2c0,39.7,32.3,72,72,72c1.8,0,3.4-0.1,5.2-0.2c39.7-2.9,69.5-37.4,66.6-77.1
		C444.9,61.2,413.6,32.1,375.9,32"/>
</g>
</svg>
