<svg width="45" height="45" viewBox="0 0 45 45" fill="none" xmlns="http://www.w3.org/2000/svg">
<g clip-path="url(#clip0_235_31)">
<path d="M0.0375861 26.3808C0.0505064 26.1043 0.102187 25.8301 0.19028 25.5677C0.660107 24.5462 1.44472 23.9651 2.57817 23.9276C3.41212 23.8983 4.24723 23.9112 5.08235 23.9276C6.20289 23.9288 7.1954 24.6493 7.53954 25.7118C7.63234 26.0012 7.75097 26.0633 8.02699 26.041C9.18041 25.9543 10.335 25.8922 11.4884 25.8126C13.524 25.6732 15.4444 26.0469 17.2321 27.0567C18.0202 27.5007 18.8553 27.8768 19.5976 28.3864C20.8627 29.2556 22.2357 29.3939 23.7086 29.2556C25.1815 29.1174 26.6568 29.0213 28.132 28.9346C29.7424 28.8386 30.8982 29.5368 31.5524 31.0105C31.7074 31.362 31.8355 31.1277 31.9635 31.0445C34.4947 29.4431 37.0235 27.8393 39.5524 26.2308C40.6095 25.5607 41.7241 25.3651 42.9011 25.8114C45.2408 26.7006 45.7576 30.0429 43.7961 31.6361C43.1829 32.1094 42.544 32.5499 41.8827 32.9541C41.4951 33.2224 40.963 33.1275 40.694 32.7409C40.6893 32.7338 40.6846 32.7268 40.6799 32.7198C40.398 32.3109 40.4873 31.8025 40.9278 31.4874C41.474 31.0972 42.0483 30.7434 42.5898 30.3463C43.1313 29.9492 43.3309 29.3728 43.2147 28.7179C43.0984 28.063 42.7812 27.5651 42.0988 27.3918C41.6114 27.2582 41.0899 27.3379 40.6647 27.612C37.7012 29.4864 34.7378 31.3632 31.7767 33.2423C31.6534 33.3196 31.5559 33.4321 31.4972 33.5656C31.0262 34.5836 30.083 35.3065 28.9754 35.4962C25.5785 36.1722 22.1711 36.8013 18.7661 37.4386C18.1518 37.5558 17.7089 37.2465 17.6267 36.7052C17.5539 36.1968 17.8863 35.8114 18.4936 35.6977L28.3188 33.8444C28.6947 33.7847 29.0529 33.6418 29.3665 33.425C29.9538 32.9986 30.1711 32.3812 29.9538 31.7334C29.7506 31.0984 29.1551 30.6696 28.4868 30.679C27.3463 30.7294 26.2093 30.836 25.0688 30.9028C23.8002 30.9766 22.5317 31.1441 21.2573 30.966C20.5162 30.8629 19.8713 30.5244 19.2312 30.1706C18.2469 29.6235 17.2638 29.0776 16.283 28.5305C14.8888 27.7502 13.3842 27.4632 11.8044 27.5476C10.5323 27.6143 9.26146 27.7139 7.9894 27.7819C7.72982 27.7959 7.68049 27.899 7.68049 28.1333C7.68636 31.4135 7.68636 34.6938 7.68049 37.974C7.65935 38.1638 7.77798 38.3418 7.96239 38.3946C11.0773 39.7195 14.177 41.089 17.3108 42.3624C18.51 42.8357 19.7727 43.1274 21.0576 43.2294C22.4424 43.3465 23.6757 42.8779 24.8515 42.2195C26.8917 41.0668 28.7781 39.6797 30.7243 38.3828C32.4028 37.2629 34.0683 36.1253 35.7374 34.9855C36.0827 34.7512 36.4421 34.6867 36.8027 34.914C37.1339 35.1225 37.2467 35.4435 37.1821 35.8254C37.1257 36.1617 36.8755 36.3397 36.6171 36.5143C34.3995 38.0115 32.1831 39.5098 29.9691 41.0094C28.6007 41.9395 27.2499 42.8896 25.8076 43.6968C24.7305 44.2978 23.6241 44.8156 22.3731 44.9339C22.3555 44.9339 22.3426 44.9773 22.3273 45.0007H20.4821C20.4398 44.8601 20.3141 44.9128 20.2249 44.8952C18.8365 44.6235 17.4494 44.3505 16.1385 43.7882C13.3936 42.6167 10.6451 41.4452 7.90131 40.2619C7.65465 40.1565 7.54894 40.1588 7.41387 40.4353C6.93347 41.4112 6.12184 41.9114 5.02832 41.9278C4.22492 41.9384 3.42034 41.9384 2.61576 41.9278C1.53046 41.9196 0.561443 41.2472 0.17736 40.235C0.0845688 40.0019 0.0375861 39.7523 0.0375861 39.5016C0.0375861 34.8461 -0.0469827 30.8102 0.0375861 26.3808ZM1.76185 32.9189C1.76185 34.9667 1.76185 37.0145 1.76185 39.0623C1.76185 39.8718 2.06019 40.1647 2.88004 40.1659C3.56833 40.1659 4.25546 40.1717 4.94375 40.1659C5.58741 40.16 5.92334 39.8437 5.92451 39.1935C5.93156 35.0101 5.93156 30.8266 5.92451 26.6432C5.92451 25.9942 5.58741 25.6778 4.94258 25.672C4.25428 25.665 3.56598 25.672 2.87886 25.672C2.05667 25.672 1.76185 25.9684 1.76185 26.7767C1.76185 28.8257 1.76185 30.8735 1.76185 32.9189Z" fill="#030303"/>
<path d="M22.9426 0.0295455C23.6615 0.127952 24.1336 0.707849 24.6281 1.20105C27.8946 4.48128 31.1658 7.7533 34.4405 11.016C35.3801 11.9532 35.4846 13.1774 34.7341 14.1427C34.3676 14.6113 33.8919 14.93 33.2964 14.9745C32.8724 15.0073 32.8031 15.1807 32.8078 15.5708C32.8301 17.5905 32.8184 19.6101 32.8184 21.6298C32.8184 22.5998 32.5612 22.8599 31.6074 22.8599H13.3746C12.4514 22.8599 12.1766 22.5846 12.1766 21.6556C12.1766 19.5926 12.1766 17.5284 12.1766 15.4653C12.1766 15.1842 12.1566 15.0354 11.8042 14.9967C10.8646 14.8925 10.2068 14.3712 9.90143 13.4738C9.58782 12.553 9.82861 11.7493 10.5075 11.0663C10.6719 10.9 10.8317 10.7278 11.0102 10.5755C11.3685 10.2545 11.9205 10.2838 12.2423 10.6411C12.5348 10.9667 12.5407 11.4576 12.2553 11.7903C12.1014 11.966 11.937 12.1336 11.7643 12.2917C11.5094 12.5401 11.4272 12.8095 11.6821 13.1001C11.9099 13.359 12.2012 13.3262 12.5231 13.0227C12.5971 12.9525 12.6687 12.8786 12.7415 12.806L21.6577 3.89669C22.3001 3.25471 22.6901 3.25119 23.3244 3.88498L32.3027 12.8576C32.3991 12.9677 32.506 13.0684 32.6199 13.1598C32.8207 13.3297 33.1214 13.3074 33.2964 13.1106C33.4914 12.9349 33.5161 12.6373 33.3505 12.4323C33.2812 12.3386 33.2025 12.2531 33.1156 12.1769C29.7716 8.83343 26.4276 5.49112 23.0812 2.1488C22.582 1.65091 22.42 1.64974 21.9266 2.14295C20.1648 3.90138 18.4029 5.66099 16.6411 7.42176C16.4156 7.64786 16.1713 7.83414 15.8436 7.81539C15.3596 7.79196 14.9873 7.3831 15.0108 6.90044C15.019 6.73057 15.0766 6.56773 15.1752 6.43067C15.2668 6.31586 15.3655 6.20925 15.4724 6.1085C17.1074 4.46839 18.7506 2.84468 20.3762 1.19871C20.8695 0.699648 21.3488 0.132638 22.0641 0.0272025C22.3554 -0.0126288 22.6513 -0.0114573 22.9426 0.0295455ZM13.9349 17.5413C13.9349 18.6097 13.9443 19.6781 13.9278 20.7465C13.9278 21.0288 13.9936 21.1155 14.2873 21.1132C15.7226 21.0968 17.1579 21.0933 18.5932 21.1132C18.9315 21.1132 18.9961 21.0206 18.9937 20.702C18.9785 18.7702 18.9785 16.8383 18.9937 14.9065C19.009 13.4925 20.1519 12.3491 21.5684 12.3292C22.1099 12.3187 22.6525 12.3292 23.194 12.3292C24.9112 12.3292 26.013 13.4339 26.013 15.1561C26.013 17.0305 26.0188 18.9049 26.0071 20.7793C26.0071 21.0464 26.067 21.1226 26.343 21.1202C27.7924 21.1038 29.243 21.1015 30.6889 21.1202C31.0178 21.1202 31.0612 21.0031 31.0589 20.7207C31.0483 18.6272 31.0483 16.5338 31.0589 14.4426C31.0706 14.2247 30.9849 14.0127 30.824 13.8639C28.1272 11.1776 25.4351 8.48666 22.7477 5.79102C22.5515 5.59304 22.4493 5.57547 22.2414 5.784C19.5564 8.48198 16.8643 11.1729 14.1639 13.8557C13.9948 14.0162 13.9055 14.2423 13.9208 14.4742C13.9408 15.4923 13.9349 16.5174 13.9349 17.5413ZM24.2581 17.9349C24.2581 16.9696 24.2652 16.0054 24.2581 15.0401C24.2581 14.4368 23.9058 14.0923 23.3032 14.0841C22.777 14.0771 22.2461 14.0841 21.7234 14.0841C21.0868 14.0841 20.7497 14.4227 20.7485 15.0612C20.7485 16.9614 20.7544 18.8627 20.7392 20.7629C20.7392 21.0675 20.8402 21.1144 21.1091 21.1144C22.0312 21.1003 22.9532 21.0898 23.8741 21.1144C24.2264 21.1261 24.2746 21.0042 24.2687 20.6961C24.2464 19.7765 24.2593 18.8604 24.2581 17.9349Z" fill="#020202"/>
<path d="M14.077 9.60687C13.6025 9.60687 13.2125 9.23082 13.1973 8.75753C13.2031 8.25495 13.6131 7.85078 14.1169 7.84961C14.5926 7.86015 14.9709 8.25261 14.9615 8.72707C14.965 9.20856 14.5774 9.60336 14.0935 9.60687C14.0876 9.60687 14.0829 9.60687 14.077 9.60687Z" fill="#030303"/>
<path d="M40.187 33.6452C40.1764 34.1197 39.7935 34.5016 39.3178 34.5133C38.8315 34.5039 38.4439 34.1033 38.4533 33.6183C38.4627 33.1333 38.8644 32.7467 39.3507 32.756C39.8252 32.7689 40.1999 33.1625 40.187 33.6358C40.187 33.6394 40.187 33.6417 40.187 33.6452Z" fill="#030303"/>
</g>
<defs>
<clipPath id="clip0_235_31">
<rect width="45" height="45" fill="white"/>
</clipPath>
</defs>
</svg>
