<svg width="33" height="49" viewBox="0 0 33 49" fill="none" xmlns="http://www.w3.org/2000/svg">
<g clip-path="url(#clip0_235_50)">
<path d="M16.992 0.0387062C17.9491 0.193531 18.4199 1.01508 18.7818 1.87708C19.2059 2.90227 19.7233 3.89538 20.1955 4.90663C20.252 5.08795 20.4174 5.21349 20.6083 5.22325C21.8919 5.36273 23.1699 5.53848 24.4535 5.67796C25.4233 5.78397 26.1429 6.22194 26.4652 7.1481C26.7876 8.07426 26.5105 8.86931 25.7952 9.51929C24.8494 10.3883 23.9064 11.26 22.9522 12.1192C22.7698 12.2531 22.6921 12.4861 22.7599 12.7009C23.0328 13.9939 23.2858 15.2897 23.5332 16.5868C23.7213 17.4056 23.389 18.255 22.6921 18.7363C22.046 19.2593 21.1413 19.336 20.4146 18.9287C19.2172 18.3053 18.0396 17.6483 16.8634 16.9872C16.6499 16.8435 16.37 16.8435 16.1565 16.9872C15.0383 17.619 13.9088 18.2313 12.7835 18.8506C11.9352 19.3123 11.104 19.3039 10.3307 18.7321C9.58001 18.1741 9.31424 17.4154 9.50509 16.4934C9.76238 15.2464 9.98151 13.9911 10.2501 12.7469C10.325 12.5042 10.2374 12.242 10.0296 12.0913C9.09794 11.2544 8.19176 10.3994 7.25589 9.55974C6.51935 8.89441 6.21965 8.09658 6.54904 7.14949C6.87843 6.20241 7.62063 5.7756 8.61022 5.67517C9.84579 5.54964 11.0757 5.3725 12.3113 5.23859C12.5502 5.2358 12.7608 5.08377 12.8386 4.8606C13.2839 3.87446 13.7844 2.90785 14.2056 1.91474C14.5732 1.04856 15.0397 0.194926 16.018 0.0387062C16.3403 -0.0129021 16.6697 -0.0129021 16.992 0.0387062ZM16.5015 14.7638C16.7743 14.7317 16.9949 14.8782 17.2182 15.0009C18.5005 15.6983 19.7784 16.4097 21.0593 17.1099C21.2006 17.1894 21.3519 17.3484 21.5385 17.1894C21.6898 17.0611 21.6191 16.9104 21.588 16.7458C21.3052 15.3259 21.0522 13.9004 20.7398 12.4875C20.6125 11.9156 20.7581 11.5111 21.1865 11.1345C22.2651 10.1749 23.3198 9.18175 24.3815 8.20537C24.5044 8.091 24.6953 7.99197 24.6317 7.77995C24.5681 7.56794 24.356 7.60281 24.1849 7.58189C22.7133 7.40196 21.2416 7.20668 19.7657 7.04767C19.2907 7.02396 18.8737 6.72407 18.7069 6.28471C18.1202 4.99589 17.5066 3.71824 16.8959 2.44058C16.8054 2.25228 16.7885 1.9524 16.4972 1.96495C16.206 1.9775 16.2046 2.27042 16.1141 2.46151C15.4978 3.7545 14.8856 5.05029 14.2763 6.34747C14.1194 6.74081 13.7462 7.01001 13.3193 7.03791C11.8151 7.21087 10.3194 7.40475 8.80672 7.58747C8.64697 7.607 8.4646 7.58747 8.39109 7.76461C8.30062 7.98081 8.49571 8.07844 8.6187 8.19282C9.71573 9.20546 10.8099 10.2181 11.9169 11.2182C12.2604 11.4971 12.4088 11.9477 12.2986 12.3731C12.0017 13.8223 11.7232 15.2743 11.4348 16.7263C11.4009 16.8951 11.3047 17.0708 11.497 17.2034C11.6893 17.3359 11.832 17.1741 11.9776 17.0946C13.2754 16.3916 14.5704 15.683 15.8639 14.9675C16.0632 14.8587 16.2569 14.7429 16.5015 14.7638Z" fill="#030303"/>
<path d="M1.96284 21.6027C1.96284 23.1481 1.96284 24.6113 1.96284 26.0731C1.96284 26.2781 2.07735 26.352 2.22013 26.4259C6.90513 28.9729 11.5887 31.5226 16.2709 34.0765C16.5296 34.216 16.695 34.1058 16.8816 33.9998C21.1849 31.6579 25.4698 29.2825 29.8057 27.0006C30.7656 26.4943 31.2095 25.974 31.078 24.8721C30.9578 23.8218 31.0525 22.7478 31.0525 21.6891C30.873 21.6445 30.7825 21.7575 30.6765 21.8147C26.2304 24.2319 21.7857 26.6533 17.3453 29.0761C16.7572 29.3983 16.2737 29.4262 15.6856 29.0761C14.5363 28.4024 13.3488 27.7929 12.1782 27.1554C11.7725 26.9337 11.552 26.5975 11.6227 26.1372C11.6905 25.6937 11.969 25.4398 12.4101 25.3366C12.7013 25.2724 12.9473 25.3896 13.189 25.5207C14.1362 26.034 15.089 26.5333 16.0164 27.0731C16.302 27.2754 16.6851 27.2796 16.9749 27.0843C21.7363 24.4746 26.5033 21.8746 31.2759 19.2873C31.3607 19.2412 31.4456 19.1952 31.5318 19.1478C32.2655 18.8019 32.9794 19.2189 32.9837 20.0251C32.9964 22.2736 32.9837 24.5206 32.9837 26.7691C32.9837 27.3144 32.6543 27.5906 32.2188 27.8263C29.1398 29.4945 26.0636 31.1683 22.9888 32.8477C21.0845 33.884 19.1718 34.9078 17.2803 35.9651C16.7431 36.265 16.2907 36.2762 15.7436 35.9791C10.7773 33.2606 5.80103 30.5518 0.812087 27.8542C0.246607 27.5502 0.00345065 27.1666 0.0119329 26.525C0.0402069 24.4216 0.0218288 22.3168 0.0232425 20.212C0.0232425 19.1631 0.730092 18.7516 1.66172 19.2566C2.8874 19.9219 4.11449 20.59 5.34441 21.2609C5.75155 21.4841 5.95089 21.8189 5.87172 22.2903C5.79821 22.7185 5.52112 22.9584 5.11115 23.063C4.80438 23.1411 4.54567 23.01 4.28555 22.8705C3.53487 22.4661 2.79409 22.056 1.96284 21.6027Z" fill="#030303"/>
<path d="M31.0514 34.3844C30.2201 34.8335 29.4624 35.2506 28.699 35.6551C28.0685 35.9884 27.5157 35.8657 27.2358 35.3496C26.9559 34.8335 27.1637 34.3188 27.7843 33.9785C28.9817 33.3215 30.1805 32.666 31.3808 32.0146C32.2855 31.525 32.9896 31.9448 32.991 32.97C32.991 35.1069 32.9797 37.2438 32.9995 39.3792C32.9995 39.9372 32.7945 40.3054 32.2926 40.5732C27.2415 43.3154 22.1931 46.0646 17.1448 48.8194C16.756 49.0593 16.2613 49.0593 15.8725 48.8194C10.8242 46.0632 5.7716 43.314 0.716207 40.5732C0.251099 40.3612 -0.030227 39.8855 0.00935655 39.382C0.0277347 37.2772 0.0659046 35.1711 -0.00478045 33.0691C-0.0401229 32.0369 0.798201 31.5348 1.71852 32.0425C6.47986 34.6829 11.2794 37.2577 16.0563 39.873C16.3319 40.0585 16.6967 40.0529 16.9681 39.8618C17.9153 39.3179 18.8837 38.8115 19.8464 38.2941C20.4458 37.9719 20.9774 38.0862 21.2728 38.587C21.5683 39.0877 21.376 39.6317 20.8021 39.9483C19.5637 40.6318 18.3182 41.2999 17.0812 41.9847C16.6316 42.233 16.233 42.1535 15.8089 41.9206C11.3402 39.4797 6.86863 37.0443 2.39285 34.6131C2.26986 34.5462 2.14404 34.4834 1.96026 34.3872C1.96026 35.9215 1.96026 37.3972 1.96026 38.8729C1.96026 39.1421 2.17232 39.1686 2.325 39.2523C6.20419 41.3668 10.0848 43.4786 13.9668 45.5862C14.7005 45.9851 15.4399 46.3756 16.1651 46.7899C16.3602 46.9308 16.6232 46.9405 16.8281 46.8122C21.4651 44.2778 26.1063 41.7504 30.7531 39.2286C30.9524 39.1198 31.0641 39.0152 31.0613 38.7613C31.0429 37.3275 31.0514 35.8922 31.0514 34.3844Z" fill="#030303"/>
<path d="M25.2326 36.9874C25.2086 37.5146 24.7548 37.9219 24.2204 37.8982C23.7143 37.8759 23.3114 37.4714 23.2973 36.9706C23.2817 36.4434 23.703 36.004 24.2374 35.9887C24.7718 35.9733 25.2171 36.389 25.2326 36.9163C25.2341 36.94 25.2341 36.9637 25.2326 36.9874Z" fill="#030303"/>
<path d="M9.71547 24.184C9.72819 24.7112 9.30408 25.1478 8.7697 25.1589C8.23533 25.1715 7.79284 24.753 7.78153 24.2272C7.76881 23.7 8.19292 23.2634 8.72729 23.2522C9.26026 23.2397 9.70275 23.6567 9.71547 24.184Z" fill="#030303"/>
</g>
<defs>
<clipPath id="clip0_235_50">
<rect width="33" height="49" fill="white"/>
</clipPath>
</defs>
</svg>
