<svg width="43" height="43" viewBox="0 0 43 43" fill="none" xmlns="http://www.w3.org/2000/svg">
<g clip-path="url(#clip0_235_46)">
<path d="M0.104331 32.2941C0.114432 32.0295 0.142491 31.2517 0.206466 31.0156C0.655412 29.3272 1.78675 28.2633 3.2997 27.5445C4.5343 26.9586 5.85757 26.6578 7.15502 26.2717C7.30654 26.2263 7.5355 26.2717 7.54785 25.9901C7.55907 25.7471 7.51193 25.5848 7.28185 25.4383C4.98437 23.9759 3.80252 21.8651 3.77446 19.1094C3.76211 17.9467 3.76099 16.7829 3.77446 15.6202C3.83282 11.8267 6.81831 8.74289 10.6557 8.5158C14.2214 8.2978 17.5975 11.0376 18.0442 14.6653C18.2945 16.7 18.3517 18.779 17.9623 20.8091C17.5773 22.812 16.419 24.329 14.7141 25.4088C14.4627 25.5677 14.3539 25.7233 14.3887 26.0106C14.4234 26.2978 14.6704 26.2376 14.8376 26.2876C15.2372 26.4136 15.6693 26.6589 16.0397 26.5885C16.41 26.5181 16.4314 25.939 16.6614 25.612C17.9578 23.7749 19.6806 22.9358 21.9018 23.1936C22.1206 23.231 22.3451 23.164 22.509 23.0119C23.6751 22.0445 24.3541 20.6014 24.3609 19.0753C24.3923 17.7015 24.3115 16.323 24.5214 14.956C24.7077 13.7422 25.0376 12.5716 25.6808 11.5258C27.0994 9.21182 29.2005 8.25011 31.8324 8.44427C35.2422 8.6952 37.1502 11.0217 37.7944 14.1555C38.1109 15.6838 38.0481 17.2303 38.0559 18.7756C38.0627 20.1074 38.4072 21.3212 39.2737 22.3499C40.0291 23.2458 40.9988 23.8203 42.0718 24.2325C42.2154 24.287 42.3636 24.3324 42.5016 24.3982C42.8821 24.5595 43.083 24.9819 42.9697 25.3827C42.6329 26.7134 42.1436 27.9522 40.8517 28.6459C40.6621 28.747 40.7395 28.8196 40.8327 28.9241C41.8316 29.9982 42.1795 31.3085 42.1795 32.7448C42.1795 35.1145 42.1795 37.4841 42.1795 39.8526C42.1795 40.6474 41.9056 40.9234 41.12 40.9234C37.6205 40.9234 34.1221 40.929 30.6225 40.9154C30.2634 40.9154 30.1287 40.9744 30.1365 41.3843C30.1635 42.9081 30.058 42.9978 28.5574 42.9978H25.3654C25.2677 42.9978 25.169 42.9978 25.0713 42.9978C24.4563 42.9796 24.0915 42.6515 24.1027 42.1269C24.1128 41.625 24.4798 41.3014 25.0702 41.2969C26.0635 41.2901 27.0579 41.2753 28.0501 41.3049C28.4182 41.3162 28.499 41.1913 28.4721 40.8507C28.453 40.4124 28.398 39.9764 28.3105 39.5461C28.1365 38.7467 27.6325 38.0609 26.9266 37.6624C26.1331 37.1935 25.243 36.9811 24.3867 36.6961C24.2004 36.6348 24.1745 36.745 24.1207 36.8596C23.5236 38.1381 22.4809 38.7365 21.1329 38.7456C19.785 38.7547 18.822 38.0882 18.2294 36.8687C18.1609 36.7268 18.1228 36.6416 17.9275 36.7052C17.2361 36.9255 16.5369 37.1231 15.8713 37.4194C14.2405 38.1461 13.8656 39.378 13.869 41.0903C13.869 41.3537 14.0531 41.2901 14.1922 41.2901C15.144 41.2901 16.1003 41.2901 17.0475 41.2901C17.1732 41.2901 17.3001 41.2844 17.4247 41.2969C17.914 41.3435 18.2384 41.6943 18.2294 42.1598C18.2294 42.6072 17.8747 42.9728 17.4325 42.9808C17.0958 43.0046 16.7591 42.9932 16.4224 42.9932C15.3303 42.9932 14.2383 43.0023 13.1473 42.9932C12.5065 42.9864 12.2023 42.6628 12.1866 42.019C12.1787 41.6671 12.1002 41.3026 11.9991 41.1493C11.8263 40.8893 11.438 40.9222 11.0777 40.9222C7.74651 40.9165 4.41533 40.9109 1.08864 40.9222C0.58358 40.9222 0.225546 40.7689 0.00219601 40.3114C-4.87129e-05 37.4546 -0.0180065 35.2507 0.104331 32.2941ZM1.6835 35.3904C1.6835 36.7098 1.69135 37.802 1.67789 38.8932C1.67789 39.1441 1.72053 39.2338 1.99327 39.2281C2.67791 39.2054 3.3648 39.1986 4.04832 39.2281C4.4086 39.244 4.52083 39.1589 4.50849 38.774C4.47706 37.7975 4.48604 36.8176 4.50849 35.8389C4.51859 35.2144 4.96641 34.8442 5.52535 34.9566C5.92828 35.0384 6.17632 35.3847 6.18081 35.915C6.18867 36.8937 6.19428 37.8724 6.18081 38.85C6.18081 39.1407 6.24142 39.2304 6.54221 39.2281C8.37503 39.2123 10.2079 39.2168 12.0418 39.2281C12.2809 39.2281 12.4009 39.1873 12.475 38.9136C12.7915 37.7396 13.4975 36.8574 14.5278 36.2329C15.4605 35.6652 16.5009 35.387 17.5223 35.0554C17.6805 35.0032 17.9443 35.0554 17.9499 34.8102C17.9566 34.5218 18.0678 34.2197 17.7524 33.9609C16.7961 33.1774 16.144 32.0783 15.9106 30.8566C15.7579 30.1288 15.7983 29.3885 15.8118 28.6527C15.8118 28.4143 15.7613 28.2939 15.5211 28.2428C15.1923 28.1792 14.869 28.0884 14.5536 27.9737C14.291 27.8727 14.2169 27.9737 14.1047 28.2008C13.4649 29.5554 12.3908 30.2877 10.9104 30.2639C9.48392 30.2401 8.46482 29.4963 7.83405 28.2008C7.77906 28.0873 7.82058 27.8602 7.55683 27.9385C6.19315 28.3405 4.79132 28.6357 3.5354 29.351C2.52527 29.9267 1.88328 30.7748 1.74972 31.9625C1.60381 33.1786 1.7239 34.4037 1.6835 35.3904ZM40.4993 35.5891C40.4993 34.6807 40.4746 33.7724 40.5049 32.864C40.5655 31.0133 39.7395 29.7666 38.0773 29.0399C37.0346 28.5857 35.9336 28.3223 34.8572 27.9805C34.5452 27.8806 34.4509 27.9805 34.3207 28.2542C33.7461 29.46 32.7808 30.1549 31.4654 30.2525C30.1668 30.3491 29.1399 29.7984 28.3711 28.7299C28.1814 28.4665 28.1848 27.9942 27.8525 27.9431C27.5506 27.8965 27.2162 28.1213 26.8884 28.1792C26.5854 28.2326 26.5315 28.3813 26.536 28.6686C26.5495 29.418 26.5955 30.1731 26.4305 30.9145C26.1881 32.1067 25.5472 33.1786 24.6156 33.9495C24.3081 34.2039 24.3912 34.5059 24.4001 34.7988C24.408 35.0486 24.665 35.0021 24.821 35.0566C25.3227 35.2291 25.8312 35.3802 26.3329 35.5527C28.059 36.1477 29.425 37.1276 29.9065 39.034C29.9615 39.252 30.1085 39.2259 30.2611 39.2259C32.0659 39.2259 33.8718 39.2202 35.6765 39.2327C35.9515 39.2327 36.0278 39.1589 36.0233 38.8807C36.0065 37.8736 36.0233 36.8664 36.0155 35.8593C36.0155 35.4244 36.1962 35.1145 36.6014 34.9805C37.1794 34.7897 37.6878 35.2201 37.6945 35.9013C37.7035 36.9085 37.7035 37.9156 37.6945 38.9227C37.6945 39.1577 37.7484 39.2372 37.992 39.2316C38.7193 39.2157 39.451 39.2088 40.1738 39.2316C40.4724 39.2418 40.5106 39.126 40.5106 38.8694C40.4903 37.7737 40.4971 36.6814 40.4971 35.5891H40.4993ZM10.9812 24.7763C11.5401 24.7752 12.0957 24.6901 12.6299 24.5254C15.0318 23.7454 16.6154 21.428 16.4875 18.8789C16.474 18.519 16.4347 18.3816 16.0194 18.3884C13.6905 18.4247 11.4256 18.1079 9.33016 16.9873C9.15507 16.8942 9.06079 16.9396 8.93284 17.0531C8.19321 17.7083 7.29981 18.0148 6.35141 18.1886C5.44005 18.3509 5.43893 18.3418 5.45352 19.257C5.48719 22.3193 7.95414 24.782 10.9812 24.7763ZM31.214 16.3128C30.0355 17.6617 28.5641 18.2056 26.8491 18.1295C26.0242 18.0943 26.0242 18.0841 26.05 18.9425C26.1252 21.8356 28.5046 24.1189 31.3644 24.0429C31.7258 24.0338 32.085 23.9849 32.4363 23.8998C34.9055 23.2923 36.58 20.9125 36.3791 18.3101C36.3567 18.0069 36.1883 18.0955 36.0424 18.1091C34.1703 18.2805 32.5294 17.8014 31.214 16.3128ZM15.3157 16.6841C15.5671 16.6841 15.8881 16.6762 16.2136 16.6841C16.3966 16.6909 16.4998 16.6603 16.4875 16.4354C16.4617 15.9813 16.5009 15.5271 16.4403 15.0729C16.0262 11.9675 13.2977 9.8874 10.1674 10.2655C7.34582 10.6061 5.18303 13.4084 5.45352 16.3662C5.46923 16.5376 5.51412 16.5853 5.67799 16.5603C6.48497 16.4377 7.27511 16.2742 7.91037 15.6963C8.89805 14.7982 8.89356 14.805 10.0833 15.4522C11.6882 16.3355 13.4391 16.6285 15.3157 16.6841ZM35.4352 16.4457C35.589 16.4343 35.8123 16.4003 36.0357 16.4037C36.323 16.4093 36.378 16.2765 36.3533 16.0119C36.2624 15.0491 36.121 14.0999 35.7652 13.1961C35.1097 11.5304 33.9548 10.4563 32.1736 10.1928C30.2533 9.91011 28.5821 10.3734 27.3823 12.0243C26.499 13.2403 26.1937 14.6574 26.096 16.1346C26.0859 16.2924 26.1275 16.3719 26.2891 16.3912C27.7908 16.5762 29.3868 16.3299 30.3678 14.5574C30.5642 14.2043 30.7819 13.9216 31.2264 13.9239C31.6517 13.9239 31.8762 14.1884 32.0603 14.5302C32.773 15.8564 33.9054 16.4423 35.4352 16.4457ZM21.1711 28.7447C19.9522 28.7515 18.7569 29.0865 17.7075 29.7155C17.5391 29.7904 17.4449 29.9744 17.483 30.156C17.6895 32.0488 19.2474 33.5033 21.0937 33.5169C22.9972 33.5555 24.619 32.1271 24.8446 30.2151C24.8783 29.9471 24.793 29.8086 24.5696 29.678C23.5348 29.0762 22.3642 28.7549 21.1711 28.7447ZM37.167 22.2455C36.6754 23.0811 36.1333 23.8351 35.3611 24.3006C34.7281 24.6832 34.5833 25.1544 34.6395 25.8232C34.6619 26.1014 34.7416 26.207 34.9975 26.2774C36.2501 26.618 37.5116 26.928 38.7013 27.4594C38.7765 27.4934 38.8596 27.5071 38.9415 27.4991C39.8977 27.3561 40.6632 26.9496 41.0313 25.9674C41.1144 25.7403 41.0807 25.6631 40.8675 25.5655C39.3152 24.857 38.0301 23.8283 37.167 22.2455ZM24.7571 27.8454C24.4675 26.0231 22.7054 24.6855 20.8759 24.8399C19.2294 24.9785 17.6211 26.4454 17.6211 27.8307C19.9848 26.7713 22.3529 26.7736 24.7571 27.8454ZM29.48 25.5394C29.48 26.0401 29.4564 26.5079 29.48 26.9711C29.5327 27.817 30.2656 28.5142 31.1085 28.5664C31.9379 28.6175 32.7348 28.0305 32.9043 27.2209C32.9503 26.9711 32.9694 26.7157 32.9604 26.4613C32.9604 26.1695 33.0895 25.7971 32.8976 25.6075C32.7382 25.4485 32.4026 25.6518 32.1456 25.6915C31.2578 25.8278 30.3779 25.7347 29.48 25.5394ZM23.9983 23.9407C24.6403 24.3755 25.1981 24.9251 25.646 25.5621C25.8805 25.8959 25.8963 26.4886 26.2958 26.5533C26.6954 26.618 27.1219 26.3591 27.5371 26.2422C27.591 26.2274 27.6427 26.2047 27.6965 26.1922C27.7515 26.1831 27.7908 26.1343 27.7897 26.0787C27.7897 25.6824 27.829 25.2839 27.774 24.8933C27.7425 24.6662 27.4451 24.6162 27.2689 24.4868C26.4563 23.8862 25.7739 23.1254 25.2621 22.2489C24.9209 22.87 24.4955 23.4388 23.9983 23.9407ZM9.24598 26.2785C9.19772 26.6055 9.21007 26.9382 9.2819 27.2607C9.52321 28.1633 10.4177 28.7186 11.3224 28.5278C12.2517 28.3132 12.8589 27.4083 12.7141 26.4557C12.6894 26.2922 12.6333 26.2819 12.4975 26.3126C11.4245 26.5465 10.3134 26.5351 9.24598 26.2785ZM22.7144 35.4381C22.6246 35.337 22.8984 34.96 22.4663 35.0656C21.6077 35.2825 20.7098 35.278 19.8534 35.0543C19.6817 35.01 19.6458 35.0713 19.629 35.2394C19.5448 36.2272 20.1374 36.9993 21.0353 37.0561C22.0106 37.1083 22.6863 36.469 22.7099 35.4381H22.7144Z" fill="#030303"/>
<path d="M19.0809 0.0212294C19.8721 0.00306244 20.6454 0.258535 21.2728 0.745636C21.4973 0.915951 21.6095 0.906867 21.834 0.745636C23.0765 -0.138867 24.4155 -0.250139 25.7466 0.462913C27.0777 1.17596 27.7332 2.37271 27.704 3.90895C27.6883 4.80254 27.3886 5.62119 26.7612 6.25249C25.2449 7.78191 23.7005 9.28296 22.1595 10.7829C21.7757 11.1553 21.3368 11.1507 20.9608 10.7829C19.4378 9.3068 17.8889 7.84436 16.4186 6.31153C15.3097 5.15679 15.0954 3.7341 15.7239 2.26144C16.3524 0.788782 17.523 0.0882199 19.0809 0.0212294ZM18.899 1.73119C18.2133 1.75617 17.5904 2.17287 17.2368 2.96654C16.8967 3.74545 17.0808 4.65607 17.6947 5.23741C18.9125 6.44551 20.1482 7.63658 21.3705 8.84241C21.5063 8.97639 21.5804 9.00591 21.733 8.85376C22.9676 7.62636 24.2336 6.42167 25.4604 5.18177C26.2314 4.39719 26.2337 3.13118 25.466 2.34319C24.7073 1.55633 23.4704 1.51319 22.6601 2.24554C22.4816 2.4045 22.3234 2.58617 22.1438 2.744C21.8161 3.06419 21.2975 3.06419 20.9698 2.744C20.7891 2.58731 20.6241 2.41245 20.449 2.25008C20.0697 1.89356 19.6095 1.72211 18.9035 1.73119H18.899Z" fill="#030303"/>
<path d="M10.9774 23.017C10.2725 23.0148 9.59125 22.7548 9.06262 22.2824C8.67428 21.9304 8.61367 21.449 8.89651 21.0732C9.19955 20.6792 9.67318 20.6372 10.1199 20.9665C10.7608 21.4365 11.167 21.4343 11.8236 20.954C12.2513 20.6417 12.7215 20.6803 13.0189 21.0539C13.3164 21.4274 13.2569 21.9214 12.8888 22.2688C12.3601 22.74 11.6822 23.0046 10.9774 23.017Z" fill="#030303"/>
</g>
<defs>
<clipPath id="clip0_235_46">
<rect width="43" height="43" fill="white"/>
</clipPath>
</defs>
</svg>
