<svg width="50" height="51" viewBox="0 0 50 51" fill="none" xmlns="http://www.w3.org/2000/svg">
<path d="M25 20.291V26.1035L27.9167 29.0202" stroke="#1C2122" stroke-width="3" stroke-linecap="round" stroke-linejoin="round"/>
<path d="M11.459 25.1657C11.459 17.6865 17.5215 11.624 25.0007 11.624C32.4798 11.624 38.5423 17.6865 38.5423 25.1657C38.5423 29.499 36.5007 33.374 33.334 35.8532H33.3132C31.0215 37.6449 28.1465 38.7074 25.0007 38.7074C21.8965 38.7074 19.0423 37.6657 16.7507 35.8949H16.7298C13.5215 33.4157 11.459 29.5407 11.459 25.1657Z" stroke="#1C2122" stroke-width="3" stroke-linecap="round" stroke-linejoin="round"/>
<path d="M16.7305 35.8952H16.7513C19.043 37.666 21.8971 38.7077 25.0013 38.7077C28.1471 38.7077 31.0221 37.6452 33.3138 35.8535H33.3346L32.2721 40.9994C31.2513 44.9577 28.9596 45.9994 26.1471 45.9994H23.8763C21.0638 45.9994 18.7513 44.9577 17.7513 40.9785L16.7305 35.8952Z" stroke="#1C2122" stroke-width="3" stroke-linecap="round" stroke-linejoin="round"/>
<path d="M16.7305 14.4372H16.7513C19.043 12.6663 21.8971 11.6247 25.0013 11.6247C28.1471 11.6247 31.0221 12.6872 33.3138 14.4788H33.3346L32.2721 9.33301C31.2513 5.37467 28.9596 4.33301 26.1471 4.33301H23.8763C21.0638 4.33301 18.7513 5.37467 17.7513 9.35384L16.7305 14.4372Z" stroke="#1C2122" stroke-width="3" stroke-linecap="round" stroke-linejoin="round"/>
</svg>
