<svg width="50" height="64" viewBox="0 0 50 64" fill="none" xmlns="http://www.w3.org/2000/svg">
<path d="M49.8112 25.5501C49.8112 39.2652 24.9779 63.2296 24.9779 63.2296C24.9779 63.2296 0.144531 39.2652 0.144531 25.5501C0.144531 11.8351 11.2628 0.716797 24.9779 0.716797C38.6929 0.716797 49.8112 11.8351 49.8112 25.5501Z" fill="#95CB35"/>
<path d="M43.5742 23.7998C43.5742 34.0693 35.249 42.3945 24.9795 42.3945C14.7099 42.3945 6.38477 34.0693 6.38477 23.7998C6.38477 13.5302 14.7099 5.20508 24.9795 5.20508C35.249 5.20508 43.5742 13.5302 43.5742 23.7998Z" fill="#FCFCF7"/>
<path d="M26.7976 28.6117H24.0067L21.0618 24.3002V28.6117H18.6365V24.3002L15.6916 28.6117H12.9199L16.3845 23.742L13.1124 18.9878H15.8841L18.6365 23.1646V18.9878H21.0618V23.1646L23.8142 18.9878H26.6051L23.3137 23.742L26.7976 28.6117Z" fill="#95CB35"/>
<path d="M37.0392 28.6117H34.1521L30.649 24.2424V28.6117H28.166V18.9878H30.649V23.2223L33.9596 18.9878H36.9238L33.0549 23.742L37.0392 28.6117Z" fill="#95CB35"/>
</svg>
