<svg width="32" height="32" viewBox="0 0 32 32" fill="none" xmlns="http://www.w3.org/2000/svg">
<path d="M0.423828 10.5712C0.423828 6.83332 0.423828 4.96439 1.16279 3.54182C1.78551 2.34303 2.76296 1.36559 3.96174 0.742872C5.38431 0.00390625 7.25325 0.00390625 10.9911 0.00390625H21.3615C25.0994 0.00390625 26.9683 0.00390625 28.3909 0.742872C29.5897 1.36559 30.5671 2.34303 31.1898 3.54182C31.9288 4.96439 31.9288 6.83332 31.9288 10.5712V20.9416C31.9288 24.6795 31.9288 26.5484 31.1898 27.971C30.5671 29.1697 29.5897 30.1472 28.3909 30.7699C26.9683 31.5089 25.0994 31.5089 21.3615 31.5089H10.9911C7.25325 31.5089 5.38431 31.5089 3.96174 30.7699C2.76296 30.1472 1.78551 29.1697 1.16279 27.971C0.423828 26.5484 0.423828 24.6795 0.423828 20.9416V10.5712Z" fill="url(#paint0_linear_39_682)"/>
<path fill-rule="evenodd" clip-rule="evenodd" d="M17.0919 4.33026C19.8806 4.46732 22.4791 5.61728 24.4638 7.60332C26.5808 9.72166 27.7461 12.5375 27.7449 15.532C27.7424 21.7115 22.7118 26.7394 16.5319 26.7394H16.5273C14.6506 26.7388 12.8066 26.2682 11.1688 25.3753L5.22461 26.9338L6.81542 21.1261C5.83416 19.4265 5.31782 17.4985 5.31863 15.5231C5.32111 9.34382 10.3513 4.31641 16.5318 4.31641L17.0919 4.33026ZM11.4442 23.3463L11.7846 23.5482C13.2155 24.3969 14.8557 24.846 16.5281 24.8466H16.5319C21.6688 24.8466 25.8496 20.6678 25.8517 15.5314C25.8526 13.0424 24.8842 10.702 23.1246 8.94123C21.3649 7.1804 19.0249 6.21014 16.5356 6.20933C11.3948 6.20933 7.21389 10.3878 7.21184 15.5238C7.21114 17.284 7.70385 18.9981 8.63678 20.4812L8.85838 20.8337L7.91687 24.2711L11.4442 23.3463ZM22.1809 18.1971C22.1109 18.0802 21.9242 18.0102 21.644 17.87C21.3638 17.7298 19.9864 17.0524 19.7295 16.9588C19.4727 16.8655 19.2859 16.8188 19.0992 17.0991C18.9124 17.3794 18.3755 18.0102 18.212 18.1971C18.0486 18.384 17.8851 18.4074 17.605 18.2672C17.3248 18.1271 16.4221 17.8313 15.3519 16.8773C14.519 16.1347 13.9567 15.2177 13.7932 14.9373C13.6298 14.657 13.7758 14.5054 13.9161 14.3658C14.0421 14.2403 14.1963 14.0387 14.3364 13.8752C14.4765 13.7117 14.5231 13.5948 14.6166 13.408C14.7099 13.2211 14.6632 13.0576 14.5932 12.9174C14.5231 12.7772 13.9628 11.3988 13.7294 10.8381C13.5019 10.2921 13.2709 10.366 13.0989 10.3574C12.9357 10.3493 12.7488 10.3475 12.562 10.3475C12.3752 10.3475 12.0717 10.4175 11.8148 10.698C11.558 10.9783 10.8342 11.6558 10.8342 13.0341C10.8342 14.4126 11.8382 15.7441 11.9783 15.931C12.1184 16.118 13.9539 18.9464 16.7645 20.1595C17.4329 20.448 17.9548 20.6203 18.3617 20.7494C19.0329 20.9625 19.6437 20.9325 20.1264 20.8603C20.6647 20.78 21.7841 20.1829 22.0176 19.5288C22.251 18.8746 22.251 18.3139 22.1809 18.1971Z" fill="white"/>
<defs>
<linearGradient id="paint0_linear_39_682" x1="16.1763" y1="31.5089" x2="16.1763" y2="0.00390625" gradientUnits="userSpaceOnUse">
<stop stop-color="#25CF43"/>
<stop offset="1" stop-color="#61FD7D"/>
</linearGradient>
</defs>
</svg>
