<svg width="32" height="32" viewBox="0 0 32 32" fill="none" xmlns="http://www.w3.org/2000/svg">
<g clip-path="url(#clip0_39_683)">
<path fill-rule="evenodd" clip-rule="evenodd" d="M11.6764 0.466797H21.183C29.863 0.466797 31.9297 2.53346 31.9297 11.2135V20.7201C31.9297 29.4001 29.863 31.4668 21.183 31.4668H11.6764C2.99635 31.4668 0.929688 29.4001 0.929688 20.7201V11.2135C0.929688 2.53346 2.99635 0.466797 11.6764 0.466797Z" fill="#2787F5"/>
<path fill-rule="evenodd" clip-rule="evenodd" d="M26.3167 11.1473C26.4603 10.6683 26.3167 10.3164 25.6331 10.3164H23.3727C22.7979 10.3164 22.533 10.6204 22.3892 10.9557C22.3892 10.9557 21.2397 13.7576 19.6113 15.5776C19.0845 16.1044 18.845 16.272 18.5576 16.272C18.414 16.272 18.206 16.1044 18.206 15.6255V11.1473C18.206 10.5726 18.0392 10.3164 17.5602 10.3164H14.0081C13.6489 10.3164 13.4329 10.5832 13.4329 10.836C13.4329 11.3808 14.2471 11.5065 14.331 13.0391V16.3678C14.331 17.0977 14.1992 17.23 13.9118 17.23C13.1455 17.23 11.2815 14.4156 10.176 11.1952C9.95934 10.5693 9.74203 10.3164 9.16433 10.3164H6.90391C6.25808 10.3164 6.12891 10.6204 6.12891 10.9557C6.12891 11.5544 6.89524 14.5239 9.69707 18.4513C11.5649 21.1334 14.1967 22.5872 16.5914 22.5872C18.0282 22.5872 18.206 22.2643 18.206 21.7081V19.681C18.206 19.0352 18.3421 18.9063 18.7971 18.9063C19.1324 18.9063 19.7071 19.0739 21.0482 20.3671C22.5808 21.8997 22.8335 22.5872 23.6956 22.5872H25.956C26.6018 22.5872 26.9248 22.2643 26.7385 21.6271C26.5346 20.9919 25.8029 20.0704 24.8319 18.9781C24.305 18.3555 23.5148 17.685 23.2753 17.3496C22.94 16.9186 23.0358 16.727 23.2753 16.3439C23.2753 16.3439 26.0293 12.4644 26.3167 11.1473Z" fill="white"/>
</g>
<defs>
<clipPath id="clip0_39_683">
<rect width="31" height="31" fill="white" transform="translate(0.929688 0.466797)"/>
</clipPath>
</defs>
</svg>
