<svg width="33" height="32" viewBox="0 0 33 32" fill="none" xmlns="http://www.w3.org/2000/svg">
<g clip-path="url(#clip0_39_680)">
<path d="M0.917969 10.5712C0.917969 6.83332 0.917969 4.96439 1.65693 3.54182C2.27965 2.34303 3.2571 1.36559 4.45588 0.742872C5.87845 0.00390625 7.74739 0.00390625 11.4853 0.00390625H21.8556C25.5935 0.00390625 27.4625 0.00390625 28.885 0.742872C30.0838 1.36559 31.0612 2.34303 31.684 3.54182C32.4229 4.96439 32.4229 6.83332 32.4229 10.5712V20.9416C32.4229 24.6795 32.4229 26.5484 31.684 27.971C31.0612 29.1697 30.0838 30.1472 28.885 30.7699C27.4625 31.5089 25.5935 31.5089 21.8556 31.5089H11.4853C7.74739 31.5089 5.87845 31.5089 4.45588 30.7699C3.2571 30.1472 2.27965 29.1697 1.65693 27.971C0.917969 26.5484 0.917969 24.6795 0.917969 20.9416V10.5712Z" fill="url(#paint0_linear_39_680)"/>
<path d="M13.061 24.1255C12.4231 24.1255 12.5314 23.8846 12.3114 23.2772L10.4355 17.1035L24.8753 8.53711" fill="#C8DAEA"/>
<path d="M13.0605 24.1254C13.5528 24.1254 13.7703 23.9003 14.0451 23.6332L16.6705 21.0803L13.3956 19.1055" fill="#A9C9DD"/>
<path d="M13.3962 19.106L21.3315 24.9687C22.237 25.4683 22.8906 25.2096 23.1161 24.128L26.3462 8.90665C26.6769 7.58078 25.8408 6.97943 24.9745 7.37271L6.00758 14.6863C4.7129 15.2056 4.72045 15.9279 5.77158 16.2497L10.6389 17.7689L21.9074 10.6598C22.4393 10.3372 22.9276 10.5106 22.5268 10.8663" fill="url(#paint1_linear_39_680)"/>
</g>
<defs>
<linearGradient id="paint0_linear_39_680" x1="21.9223" y1="5.25578" x2="14.0461" y2="23.6326" gradientUnits="userSpaceOnUse">
<stop stop-color="#37AEE2"/>
<stop offset="1" stop-color="#1E96C8"/>
</linearGradient>
<linearGradient id="paint1_linear_39_680" x1="19.1335" y1="15.1004" x2="22.2149" y2="22.1124" gradientUnits="userSpaceOnUse">
<stop stop-color="#EFF7FC"/>
<stop offset="1" stop-color="white"/>
</linearGradient>
<clipPath id="clip0_39_680">
<rect width="31.505" height="31.505" fill="white" transform="translate(0.917969 0.00390625)"/>
</clipPath>
</defs>
</svg>
