<svg width="50" height="63" viewBox="0 0 50 63" fill="none" xmlns="http://www.w3.org/2000/svg">
<path d="M49.6667 24.8333C49.6667 38.5484 24.8333 62.5128 24.8333 62.5128C24.8333 62.5128 0 38.5484 0 24.8333C0 11.1183 11.1183 0 24.8333 0C38.5484 0 49.6667 11.1183 49.6667 24.8333Z" fill="#95CB35"/>
<circle cx="24.8349" cy="23.083" r="18.5947" fill="#FCFCF7"/>
<g clip-path="url(#clip0_218_157)">
<path d="M24.1545 35.0831V28.4608C23.7186 28.6322 23.3019 28.8282 22.8677 28.9615C19.7204 29.9306 16.3455 28.1503 15.2219 24.9406C14.1073 21.7568 15.4647 18.2637 18.3935 16.7962C18.4615 16.7689 18.5212 16.723 18.5663 16.6634C18.6114 16.6038 18.6403 16.5327 18.6498 16.4576C18.8751 15.1543 19.4765 13.9533 20.3741 13.0138C21.2717 12.0744 22.423 11.4412 23.6751 11.1982C27.059 10.5202 30.4067 12.9087 31.0063 16.4347C31.0385 16.6248 31.1193 16.724 31.2887 16.8068C33.6878 18.0037 35.1039 20.6944 34.7894 23.4444C34.4681 26.2655 32.3999 28.5829 29.7325 29.1041C28.3647 29.3848 26.9459 29.1795 25.7038 28.5213C25.6508 28.4942 25.5971 28.4684 25.5057 28.4232V35.0831H24.1545ZM28.5383 20.7754C28.4361 20.8341 28.3582 20.8799 28.2791 20.9233C27.409 21.3982 26.5395 21.8748 25.6671 22.3462C25.5576 22.4049 25.5028 22.4689 25.5034 22.6115C25.5096 23.9316 25.5034 25.2529 25.5136 26.5713C25.5191 26.6253 25.5352 26.6775 25.561 26.7248C25.5867 26.772 25.6215 26.8133 25.6632 26.846C26.9212 27.7646 28.3017 28.044 29.7929 27.6443C33.1858 26.7333 34.5997 22.4918 32.4834 19.5926C31.8805 18.7547 31.0431 18.1311 30.086 17.807C29.8601 17.729 29.7709 17.6186 29.7613 17.3733C29.7465 17.085 29.7087 16.7986 29.6484 16.5168C29.0273 13.4475 25.7524 11.6478 22.9772 12.8775C21.1517 13.6852 20.1247 15.1492 19.9186 17.2071C19.8841 17.5499 19.8 17.7254 19.4544 17.8599C16.2411 19.1072 15.1671 23.0529 17.2524 25.8722C18.8412 28.0194 21.9676 28.4596 24.0336 26.8219C24.1005 26.7572 24.1409 26.6684 24.1466 26.5736C24.1607 26.2931 24.1466 26.0113 24.155 25.7301C24.1607 25.5916 24.1087 25.5253 23.9947 25.4636C23.1088 24.9858 22.2262 24.501 21.3409 24.0179C21.2703 23.9792 21.2014 23.9351 21.1201 23.887L21.7469 22.6543L24.1624 23.971V18.0911H25.5017V20.8464L27.9054 19.5369L28.5383 20.7754Z" fill="black"/>
</g>
<defs>
<clipPath id="clip0_218_157">
<rect width="20" height="24" fill="white" transform="translate(14.834 11.083)"/>
</clipPath>
</defs>
</svg>
