<svg width="1440" height="575" viewBox="0 0 1440 575" fill="none" xmlns="http://www.w3.org/2000/svg">
<g opacity="0.45">
<circle cx="356" cy="1.67969" r="1" fill="black"/>
<circle cx="356" cy="53.6797" r="1" fill="black"/>
<circle cx="356" cy="105.68" r="1" fill="black"/>
<circle cx="356" cy="157.68" r="1" fill="black"/>
<circle cx="356" cy="209.68" r="1" fill="black"/>
<circle cx="356" cy="261.68" r="1" fill="black"/>
<circle cx="356" cy="313.68" r="1" fill="black"/>
<circle cx="356" cy="365.68" r="1" fill="black"/>
<circle cx="356" cy="573.68" r="1" fill="black"/>
<circle cx="356" cy="417.68" r="1" fill="black"/>
<circle cx="356" cy="469.68" r="1" fill="black"/>
<circle cx="356" cy="521.68" r="1" fill="black"/>
<circle cx="304" cy="1.67969" r="1" fill="black"/>
<circle cx="1396" cy="1.67969" r="1" fill="black"/>
<circle cx="304" cy="53.6797" r="1" fill="black"/>
<circle cx="1396" cy="53.6797" r="1" fill="black"/>
<circle cx="304" cy="105.68" r="1" fill="black"/>
<circle cx="1396" cy="105.68" r="1" fill="black"/>
<circle cx="304" cy="157.68" r="1" fill="black"/>
<circle cx="1396" cy="157.68" r="1" fill="black"/>
<circle cx="304" cy="209.68" r="1" fill="black"/>
<circle cx="1396" cy="209.68" r="1" fill="black"/>
<circle cx="304" cy="261.68" r="1" fill="black"/>
<circle cx="1396" cy="261.68" r="1" fill="black"/>
<circle cx="304" cy="313.68" r="1" fill="black"/>
<circle cx="1396" cy="313.68" r="1" fill="black"/>
<circle cx="304" cy="365.68" r="1" fill="black"/>
<circle cx="1396" cy="365.68" r="1" fill="black"/>
<circle cx="304" cy="573.68" r="1" fill="black"/>
<circle cx="1396" cy="573.68" r="1" fill="black"/>
<circle cx="304" cy="417.68" r="1" fill="black"/>
<circle cx="1396" cy="417.68" r="1" fill="black"/>
<circle cx="304" cy="469.68" r="1" fill="black"/>
<circle cx="1396" cy="469.68" r="1" fill="black"/>
<circle cx="304" cy="521.68" r="1" fill="black"/>
<circle cx="1396" cy="521.68" r="1" fill="black"/>
<circle cx="252" cy="1.67969" r="1" fill="black"/>
<circle cx="1344" cy="1.67969" r="1" fill="black"/>
<circle cx="252" cy="53.6797" r="1" fill="black"/>
<circle cx="1344" cy="53.6797" r="1" fill="black"/>
<circle cx="252" cy="105.68" r="1" fill="black"/>
<circle cx="1344" cy="105.68" r="1" fill="black"/>
<circle cx="252" cy="157.68" r="1" fill="black"/>
<circle cx="1344" cy="157.68" r="1" fill="black"/>
<circle cx="252" cy="209.68" r="1" fill="black"/>
<circle cx="1344" cy="209.68" r="1" fill="black"/>
<circle cx="252" cy="261.68" r="1" fill="black"/>
<circle cx="1344" cy="261.68" r="1" fill="black"/>
<circle cx="252" cy="313.68" r="1" fill="black"/>
<circle cx="1344" cy="313.68" r="1" fill="black"/>
<circle cx="252" cy="365.68" r="1" fill="black"/>
<circle cx="1344" cy="365.68" r="1" fill="black"/>
<circle cx="252" cy="573.68" r="1" fill="black"/>
<circle cx="1344" cy="573.68" r="1" fill="black"/>
<circle cx="252" cy="417.68" r="1" fill="black"/>
<circle cx="1344" cy="417.68" r="1" fill="black"/>
<circle cx="252" cy="469.68" r="1" fill="black"/>
<circle cx="1344" cy="469.68" r="1" fill="black"/>
<circle cx="252" cy="521.68" r="1" fill="black"/>
<circle cx="1344" cy="521.68" r="1" fill="black"/>
<circle cx="200" cy="1.67969" r="1" fill="black"/>
<circle cx="1292" cy="1.67969" r="1" fill="black"/>
<circle cx="200" cy="53.6797" r="1" fill="black"/>
<circle cx="1292" cy="53.6797" r="1" fill="black"/>
<circle cx="200" cy="105.68" r="1" fill="black"/>
<circle cx="1292" cy="105.68" r="1" fill="black"/>
<circle cx="200" cy="157.68" r="1" fill="black"/>
<circle cx="1292" cy="157.68" r="1" fill="black"/>
<circle cx="200" cy="209.68" r="1" fill="black"/>
<circle cx="1292" cy="209.68" r="1" fill="black"/>
<circle cx="200" cy="261.68" r="1" fill="black"/>
<circle cx="1292" cy="261.68" r="1" fill="black"/>
<circle cx="200" cy="313.68" r="1" fill="black"/>
<circle cx="1292" cy="313.68" r="1" fill="black"/>
<circle cx="200" cy="365.68" r="1" fill="black"/>
<circle cx="1292" cy="365.68" r="1" fill="black"/>
<circle cx="200" cy="573.68" r="1" fill="black"/>
<circle cx="1292" cy="573.68" r="1" fill="black"/>
<circle cx="200" cy="417.68" r="1" fill="black"/>
<circle cx="1292" cy="417.68" r="1" fill="black"/>
<circle cx="200" cy="469.68" r="1" fill="black"/>
<circle cx="1292" cy="469.68" r="1" fill="black"/>
<circle cx="200" cy="521.68" r="1" fill="black"/>
<circle cx="1292" cy="521.68" r="1" fill="black"/>
<circle cx="148" cy="1.67969" r="1" fill="black"/>
<circle cx="1240" cy="1.67969" r="1" fill="black"/>
<circle cx="148" cy="53.6797" r="1" fill="black"/>
<circle cx="1240" cy="53.6797" r="1" fill="black"/>
<circle cx="148" cy="105.68" r="1" fill="black"/>
<circle cx="1240" cy="105.68" r="1" fill="black"/>
<circle cx="148" cy="157.68" r="1" fill="black"/>
<circle cx="1240" cy="157.68" r="1" fill="black"/>
<circle cx="148" cy="209.68" r="1" fill="black"/>
<circle cx="1240" cy="209.68" r="1" fill="black"/>
<circle cx="148" cy="261.68" r="1" fill="black"/>
<circle cx="1240" cy="261.68" r="1" fill="black"/>
<circle cx="148" cy="313.68" r="1" fill="black"/>
<circle cx="1240" cy="313.68" r="1" fill="black"/>
<circle cx="148" cy="365.68" r="1" fill="black"/>
<circle cx="1240" cy="365.68" r="1" fill="black"/>
<circle cx="148" cy="573.68" r="1" fill="black"/>
<circle cx="1240" cy="573.68" r="1" fill="black"/>
<circle cx="148" cy="417.68" r="1" fill="black"/>
<circle cx="1240" cy="417.68" r="1" fill="black"/>
<circle cx="148" cy="469.68" r="1" fill="black"/>
<circle cx="1240" cy="469.68" r="1" fill="black"/>
<circle cx="148" cy="521.68" r="1" fill="black"/>
<circle cx="1240" cy="521.68" r="1" fill="black"/>
<circle cx="96" cy="1.67969" r="1" fill="black"/>
<circle cx="1188" cy="1.67969" r="1" fill="black"/>
<circle cx="96" cy="53.6797" r="1" fill="black"/>
<circle cx="1188" cy="53.6797" r="1" fill="black"/>
<circle cx="96" cy="105.68" r="1" fill="black"/>
<circle cx="1188" cy="105.68" r="1" fill="black"/>
<circle cx="96" cy="157.68" r="1" fill="black"/>
<circle cx="1188" cy="157.68" r="1" fill="black"/>
<circle cx="96" cy="209.68" r="1" fill="black"/>
<circle cx="1188" cy="209.68" r="1" fill="black"/>
<circle cx="96" cy="261.68" r="1" fill="black"/>
<circle cx="1188" cy="261.68" r="1" fill="black"/>
<circle cx="96" cy="313.68" r="1" fill="black"/>
<circle cx="1188" cy="313.68" r="1" fill="black"/>
<circle cx="96" cy="365.68" r="1" fill="black"/>
<circle cx="1188" cy="365.68" r="1" fill="black"/>
<circle cx="96" cy="573.68" r="1" fill="black"/>
<circle cx="1188" cy="573.68" r="1" fill="black"/>
<circle cx="96" cy="417.68" r="1" fill="black"/>
<circle cx="1188" cy="417.68" r="1" fill="black"/>
<circle cx="96" cy="469.68" r="1" fill="black"/>
<circle cx="1188" cy="469.68" r="1" fill="black"/>
<circle cx="96" cy="521.68" r="1" fill="black"/>
<circle cx="1188" cy="521.68" r="1" fill="black"/>
<circle cx="44" cy="1.67969" r="1" fill="black"/>
<circle cx="1136" cy="1.67969" r="1" fill="black"/>
<circle cx="44" cy="53.6797" r="1" fill="black"/>
<circle cx="1136" cy="53.6797" r="1" fill="black"/>
<circle cx="44" cy="105.68" r="1" fill="black"/>
<circle cx="1136" cy="105.68" r="1" fill="black"/>
<circle cx="44" cy="157.68" r="1" fill="black"/>
<circle cx="1136" cy="157.68" r="1" fill="black"/>
<circle cx="44" cy="209.68" r="1" fill="black"/>
<circle cx="1136" cy="209.68" r="1" fill="black"/>
<circle cx="44" cy="261.68" r="1" fill="black"/>
<circle cx="1136" cy="261.68" r="1" fill="black"/>
<circle cx="44" cy="313.68" r="1" fill="black"/>
<circle cx="1136" cy="313.68" r="1" fill="black"/>
<circle cx="44" cy="365.68" r="1" fill="black"/>
<circle cx="1136" cy="365.68" r="1" fill="black"/>
<circle cx="44" cy="573.68" r="1" fill="black"/>
<circle cx="1136" cy="573.68" r="1" fill="black"/>
<circle cx="44" cy="417.68" r="1" fill="black"/>
<circle cx="1136" cy="417.68" r="1" fill="black"/>
<circle cx="44" cy="469.68" r="1" fill="black"/>
<circle cx="1136" cy="469.68" r="1" fill="black"/>
<circle cx="44" cy="521.68" r="1" fill="black"/>
<circle cx="1136" cy="521.68" r="1" fill="black"/>
<circle cx="1084" cy="1.67969" r="1" fill="black"/>
<circle cx="1084" cy="53.6797" r="1" fill="black"/>
<circle cx="1084" cy="105.68" r="1" fill="black"/>
<circle cx="1084" cy="157.68" r="1" fill="black"/>
<circle cx="1084" cy="209.68" r="1" fill="black"/>
<circle cx="1084" cy="261.68" r="1" fill="black"/>
<circle cx="1084" cy="313.68" r="1" fill="black"/>
<circle cx="1084" cy="365.68" r="1" fill="black"/>
<circle cx="1084" cy="573.68" r="1" fill="black"/>
<circle cx="1084" cy="417.68" r="1" fill="black"/>
<circle cx="1084" cy="469.68" r="1" fill="black"/>
<circle cx="1084" cy="521.68" r="1" fill="black"/>
<circle cx="1032" cy="1.67969" r="1" fill="black"/>
<circle cx="1032" cy="53.6797" r="1" fill="black"/>
<circle cx="1032" cy="105.68" r="1" fill="black"/>
<circle cx="1032" cy="157.68" r="1" fill="black"/>
<circle cx="1032" cy="209.68" r="1" fill="black"/>
<circle cx="1032" cy="261.68" r="1" fill="black"/>
<circle cx="1032" cy="313.68" r="1" fill="black"/>
<circle cx="1032" cy="365.68" r="1" fill="black"/>
<circle cx="1032" cy="573.68" r="1" fill="black"/>
<circle cx="1032" cy="417.68" r="1" fill="black"/>
<circle cx="1032" cy="469.68" r="1" fill="black"/>
<circle cx="1032" cy="521.68" r="1" fill="black"/>
<circle cx="980" cy="1.67969" r="1" fill="black"/>
<circle cx="980" cy="53.6797" r="1" fill="black"/>
<circle cx="980" cy="105.68" r="1" fill="black"/>
<circle cx="980" cy="157.68" r="1" fill="black"/>
<circle cx="980" cy="209.68" r="1" fill="black"/>
<circle cx="980" cy="261.68" r="1" fill="black"/>
<circle cx="980" cy="313.68" r="1" fill="black"/>
<circle cx="980" cy="365.68" r="1" fill="black"/>
<circle cx="980" cy="573.68" r="1" fill="black"/>
<circle cx="980" cy="417.68" r="1" fill="black"/>
<circle cx="980" cy="469.68" r="1" fill="black"/>
<circle cx="980" cy="521.68" r="1" fill="black"/>
<circle cx="928" cy="1.67969" r="1" fill="black"/>
<circle cx="928" cy="53.6797" r="1" fill="black"/>
<circle cx="928" cy="105.68" r="1" fill="black"/>
<circle cx="928" cy="157.68" r="1" fill="black"/>
<circle cx="928" cy="209.68" r="1" fill="black"/>
<circle cx="928" cy="261.68" r="1" fill="black"/>
<circle cx="928" cy="313.68" r="1" fill="black"/>
<circle cx="928" cy="365.68" r="1" fill="black"/>
<circle cx="928" cy="573.68" r="1" fill="black"/>
<circle cx="928" cy="417.68" r="1" fill="black"/>
<circle cx="928" cy="469.68" r="1" fill="black"/>
<circle cx="928" cy="521.68" r="1" fill="black"/>
<circle cx="876" cy="1.67969" r="1" fill="black"/>
<circle cx="876" cy="53.6797" r="1" fill="black"/>
<circle cx="876" cy="105.68" r="1" fill="black"/>
<circle cx="876" cy="157.68" r="1" fill="black"/>
<circle cx="876" cy="209.68" r="1" fill="black"/>
<circle cx="876" cy="261.68" r="1" fill="black"/>
<circle cx="876" cy="313.68" r="1" fill="black"/>
<circle cx="876" cy="365.68" r="1" fill="black"/>
<circle cx="876" cy="573.68" r="1" fill="black"/>
<circle cx="876" cy="417.68" r="1" fill="black"/>
<circle cx="876" cy="469.68" r="1" fill="black"/>
<circle cx="876" cy="521.68" r="1" fill="black"/>
<circle cx="824" cy="1.67969" r="1" fill="black"/>
<circle cx="824" cy="53.6797" r="1" fill="black"/>
<circle cx="824" cy="105.68" r="1" fill="black"/>
<circle cx="824" cy="157.68" r="1" fill="black"/>
<circle cx="824" cy="209.68" r="1" fill="black"/>
<circle cx="824" cy="261.68" r="1" fill="black"/>
<circle cx="824" cy="313.68" r="1" fill="black"/>
<circle cx="824" cy="365.68" r="1" fill="black"/>
<circle cx="824" cy="573.68" r="1" fill="black"/>
<circle cx="824" cy="417.68" r="1" fill="black"/>
<circle cx="824" cy="469.68" r="1" fill="black"/>
<circle cx="824" cy="521.68" r="1" fill="black"/>
<circle cx="772" cy="1.67969" r="1" fill="black"/>
<circle cx="772" cy="53.6797" r="1" fill="black"/>
<circle cx="772" cy="105.68" r="1" fill="black"/>
<circle cx="772" cy="157.68" r="1" fill="black"/>
<circle cx="772" cy="209.68" r="1" fill="black"/>
<circle cx="772" cy="261.68" r="1" fill="black"/>
<circle cx="772" cy="313.68" r="1" fill="black"/>
<circle cx="772" cy="365.68" r="1" fill="black"/>
<circle cx="772" cy="573.68" r="1" fill="black"/>
<circle cx="772" cy="417.68" r="1" fill="black"/>
<circle cx="772" cy="469.68" r="1" fill="black"/>
<circle cx="772" cy="521.68" r="1" fill="black"/>
<circle cx="720" cy="1.67969" r="1" fill="black"/>
<circle cx="720" cy="53.6797" r="1" fill="black"/>
<circle cx="720" cy="105.68" r="1" fill="black"/>
<circle cx="720" cy="157.68" r="1" fill="black"/>
<circle cx="720" cy="209.68" r="1" fill="black"/>
<circle cx="720" cy="261.68" r="1" fill="black"/>
<circle cx="720" cy="313.68" r="1" fill="black"/>
<circle cx="720" cy="365.68" r="1" fill="black"/>
<circle cx="720" cy="573.68" r="1" fill="black"/>
<circle cx="720" cy="417.68" r="1" fill="black"/>
<circle cx="720" cy="469.68" r="1" fill="black"/>
<circle cx="720" cy="521.68" r="1" fill="black"/>
<circle cx="668" cy="1.67969" r="1" fill="black"/>
<circle cx="668" cy="53.6797" r="1" fill="black"/>
<circle cx="668" cy="105.68" r="1" fill="black"/>
<circle cx="668" cy="157.68" r="1" fill="black"/>
<circle cx="668" cy="209.68" r="1" fill="black"/>
<circle cx="668" cy="261.68" r="1" fill="black"/>
<circle cx="668" cy="313.68" r="1" fill="black"/>
<circle cx="668" cy="365.68" r="1" fill="black"/>
<circle cx="668" cy="573.68" r="1" fill="black"/>
<circle cx="668" cy="417.68" r="1" fill="black"/>
<circle cx="668" cy="469.68" r="1" fill="black"/>
<circle cx="668" cy="521.68" r="1" fill="black"/>
<circle cx="616" cy="1.67969" r="1" fill="black"/>
<circle cx="616" cy="53.6797" r="1" fill="black"/>
<circle cx="616" cy="105.68" r="1" fill="black"/>
<circle cx="616" cy="157.68" r="1" fill="black"/>
<circle cx="616" cy="209.68" r="1" fill="black"/>
<circle cx="616" cy="261.68" r="1" fill="black"/>
<circle cx="616" cy="313.68" r="1" fill="black"/>
<circle cx="616" cy="365.68" r="1" fill="black"/>
<circle cx="616" cy="573.68" r="1" fill="black"/>
<circle cx="616" cy="417.68" r="1" fill="black"/>
<circle cx="616" cy="469.68" r="1" fill="black"/>
<circle cx="616" cy="521.68" r="1" fill="black"/>
<circle cx="564" cy="1.67969" r="1" fill="black"/>
<circle cx="564" cy="53.6797" r="1" fill="black"/>
<circle cx="564" cy="105.68" r="1" fill="black"/>
<circle cx="564" cy="157.68" r="1" fill="black"/>
<circle cx="564" cy="209.68" r="1" fill="black"/>
<circle cx="564" cy="261.68" r="1" fill="black"/>
<circle cx="564" cy="313.68" r="1" fill="black"/>
<circle cx="564" cy="365.68" r="1" fill="black"/>
<circle cx="564" cy="573.68" r="1" fill="black"/>
<circle cx="564" cy="417.68" r="1" fill="black"/>
<circle cx="564" cy="469.68" r="1" fill="black"/>
<circle cx="564" cy="521.68" r="1" fill="black"/>
<circle cx="512" cy="1.67969" r="1" fill="black"/>
<circle cx="512" cy="53.6797" r="1" fill="black"/>
<circle cx="512" cy="105.68" r="1" fill="black"/>
<circle cx="512" cy="157.68" r="1" fill="black"/>
<circle cx="512" cy="209.68" r="1" fill="black"/>
<circle cx="512" cy="261.68" r="1" fill="black"/>
<circle cx="512" cy="313.68" r="1" fill="black"/>
<circle cx="512" cy="365.68" r="1" fill="black"/>
<circle cx="512" cy="573.68" r="1" fill="black"/>
<circle cx="512" cy="417.68" r="1" fill="black"/>
<circle cx="512" cy="469.68" r="1" fill="black"/>
<circle cx="512" cy="521.68" r="1" fill="black"/>
<circle cx="460" cy="1.67969" r="1" fill="black"/>
<circle cx="460" cy="53.6797" r="1" fill="black"/>
<circle cx="460" cy="105.68" r="1" fill="black"/>
<circle cx="460" cy="157.68" r="1" fill="black"/>
<circle cx="460" cy="209.68" r="1" fill="black"/>
<circle cx="460" cy="261.68" r="1" fill="black"/>
<circle cx="460" cy="313.68" r="1" fill="black"/>
<circle cx="460" cy="365.68" r="1" fill="black"/>
<circle cx="460" cy="573.68" r="1" fill="black"/>
<circle cx="460" cy="417.68" r="1" fill="black"/>
<circle cx="460" cy="469.68" r="1" fill="black"/>
<circle cx="460" cy="521.68" r="1" fill="black"/>
<circle cx="408" cy="1.67969" r="1" fill="black"/>
<circle cx="408" cy="53.6797" r="1" fill="black"/>
<circle cx="408" cy="105.68" r="1" fill="black"/>
<circle cx="408" cy="157.68" r="1" fill="black"/>
<circle cx="408" cy="209.68" r="1" fill="black"/>
<circle cx="408" cy="261.68" r="1" fill="black"/>
<circle cx="408" cy="313.68" r="1" fill="black"/>
<circle cx="408" cy="365.68" r="1" fill="black"/>
<circle cx="408" cy="573.68" r="1" fill="black"/>
<circle cx="408" cy="417.68" r="1" fill="black"/>
<circle cx="408" cy="469.68" r="1" fill="black"/>
<circle cx="408" cy="521.68" r="1" fill="black"/>
</g>
</svg>
