<svg width="51" height="64" viewBox="0 0 51 64" fill="none" xmlns="http://www.w3.org/2000/svg">
<path d="M50.5202 25.7865C50.5202 39.5015 25.6869 63.466 25.6869 63.466C25.6869 63.466 0.853516 39.5015 0.853516 25.7865C0.853516 12.0714 11.9718 0.953125 25.6869 0.953125C39.4019 0.953125 50.5202 12.0714 50.5202 25.7865Z" fill="#95CB35"/>
<circle cx="25.6885" cy="24.0361" r="18.5947" fill="#FCFCF7"/>
<g clip-path="url(#clip0_205_22)">
<path d="M25.008 36.0363V29.4139C24.5721 29.5853 24.1554 29.7814 23.7212 29.9146C20.5739 30.8837 17.1991 29.1034 16.0754 25.8938C14.9608 22.71 16.3182 19.2168 19.247 17.7494C19.315 17.722 19.3747 17.6761 19.4198 17.6165C19.4649 17.557 19.4938 17.4859 19.5033 17.4107C19.7287 16.1075 20.3301 14.9064 21.2277 13.967C22.1253 13.0276 23.2766 12.3943 24.5286 12.1513C27.9125 11.4733 31.2602 13.8618 31.8599 17.3878C31.892 17.578 31.9728 17.6772 32.1422 17.7599C34.5413 18.9568 35.9574 21.6475 35.6429 24.3976C35.3216 27.2186 33.2534 29.536 30.586 30.0573C29.2183 30.3379 27.7994 30.1327 26.5574 29.4744C26.5043 29.4474 26.4506 29.4215 26.3592 29.3764V36.0363H25.008ZM29.3918 21.7285C29.2896 21.7872 29.2117 21.833 29.1327 21.8765C28.2626 22.3513 27.393 22.828 26.5207 23.2993C26.4111 23.358 26.3563 23.422 26.3569 23.5646C26.3631 24.8847 26.3569 26.2061 26.3671 27.5244C26.3726 27.5784 26.3887 27.6307 26.4145 27.6779C26.4402 27.7252 26.475 27.7664 26.5167 27.7991C27.7747 28.7178 29.1552 28.9972 30.6465 28.5974C34.0394 27.6864 35.4532 23.4449 33.337 20.5458C32.734 19.7078 31.8966 19.0842 30.9395 18.7602C30.7136 18.6821 30.6244 18.5717 30.6148 18.3264C30.6 18.0382 30.5622 17.7517 30.5019 17.47C29.8808 14.4006 26.6059 12.6009 23.8307 13.8307C22.0053 14.6384 20.9782 16.1023 20.7721 18.1603C20.7376 18.5031 20.6535 18.6786 20.308 18.813C17.0946 20.0603 16.0207 24.006 18.1059 26.8253C19.6948 28.9725 22.8212 29.4127 24.8872 27.7751C24.954 27.7104 24.9944 27.6215 25.0001 27.5268C25.0142 27.2462 25.0001 26.9644 25.0086 26.6833C25.0142 26.5447 24.9623 26.4784 24.8482 26.4168C23.9623 25.939 23.0798 25.4541 22.1944 24.971C22.1238 24.9323 22.0549 24.8883 21.9736 24.8401L22.6004 23.6075L25.0159 24.9241V19.0443H26.3552V21.7996L28.7589 20.49L29.3918 21.7285Z" fill="black"/>
</g>
<defs>
<clipPath id="clip0_205_22">
<rect width="20" height="24" fill="white" transform="translate(15.6875 12.0361)"/>
</clipPath>
</defs>
</svg>
