<svg width="50" height="64" viewBox="0 0 50 64" fill="none" xmlns="http://www.w3.org/2000/svg">
<path d="M49.9987 25.721C49.9987 39.4361 25.1654 63.4005 25.1654 63.4005C25.1654 63.4005 0.332031 39.4361 0.332031 25.721C0.332031 12.006 11.4503 0.887695 25.1654 0.887695C38.8804 0.887695 49.9987 12.006 49.9987 25.721Z" fill="#95CB35"/>
<circle cx="25.167" cy="23.9707" r="18.5947" fill="#FCFCF7"/>
<g clip-path="url(#clip0_205_21)">
<path d="M37.4785 24.6165C37.4406 24.7707 37.4097 24.9268 37.3635 25.0778C37.0101 26.2305 36.2577 26.9887 35.096 27.3164C35.0246 27.3321 34.9587 27.3668 34.9054 27.4167C34.852 27.4667 34.8131 27.5302 34.7927 27.6004C33.3194 31.4273 30.5655 33.7352 26.508 34.3231C21.7051 35.0203 17.1367 32.1642 15.533 27.5837C15.5143 27.5165 15.477 27.456 15.4253 27.4092C15.3737 27.3623 15.3099 27.3311 15.2413 27.319C13.7956 26.9257 12.8414 25.6664 12.8536 24.1815C12.8658 22.7403 13.8534 21.4957 15.2792 21.1109C15.3279 21.0958 15.3729 21.071 15.4116 21.0378C15.4503 21.0047 15.4818 20.9639 15.5041 20.9181C16.3663 18.5048 17.9041 16.6545 20.1174 15.3673C20.1444 15.3512 20.1688 15.3307 20.2234 15.2928C18.727 14.6695 17.9103 13.5721 17.812 11.9375H19.2545C19.2982 12.6513 19.5892 13.2412 20.19 13.6575C20.6674 13.9884 21.2046 14.0585 21.8111 14.0148C21.3832 13.3787 21.1429 12.7053 21.1339 11.9388H22.5558C22.5821 12.0943 22.6001 12.26 22.64 12.4194C22.8816 13.3909 23.7168 14.0328 24.7667 14.0257C25.9695 14.0141 27.1524 14.1311 28.2936 14.5224C31.4599 15.6089 33.6362 17.7183 34.7959 20.8648C34.8137 20.9319 34.8496 20.9928 34.8997 21.0408C34.9498 21.0889 35.0122 21.1222 35.0799 21.1372C36.3817 21.5227 37.1739 22.3792 37.4354 23.7169C37.4471 23.7632 37.4614 23.8087 37.4785 23.8532V24.6165ZM22.7974 17.843C22.8025 17.9188 22.8064 17.9715 22.8102 18.0287C22.897 19.1852 23.8877 20.1445 25.0404 20.1895C26.3756 20.2415 27.4943 19.2193 27.5245 17.9188C27.5572 16.547 26.5215 15.4682 25.1471 15.4727C22.8687 15.4798 20.8878 16.272 19.2108 17.8057C17.9167 18.9886 17.0725 20.4484 16.6535 22.1498C16.5964 22.3811 16.5122 22.4711 16.2584 22.4679C15.9869 22.4597 15.716 22.4975 15.4572 22.5797C15.0793 22.7122 14.7588 22.971 14.5497 23.3125C14.3406 23.654 14.2558 24.0572 14.3096 24.4539C14.4439 25.3348 15.114 25.9279 16.0444 25.9889C16.5662 26.023 16.5662 26.023 16.7037 26.5203C17.9065 30.8599 22.1465 33.6427 26.5619 32.8627C30.155 32.2272 32.5008 30.0767 33.6034 26.5884C33.6612 26.4066 33.6606 26.1592 33.7833 26.0564C33.906 25.9536 34.1451 26.0031 34.3333 25.9851L34.4528 25.9735C34.7104 25.9468 34.9589 25.8635 35.1806 25.7297C35.4024 25.5959 35.5918 25.4148 35.7355 25.1993C35.8792 24.9838 35.9735 24.7393 36.0118 24.4832C36.0501 24.2271 36.0314 23.9657 35.957 23.7176C35.718 22.9324 35.0574 22.473 34.1431 22.4582C33.7666 22.4525 33.7653 22.4531 33.6722 22.101C33.0868 19.8946 31.8512 18.1495 29.9455 16.8927C29.5381 16.6241 29.0954 16.4108 28.6694 16.1718L28.6225 16.2264C28.9824 17.0034 29.0691 17.8792 28.8686 18.7117C28.6752 19.5478 28.1985 20.2913 27.5193 20.8159C26.9225 21.2903 26.1964 21.5733 25.436 21.6279C24.6756 21.6825 23.9165 21.5061 23.2581 21.1218C22.0758 20.4323 21.227 18.9507 21.387 17.8449L22.7974 17.843Z" fill="black"/>
<path d="M21.6836 28.2002L22.9256 27.4671C23.4608 28.2735 24.1997 28.7355 25.168 28.7342C26.1363 28.7329 26.8649 28.2844 27.4047 27.4658L28.6467 28.197C27.8409 29.4409 26.7268 30.1374 25.2612 30.1709C23.7236 30.2017 22.5465 29.5046 21.6836 28.2002Z" fill="black"/>
<path d="M23.402 24.5047H21.9839C21.8252 23.8872 21.5387 23.6051 21.06 23.5852C20.5691 23.5646 20.2735 23.8345 20.0608 24.5053H18.6582C18.6704 23.6623 19.0193 23.0076 19.6997 22.5533C20.5016 22.0187 21.3575 21.9847 22.196 22.4569C22.9728 22.8932 23.3602 23.5884 23.402 24.5047Z" fill="black"/>
<path d="M28.3595 24.5062H26.9414C26.9523 23.6709 27.2942 23.0239 27.9611 22.5683C28.7559 22.0254 29.6118 21.9804 30.4554 22.4437C31.2451 22.8774 31.6447 23.5732 31.6826 24.4997H30.2781C29.9568 23.7486 29.6998 23.5359 29.1948 23.5951C28.7405 23.6484 28.461 23.9472 28.3595 24.5062Z" fill="black"/>
</g>
<defs>
<clipPath id="clip0_205_21">
<rect width="24.6249" height="22.4929" fill="white" transform="translate(12.8535 11.9355)"/>
</clipPath>
</defs>
</svg>
