<svg width="50" height="63" viewBox="0 0 50 63" fill="none" xmlns="http://www.w3.org/2000/svg">
<path d="M49.6667 24.8333C49.6667 38.5484 24.8333 62.5128 24.8333 62.5128C24.8333 62.5128 0 38.5484 0 24.8333C0 11.1183 11.1183 0 24.8333 0C38.5484 0 49.6667 11.1183 49.6667 24.8333Z" fill="#95CB35"/>
<circle cx="24.8349" cy="23.083" r="18.5947" fill="#FCFCF7"/>
<path d="M32.9289 13.5046C32.9289 13.2256 32.7032 13 32.4243 13H20.1822C18.4632 13 17.0684 14.399 17.0684 16.1138V29.8862C17.0684 31.6051 18.4673 33 20.1822 33H32.4284C32.7073 33 32.933 32.7744 32.933 32.4954V18.7272C32.933 18.4482 32.7073 18.2226 32.4284 18.2226H20.1822C19.0212 18.2226 18.0735 17.2749 18.0735 16.1138C18.0735 14.9528 19.0212 14.0051 20.1822 14.0051H32.4284C32.7032 14.0051 32.9289 13.7795 32.9289 13.5046ZM20.1822 19.2277H31.9238V31.9949H20.1822C19.0212 31.9949 18.0735 31.0472 18.0735 29.8862V18.4031C18.6273 18.9159 19.3699 19.2277 20.1822 19.2277Z" fill="black"/>
<path d="M20.3542 15.6582C20.0753 15.6582 19.8496 15.8838 19.8496 16.1628C19.8496 16.4418 20.0753 16.6674 20.3542 16.6674H31.8455C32.1245 16.6674 32.3501 16.4418 32.3501 16.1628C32.3501 15.8838 32.1245 15.6582 31.8455 15.6582H20.3542Z" fill="black"/>
<path d="M22.3025 29.3161C22.561 29.4146 22.8523 29.2874 22.9507 29.0249L23.6851 27.1049H26.2574C26.2779 27.1049 26.2943 27.1008 26.3107 27.1008L27.0451 29.0249C27.123 29.2259 27.3118 29.349 27.5128 29.349C27.5743 29.349 27.6318 29.3367 27.6933 29.3161C27.9518 29.2177 28.083 28.9264 27.9846 28.6679L25.7692 22.8751C25.6461 22.551 25.3425 22.3418 24.9979 22.3418C24.6533 22.3418 24.3497 22.551 24.2266 22.8751L22.0113 28.6679C21.9128 28.9264 22.0441 29.2136 22.3025 29.3161ZM24.9979 23.6669L25.9292 26.0997H24.0707L24.9979 23.6669Z" fill="black"/>
</svg>
