<svg width="50" height="63" viewBox="0 0 50 63" fill="none" xmlns="http://www.w3.org/2000/svg">
<path d="M49.6667 24.8333C49.6667 38.5484 24.8333 62.5128 24.8333 62.5128C24.8333 62.5128 0 38.5484 0 24.8333C0 11.1183 11.1183 0 24.8333 0C38.5484 0 49.6667 11.1183 49.6667 24.8333Z" fill="#95CB35"/>
<circle cx="24.8349" cy="23.083" r="18.5947" fill="#FCFCF7"/>
<path d="M20.415 25.8269H31.6805C32.9579 25.8269 34 24.7566 34 23.4445V18.5761C34 18.5718 34 18.5632 34 18.5589C34 18.5459 34 18.5373 34 18.5243C34 18.5157 34 18.5071 33.9958 18.4985C33.9958 18.4898 33.9916 18.4769 33.9916 18.4682C33.9916 18.4596 33.9874 18.451 33.9874 18.4423C33.9832 18.4337 33.9832 18.4251 33.979 18.4121C33.9748 18.4035 33.9748 18.3949 33.9706 18.3862C33.9664 18.3776 33.9664 18.369 33.9622 18.3603C33.958 18.3517 33.9538 18.3431 33.9496 18.3301C33.9454 18.3215 33.9412 18.3129 33.937 18.3086C33.9328 18.2999 33.9286 18.2913 33.9244 18.2827C33.9202 18.274 33.916 18.2697 33.9118 18.2611C33.9076 18.2524 33.8992 18.2438 33.895 18.2352C33.8907 18.2265 33.8865 18.2222 33.8781 18.2136C33.8739 18.205 33.8655 18.2007 33.8613 18.192C33.8571 18.1834 33.8487 18.1791 33.8445 18.1704C33.8403 18.1618 33.8319 18.1575 33.8277 18.1532C33.8193 18.1445 33.8151 18.1402 33.8067 18.1316C33.7983 18.1273 33.7941 18.1187 33.7857 18.1143C33.7773 18.11 33.7689 18.1014 33.7605 18.0971C33.7521 18.0928 33.7479 18.0884 33.7395 18.0841C33.7311 18.0798 33.7227 18.0755 33.7143 18.0669C33.7059 18.0625 33.6975 18.0582 33.6891 18.0539C33.6807 18.0496 33.6722 18.0453 33.6638 18.041C33.6554 18.0366 33.647 18.0323 33.6386 18.028C33.6302 18.0237 33.6218 18.0237 33.6134 18.0194C33.605 18.0151 33.5924 18.0108 33.584 18.0108C33.5756 18.0108 33.5672 18.0064 33.563 18.0064C33.5504 18.0021 33.542 18.0021 33.5294 18.0021C33.5252 18.0021 33.521 17.9978 33.5126 17.9978L19.2343 15.9736V13.9279C19.2343 13.9063 19.2343 13.8847 19.2301 13.8675C19.2301 13.8631 19.2301 13.8588 19.2259 13.8502C19.2259 13.8372 19.2217 13.8243 19.2217 13.8113C19.2175 13.7984 19.2175 13.7898 19.2133 13.7768C19.2133 13.7682 19.2091 13.7639 19.2091 13.7552C19.2049 13.7423 19.2007 13.7293 19.1965 13.7164C19.1965 13.7121 19.1923 13.7034 19.1923 13.6991C19.1881 13.6862 19.1839 13.6776 19.1754 13.6646C19.1712 13.6603 19.1712 13.6517 19.167 13.6473C19.1628 13.6387 19.1586 13.6301 19.1502 13.6214C19.146 13.6128 19.1418 13.6085 19.1376 13.5999C19.1334 13.5912 19.1292 13.5869 19.125 13.5783C19.1208 13.5697 19.1124 13.561 19.1082 13.5524C19.104 13.5481 19.0998 13.5438 19.0956 13.5394C19.0872 13.5308 19.0788 13.5222 19.0704 13.5135C19.0662 13.5092 19.062 13.5049 19.0578 13.5006C19.0494 13.492 19.041 13.4833 19.0284 13.4747C19.0242 13.4704 19.0158 13.4661 19.0116 13.4618C19.0032 13.4531 18.9948 13.4488 18.9864 13.4402C18.9738 13.4315 18.9611 13.4229 18.9527 13.4186C18.9485 13.4143 18.9443 13.4143 18.9401 13.41C18.9233 13.4013 18.9023 13.3927 18.8855 13.3841L15.7887 12.0461C15.4987 11.921 15.1668 12.0591 15.0449 12.3569C14.9231 12.6547 15.0575 12.9956 15.3475 13.1208L18.0955 14.312V16.9533V17.372V20.5831V23.4531V27.0785C18.0955 28.287 18.978 29.2883 20.1167 29.4394C19.9108 29.7933 19.7889 30.2076 19.7889 30.6478C19.7889 31.9469 20.8184 33 22.079 33C23.3396 33 24.3691 31.9426 24.3691 30.6478C24.3691 30.2162 24.2556 29.8062 24.0539 29.4609H29.1551C28.9534 29.8105 28.84 30.2162 28.84 30.6478C28.84 31.9469 29.8695 33 31.1301 33C32.3906 33 33.4201 31.9426 33.4201 30.6478C33.4201 29.353 32.3906 28.2956 31.1301 28.2956H20.415C19.7595 28.2956 19.2301 27.7475 19.2301 27.0785V25.4989C19.5746 25.7061 19.9822 25.8269 20.415 25.8269ZM23.2388 30.6435C23.2388 31.2995 22.7177 31.8304 22.0832 31.8304C21.4487 31.8304 20.9277 31.2952 20.9277 30.6435C20.9277 29.9918 21.4487 29.4566 22.0832 29.4566C22.7177 29.4566 23.2388 29.9875 23.2388 30.6435ZM32.2898 30.6435C32.2898 31.2995 31.7688 31.8304 31.1343 31.8304C30.4998 31.8304 29.9787 31.2952 29.9787 30.6435C29.9787 29.9918 30.4998 29.4566 31.1343 29.4566C31.7688 29.4566 32.2898 29.9875 32.2898 30.6435ZM31.6805 24.6616H20.415C19.7595 24.6616 19.2301 24.1135 19.2301 23.4445V20.5744V17.3634V17.1476L32.8655 19.0768V23.4402C32.8655 24.1178 32.3318 24.6616 31.6805 24.6616Z" fill="black"/>
</svg>
