<svg width="32" height="32" viewBox="0 0 32 32" fill="none" xmlns="http://www.w3.org/2000/svg">
<g clip-path="url(#clip0_39_681)">
<path d="M0.429688 10.5712C0.429688 6.83332 0.429688 4.96439 1.16865 3.54182C1.79137 2.34303 2.76882 1.36559 3.9676 0.742872C5.39017 0.00390625 7.25911 0.00390625 10.997 0.00390625H21.3674C25.1052 0.00390625 26.9742 0.00390625 28.3967 0.742872C29.5955 1.36559 30.573 2.34303 31.1957 3.54182C31.9347 4.96439 31.9347 6.83332 31.9347 10.5712V20.9416C31.9347 24.6795 31.9347 26.5484 31.1957 27.971C30.573 29.1697 29.5955 30.1472 28.3967 30.7699C26.9742 31.5089 25.1052 31.5089 21.3674 31.5089H10.997C7.25911 31.5089 5.39017 31.5089 3.9676 30.7699C2.76882 30.1472 1.79137 29.1697 1.16865 27.971C0.429688 26.5484 0.429688 24.6795 0.429688 20.9416V10.5712Z" fill="url(#paint0_radial_39_681)"/>
<path d="M0.429688 10.5712C0.429688 6.83332 0.429688 4.96439 1.16865 3.54182C1.79137 2.34303 2.76882 1.36559 3.9676 0.742872C5.39017 0.00390625 7.25911 0.00390625 10.997 0.00390625H21.3674C25.1052 0.00390625 26.9742 0.00390625 28.3967 0.742872C29.5955 1.36559 30.573 2.34303 31.1957 3.54182C31.9347 4.96439 31.9347 6.83332 31.9347 10.5712V20.9416C31.9347 24.6795 31.9347 26.5484 31.1957 27.971C30.573 29.1697 29.5955 30.1472 28.3967 30.7699C26.9742 31.5089 25.1052 31.5089 21.3674 31.5089H10.997C7.25911 31.5089 5.39017 31.5089 3.9676 30.7699C2.76882 30.1472 1.79137 29.1697 1.16865 27.971C0.429688 26.5484 0.429688 24.6795 0.429688 20.9416V10.5712Z" fill="url(#paint1_radial_39_681)"/>
<path d="M16.1659 4.30078C13.0547 4.30078 12.6642 4.31439 11.4423 4.37C10.2227 4.42585 9.39019 4.61893 8.66178 4.90224C7.90831 5.19485 7.26916 5.58628 6.6324 6.2233C5.99516 6.86008 5.60375 7.49925 5.31019 8.25251C5.02617 8.98118 4.83285 9.81391 4.77796 11.0331C4.7233 12.2551 4.70898 12.6458 4.70898 15.7571C4.70898 18.8685 4.72283 19.2578 4.7782 20.4798C4.83428 21.6994 5.02737 22.5319 5.31042 23.2603C5.60327 24.0138 5.99468 24.653 6.63168 25.2898C7.26821 25.927 7.90736 26.3194 8.66035 26.612C9.38924 26.8953 10.2219 27.0884 11.4413 27.1443C12.6633 27.1999 13.0535 27.2135 16.1645 27.2135C19.276 27.2135 19.6653 27.1999 20.8873 27.1443C22.1068 27.0884 22.9403 26.8953 23.6691 26.612C24.4224 26.3194 25.0606 25.927 25.6971 25.2898C26.3343 24.653 26.7258 24.0138 27.0193 23.2606C27.3009 22.5319 27.4943 21.6992 27.5515 20.48C27.6064 19.258 27.6208 18.8685 27.6208 15.7571C27.6208 12.6458 27.6064 12.2553 27.5515 11.0333C27.4943 9.81367 27.3009 8.98118 27.0193 8.25274C26.7258 7.49925 26.3343 6.86008 25.6971 6.2233C25.0599 5.58604 24.4226 5.19462 23.6684 4.90224C22.9381 4.61893 22.1052 4.42585 20.8856 4.37C19.6636 4.31439 19.2746 4.30078 16.1624 4.30078H16.1659ZM15.1382 6.36531C15.4433 6.36483 15.7836 6.36531 16.1659 6.36531C19.2247 6.36531 19.5872 6.37629 20.7951 6.43119C21.9121 6.48226 22.5183 6.6689 22.9221 6.82571C23.4567 7.03336 23.8379 7.28158 24.2386 7.68255C24.6396 8.08352 24.8878 8.4654 25.0959 9.00003C25.2527 9.40339 25.4396 10.0096 25.4904 11.1266C25.5453 12.3343 25.5572 12.6971 25.5572 15.7545C25.5572 18.8119 25.5453 19.1747 25.4904 20.3824C25.4393 21.4994 25.2527 22.1056 25.0959 22.509C24.8883 23.0436 24.6396 23.4243 24.2386 23.825C23.8376 24.226 23.457 24.4742 22.9221 24.6819C22.5188 24.8394 21.9121 25.0256 20.7951 25.0766C19.5875 25.1315 19.2247 25.1435 16.1659 25.1435C13.107 25.1435 12.7444 25.1315 11.5368 25.0766C10.4198 25.0251 9.81359 24.8384 9.40953 24.6816C8.87491 24.474 8.49305 24.2258 8.09209 23.8248C7.69113 23.4238 7.44291 23.0429 7.23479 22.508C7.07799 22.1047 6.89111 21.4984 6.84028 20.3814C6.78539 19.1737 6.77441 18.811 6.77441 15.7516C6.77441 12.6923 6.78539 12.3314 6.84028 11.1238C6.89135 10.0068 7.07799 9.40053 7.23479 8.99669C7.44243 8.46206 7.69113 8.08018 8.09209 7.67921C8.49305 7.27824 8.87491 7.03002 9.40953 6.82189C9.81335 6.66437 10.4198 6.4782 11.5368 6.42689C12.5936 6.37915 13.0031 6.36483 15.1382 6.36245V6.36531ZM22.2811 8.26754C21.5221 8.26754 20.9063 8.88261 20.9063 9.64183C20.9063 10.4008 21.5221 11.0166 22.2811 11.0166C23.04 11.0166 23.6558 10.4008 23.6558 9.64183C23.6558 8.88284 23.04 8.26707 22.2811 8.26707V8.26754ZM16.1659 9.87382C12.917 9.87382 10.2828 12.5081 10.2828 15.7571C10.2828 19.0062 12.917 21.6393 16.1659 21.6393C19.4149 21.6393 22.0481 19.0062 22.0481 15.7571C22.0481 12.5081 19.4147 9.87382 16.1657 9.87382H16.1659ZM16.1659 11.9383C18.2748 11.9383 19.9846 13.648 19.9846 15.7571C19.9846 17.8661 18.2748 19.5759 16.1659 19.5759C14.0568 19.5759 12.3473 17.8661 12.3473 15.7571C12.3473 13.648 14.0568 11.9383 16.1659 11.9383Z" fill="white"/>
</g>
<defs>
<radialGradient id="paint0_radial_39_681" cx="0" cy="0" r="1" gradientUnits="userSpaceOnUse" gradientTransform="translate(8.79823 33.9354) rotate(-90) scale(31.2237 29.0405)">
<stop stop-color="#FFDD55"/>
<stop offset="0.1" stop-color="#FFDD55"/>
<stop offset="0.5" stop-color="#FF543E"/>
<stop offset="1" stop-color="#C837AB"/>
</radialGradient>
<radialGradient id="paint1_radial_39_681" cx="0" cy="0" r="1" gradientUnits="userSpaceOnUse" gradientTransform="translate(-4.84756 2.27347) rotate(78.6806) scale(13.9571 57.5319)">
<stop stop-color="#3771C8"/>
<stop offset="0.128" stop-color="#3771C8"/>
<stop offset="1" stop-color="#6600FF" stop-opacity="0"/>
</radialGradient>
<clipPath id="clip0_39_681">
<rect width="31.505" height="31.505" fill="white" transform="translate(0.412109 0.00390625)"/>
</clipPath>
</defs>
</svg>
